{
.appVersion = "3409";
.formatVersion = 3;
DisplayStrings = (
"ƶ"
);
axes = (
{
name = Weight;
tag = wght;
}
);
classes = (
{
automatic = 1;

glyphs = (
{
glyphname = A;
lastChange = "2025-03-29 09:30:26 +0000";
layers = (
{
anchors = (
{
name = bottom;
pos = (336,0);
},
{
name = ogonek;
pos = (638,0);
},
{
name = top;
pos = (326,730);
}
);
layerId = "79167EE4-8C29-4BCE-A9E7-C1CFC4557E33";
shapes = (
{
closed = 1;
nodes = (
(50,0,l),
(342,686,l),
(326,695,l),
(621,0,l),
(656,0,l),
(346,730,l),
(311,730,l),
(0,0,l)
);
},
{
closed = 1;
nodes = (
(534,221,l),
(534,271,l),
(125,271,l),
(125,221,l)
);
}
);
width = 656;
},
{
anchors = (
{
name = bottom;
pos = (418,0);
},
{
name = ogonek;
pos = (691,0);
},
{
name = top;
pos = (372,730);
}
);
layerId = "41EDA971-A137-4972-81AF-7929AB7CAABF";
shapes = (
{
closed = 1;
nodes = (
(249,0,l),
(470,558,l),
(420,558,l),
(637,0,l),
(740,0,l),
(456,730,l),
(288,730,l),
(0,0,l)
);
},
{
closed = 1;
nodes = (
(581,165,l),
(581,261,l),
(286,261,l),
(286,165,l)
);
}
);
width = 740;
},
{
anchors = (
{
name = ogonek;
pos = (628,0);
},
{
name = top;
pos = (321,730);
}
);
associatedMasterId = "79167EE4-8C29-4BCE-A9E7-C1CFC4557E33";
layerId = "E7B2FFC8-519C-490A-B444-86EE51DA1E97";
name = "12 déc. 24 à 15:06";
shapes = (
{
closed = 1;
nodes = (
(52,0,l),
(340,682,l),
(318,699,l),
(613,0,l),
(648,0,l),
(340,730,l),
(308,730,l),
(0,0,l)
);
},
{
closed = 1;
nodes = (
(530,221,l),
(530,271,l),
(121,271,l),
(121,221,l)
);
}
);
width = 648;
},
{
anchors = (
{
name = ogonek;
pos = (638,0);
},
{
name = top;
pos = (326,730);
}
);
associatedMasterId = "79167EE4-8C29-4BCE-A9E7-C1CFC4557E33";
layerId = "B1D160DF-7442-4331-ACF2-B81935489346";
name = "16 déc. 24 à 12:18";
shapes = (
{
closed = 1;
nodes = (
(52,0,l),
(344,686,l),
(326,695,l),
(621,0,l),
(656,0,l),
(346,730,l),
(310,730,l),
(0,0,l)
);
},
{
closed = 1;
nodes = (
(534,221,l),
(534,271,l),
(125,271,l),
(125,221,l)
);
}
);
width = 656;
},
{
anchors = (
{
name = ogonek;
pos = (691,0);
},
{
name = top;
pos = (372,730);
}
);
associatedMasterId = "41EDA971-A137-4972-81AF-7929AB7CAABF";
layerId = "708F3327-D1DA-4BD8-95DD-E10DF84F0C01";
name = "16 déc. 24 à 12:23";
shapes = (
{
closed = 1;
nodes = (
(262,0,l),
(483,558,l),
(420,558,l),
(637,0,l),
(740,0,l),
(456,730,l),
(288,730,l),
(0,0,l)
);
},
{
closed = 1;
nodes = (
(581,165,l),
(581,261,l),
(286,261,l),
(286,165,l)
);
}
);
width = 740;
}
);
unicode = 65;
},
{
glyphname = "Alpha-latin";
lastChange = "2025-04-03 08:43:56 +0000";
layers = (
{
layerId = "79167EE4-8C29-4BCE-A9E7-C1CFC4557E33";
shapes = (
{
closed = 1;
nodes = (
(527,-8,o),
(646,133,o),
(646,365,cs),
(646,597,o),
(527,738,o),
(346,738,cs),
(165,738,o),
(46,597,o),
(46,365,cs),
(46,133,o),
(165,-8,o),
(346,-8,cs)
);
},
{
closed = 1;
nodes = (
(177,50,o),
(78,176,o),
(78,365,cs),
(78,553,o),
(177,676,o),
(346,676,cs),
(516,676,o),
(614,553,o),
(614,365,cs),
(614,176,o),
(516,50,o),
(346,50,cs)
);
},
{
closed = 1;
nodes = (
(732,-8,o),
(754,7,o),
(767,28,c),
(753,64,l),
(742,55,o),
(725,50,o),
(705,50,cs),
(670,50,o),
(648,67,o),
(648,122,cs),
(648,730,l),
(616,730,l),
(616,504,l),
(620,485,l),
(620,238,l),
(616,217,l),
(616,98,ls),
(616,25,o),
(647,-8,o),
(699,-8,cs)
);
}
);
userData = {
RMXScaler = {
height = 133;
width = 133;
};
};
width = 771;
},
{
layerId = "41EDA971-A137-4972-81AF-7929AB7CAABF";
shapes = (
{
closed = 1;
nodes = (
(503,-16,o),
(647,69,o),
(647,368,cs),
(647,663,o),
(505,746,o),
(347,746,cs),
(166,746,o),
(32,631,o),
(32,359,cs),
(32,97,o),
(164,-16,o),
(343,-16,cs)
);
},
{
closed = 1;
nodes = (
(186,202,o),
(115,245,o),
(115,329,cs),
(115,413,o),
(186,456,o),
(352,456,cs),
(514,456,o),
(583,413,o),
(583,329,cs),
(583,245,o),
(514,202,o),
(352,202,cs)
);
},
{
closed = 1;
nodes = (
(774,-16,o),
(814,19,o),
(836,66,c),
(791,204,l),
(777,189,o),
(757,182,o),
(735,182,cs),
(695,182,o),
(675,201,o),
(675,251,cs),
(675,730,l),
(579,730,l),
(579,542,l),
(583,505,l),
(583,212,l),
(579,185,l),
(579,164,ls),
(579,37,o),
(630,-16,o),
(710,-16,cs)
);
}
);
userData = {
RMXScaler = {
height = 133;
width = 133;
};
};
width = 836;
},
{
associatedMasterId = "79167EE4-8C29-4BCE-A9E7-C1CFC4557E33";
background = {
anchors = (
{
name = top;
pos = (356,730);
}
);
};
layerId = "1FE592ED-E933-4D21-A948-4B99F64E9387";
name = "25 mars 25 à 13:48";
userData = {
RMXScaler = {
height = 133;
width = 133;
};
};
width = 0;
},
{
associatedMasterId = "79167EE4-8C29-4BCE-A9E7-C1CFC4557E33";
layerId = "A923E82B-7434-4A44-ACEF-F83372129992";
name = "27 mars 25 à 11:00";
shapes = (
{
closed = 1;
nodes = (
(527,-8,o),
(646,133,o),
(646,365,cs),
(646,597,o),
(527,738,o),
(346,738,cs),
(165,738,o),
(46,597,o),
(46,365,cs),
(46,133,o),
(165,-8,o),
(346,-8,cs)
);
},
{
closed = 1;
nodes = (
(177,50,o),
(78,176,o),
(78,365,cs),
(78,553,o),
(177,676,o),
(346,676,cs),
(516,676,o),
(614,553,o),
(614,365,cs),
(614,176,o),
(516,50,o),
(346,50,cs)
);
},
{
closed = 1;
nodes = (
(724,-8,o),
(754,11,o),
(767,34,c),
(753,70,l),
(743,60,o),
(727,50,o),
(705,50,cs),
(671,50,o),
(648,67,o),
(648,128,cs),
(648,730,l),
(616,730,l),
(616,504,l),
(620,485,l),
(620,238,l),
(616,217,l),
(616,112,ls),
(616,26,o),
(643,-8,o),
(695,-8,cs)
);
}
);
userData = {
RMXScaler = {
height = 133;
width = 133;
};
};
width = 769;
},
{
associatedMasterId = "79167EE4-8C29-4BCE-A9E7-C1CFC4557E33";
layerId = "13E72F2D-5510-4970-ABA5-F0ADE6E366E1";
name = "31 mars 25 à 10:45";
shapes = (
{
closed = 1;
nodes = (
(527,-8,o),
(646,133,o),
(646,365,cs),
(646,597,o),
(527,738,o),
(346,738,cs),
(165,738,o),
(46,597,o),
(46,365,cs),
(46,133,o),
(165,-8,o),
(346,-8,cs)
);
},
{
closed = 1;
nodes = (
(177,50,o),
(78,176,o),
(78,365,cs),
(78,553,o),
(177,676,o),
(346,676,cs),
(516,676,o),
(614,553,o),
(614,365,cs),
(614,176,o),
(516,50,o),
(346,50,cs)
);
},
{
closed = 1;
nodes = (
(724,-8,o),
(754,11,o),
(767,34,c),
(753,70,l),
(743,60,o),
(727,50,o),
(705,50,cs),
(671,50,o),
(648,67,o),
(648,122,cs),
(648,730,l),
(616,730,l),
(616,504,l),
(620,485,l),
(620,238,l),
(616,217,l),
(616,105,ls),
(616,26,o),
(643,-8,o),
(695,-8,cs)
);
}
);
userData = {
RMXScaler = {
height = 133;
width = 133;
};
};
width = 771;
},
{
associatedMasterId = "41EDA971-A137-4972-81AF-7929AB7CAABF";
layerId = "1485F2AE-3984-4133-9116-53723A1020E9";
name = "3 avr. 25 à 10:43";
shapes = (
{
closed = 1;
nodes = (
(496,-16,o),
(633,69,o),
(633,369,cs),
(633,663,o),
(498,746,o),
(347,746,cs),
(166,746,o),
(32,631,o),
(32,359,cs),
(32,97,o),
(164,-16,o),
(343,-16,cs)
);
},
{
closed = 1;
nodes = (
(186,202,o),
(115,245,o),
(115,329,cs),
(115,413,o),
(186,456,o),
(352,456,cs),
(518,456,o),
(589,413,o),
(589,329,cs),
(589,245,o),
(518,202,o),
(352,202,cs)
);
},
{
closed = 1;
nodes = (
(774,-16,o),
(814,19,o),
(836,66,c),
(791,204,l),
(777,189,o),
(757,182,o),
(735,182,cs),
(696,182,o),
(677,201,o),
(677,251,cs),
(677,730,l),
(581,730,l),
(581,542,l),
(589,505,l),
(589,212,l),
(581,185,l),
(581,164,ls),
(581,37,o),
(631,-16,o),
(710,-16,cs)
);
}
);
userData = {
RMXScaler = {
height = 133;
width = 133;
};
};
width = 836;
}
);
metricLeft = "=O";
unicode = 11373;
userData = {
RMXScaler = {
source = q;
};
};
},
{
glyphname = Astroke;
lastChange = "2025-03-31 11:41:39 +0000";
layers = (
{
layerId = "79167EE4-8C29-4BCE-A9E7-C1CFC4557E33";
shapes = (
{
ref = A;
},
{
closed = 1;
nodes = (
(506,723,l),
(467,738,l),
(152,-54,l),
(191,-68,l)
);
}
);
width = 656;
},
{
background = {
shapes = (
{
closed = 1;
nodes = (
(672,714,l),
(584,748,l),
(268,-44,l),
(356,-78,l)
);
}
);
};
layerId = "41EDA971-A137-4972-81AF-7929AB7CAABF";
shapes = (
{
ref = A;
},
{
closed = 1;
nodes = (
(669,715,l),
(584,748,l),
(268,-44,l),
(353,-77,l)
);
}
);
width = 740;
},
{
associatedMasterId = "79167EE4-8C29-4BCE-A9E7-C1CFC4557E33";
layerId = "533685B6-1615-4A33-9B41-0AD8C4B80246";
name = "19 mars 25 à 14:02";
shapes = (
{
ref = A;
},
{
closed = 1;
nodes = (
(159,-108,l),
(561,838,l),
(526,838,l),
(124,-108,l)
);
}
);
width = 656;
},
{
associatedMasterId = "79167EE4-8C29-4BCE-A9E7-C1CFC4557E33";
layerId = "D3DC2310-1156-43D1-A8CD-FE1C68D83454";
name = "19 mars 25 à 14:06";
shapes = (
{
ref = A;
},
{
closed = 1;
nodes = (
(523,763,l),
(483,780,l),
(157,-34,l),
(197,-51,l)
);
}
);
width = 656;
},
{
associatedMasterId = "41EDA971-A137-4972-81AF-7929AB7CAABF";
layerId = "EB1AAE3F-8F51-47FA-9E9C-61B417019C4C";
name = "31 mars 25 à 13:41";
shapes = (
{
ref = A;
},
{
closed = 1;
nodes = (
(672,714,l),
(584,748,l),
(268,-44,l),
(356,-78,l)
);
}
);
width = 740;
}
);
metricLeft = "=A";
metricRight = "=A";
unicode = 570;
},
{
glyphname = AE;
lastChange = "2025-03-31 08:59:14 +0000";
layers = (
{
anchors = (
{
name = top;
pos = (713,730);
}
);
layerId = "79167EE4-8C29-4BCE-A9E7-C1CFC4557E33";
shapes = (
{
closed = 1;
nodes = (
(963,672,l),
(963,730,l),
(550,730,l),
(550,672,l)
);
},
{
closed = 1;
nodes = (
(556,0,l),
(556,730,l),
(524,730,l),
(524,0,l)
);
},
{
closed = 1;
nodes = (
(56,0,l),
(567,730,l),
(511,730,l),
(0,0,l)
);
},
{
closed = 1;
nodes = (
(970,0,l),
(970,54,l),
(550,54,l),
(550,0,l)
);
},
{
closed = 1;
nodes = (
(883,313,l),
(883,363,l),
(547,363,l),
(547,313,l)
);
},
{
closed = 1;
nodes = (
(531,313,l),
(531,363,l),
(272,363,l),
(238,313,l)
);
}
);
width = 1022;
},
{
anchors = (
{
name = top;
pos = (696,730);
}
);
layerId = "41EDA971-A137-4972-81AF-7929AB7CAABF";
shapes = (
{
closed = 1;
nodes = (
(1059,450,l),
(1059,730,l),
(609,730,l),
(609,450,l)
);
},
{
closed = 1;
nodes = (
(667,0,l),
(667,730,l),
(571,730,l),
(571,0,l)
);
},
{
closed = 1;
nodes = (
(277,0,l),
(752,730,l),
(475,730,l),
(0,0,l)
);
},
{
closed = 1;
nodes = (
(1066,0,l),
(1066,208,l),
(609,208,l),
(609,0,l)
);
},
{
closed = 1;
nodes = (
(976,275,l),
(976,375,l),
(645,375,l),
(645,275,l)
);
},
{
closed = 1;
nodes = (
(586,189,l),
(586,289,l),
(350,289,l),
(350,189,l)
);
}
);
width = 1098;
},
{
anchors = (
{
name = top;
pos = (695,730);
}
);
associatedMasterId = "79167EE4-8C29-4BCE-A9E7-C1CFC4557E33";
attr = {
coordinates = (
550
);
};
background = {
shapes = (
{
closed = 1;
nodes = (
(1026,547,l),
(1026,730,l),
(592,730,l),
(592,547,l)
);
},
{
closed = 1;
nodes = (
(628,0,l),
(628,730,l),
(560,730,l),
(560,0,l)
);
},
{
closed = 1;
nodes = (
(189,0,l),
(681,730,l),
(490,730,l),
(0,0,l)
);
},
{
closed = 1;
nodes = (
(1033,0,l),
(1033,141,l),
(592,141,l),
(592,0,l)
);
},
{
closed = 1;
nodes = (
(945,292,l),
(945,370,l),
(611,370,l),
(611,292,l)
);
},
{
closed = 1;
nodes = (
(571,243,l),
(571,321,l),
(325,321,l),
(310,243,l)
);
}
);
};
layerId = "FBB7A49C-7C81-42C2-AD23-844AA45236F9";
name = "28 févr. 25 à 11:58";
shapes = (
{
closed = 1;
nodes = (
(1026,547,l),
(1026,730,l),
(592,730,l),
(592,547,l)
);
},
{
closed = 1;
nodes = (
(628,0,l),
(628,730,l),
(560,730,l),
(560,0,l)
);
},
{
closed = 1;
nodes = (
(189,0,l),
(681,730,l),
(490,730,l),
(0,0,l)
);
},
{
closed = 1;
nodes = (
(1033,0,l),
(1033,141,l),
(592,141,l),
(592,0,l)
);
},
{
closed = 1;
nodes = (
(945,260,l),
(945,346,l),
(611,346,l),
(611,260,l)
);
},
{
closed = 1;
nodes = (
(571,263,l),
(571,343,l),
(325,343,l),
(310,263,l)
);
}
);
width = 1074;
},
{
anchors = (
{
name = top;
pos = (676,730);
}
);
associatedMasterId = "79167EE4-8C29-4BCE-A9E7-C1CFC4557E33";
layerId = "C2D7A6F8-9983-4A52-AD5B-1034649BF794";
name = "5 mars 25 à 16:53";
shapes = (
{
closed = 1;
nodes = (
(966,672,l),
(966,730,l),
(553,730,l),
(553,672,l)
);
},
{
closed = 1;
nodes = (
(559,0,l),
(559,730,l),
(527,730,l),
(527,0,l)
);
},
{
closed = 1;
nodes = (
(59,0,l),
(570,730,l),
(512,730,l),
(0,0,l)
);
},
{
closed = 1;
nodes = (
(973,0,l),
(973,54,l),
(553,54,l),
(553,0,l)
);
},
{
closed = 1;
nodes = (
(886,313,l),
(886,363,l),
(550,363,l),
(550,313,l)
);
},
{
closed = 1;
nodes = (
(534,313,l),
(534,363,l),
(275,363,l),
(241,313,l)
);
}
);
width = 1025;
},
{
anchors = (
{
name = top;
pos = (710,730);
}
);
associatedMasterId = "41EDA971-A137-4972-81AF-7929AB7CAABF";
layerId = "C243C06E-FAA9-4116-AB78-F19500F2BE52";
name = "12 mars 25 à 11:45";
shapes = (
{
closed = 1;
nodes = (
(1073,450,l),
(1073,730,l),
(623,730,l),
(623,450,l)
);
},
{
closed = 1;
nodes = (
(681,0,l),
(681,730,l),
(585,730,l),
(585,0,l)
);
},
{
closed = 1;
nodes = (
(290,0,l),
(767,730,l),
(472,730,l),
(0,0,l)
);
},
{
closed = 1;
nodes = (
(1080,0,l),
(1080,208,l),
(623,208,l),
(623,0,l)
);
},
{
closed = 1;
nodes = (
(990,275,l),
(990,375,l),
(659,375,l),
(659,275,l)
);
},
{
closed = 1;
nodes = (
(600,189,l),
(600,289,l),
(364,289,l),
(364,189,l)
);
}
);
width = 1112;
},
{
anchors = (
{
name = top;
pos = (693,730);
}
);
associatedMasterId = "79167EE4-8C29-4BCE-A9E7-C1CFC4557E33";
layerId = "5FE2F4A5-242C-4B88-9EF7-AB586CBB21A6";
name = "31 mars 25 à 10:59";
shapes = (
{
closed = 1;
nodes = (
(963,672,l),
(963,730,l),
(550,730,l),
(550,672,l)
);
},
{
closed = 1;
nodes = (
(556,0,l),
(556,730,l),
(524,730,l),
(524,0,l)
);
},
{
closed = 1;
nodes = (
(56,0,l),
(567,730,l),
(511,730,l),
(0,0,l)
);
},
{
closed = 1;
nodes = (
(970,0,l),
(970,54,l),
(550,54,l),
(550,0,l)
);
},
{
closed = 1;
nodes = (
(883,313,l),
(883,363,l),
(547,363,l),
(547,313,l)
);
},
{
closed = 1;
nodes = (
(531,313,l),
(531,363,l),
(272,363,l),
(238,313,l)
);
}
);
width = 1022;
}
);
metricLeft = "=A";
metricRight = "=E";
unicode = 198;
},
{
glyphname = B;
lastChange = "2025-03-31 08:59:33 +0000";
layers = (
{
anchors = (
{
name = bottom;
pos = (313,0);
},
{
name = hookleft;
pos = (97,730);
},
{
name = top;
pos = (325,730);
}
);
layerId = "79167EE4-8C29-4BCE-A9E7-C1CFC4557E33";
shapes = (
{
closed = 1;
nodes = (
(349,0,ls),
(504,0,o),
(577,67,o),
(577,190,cs),
(577,277,o),
(534,360,o),
(394,379,c),
(403,357,l),
(516,377,o),
(560,453,o),
(560,540,cs),
(560,663,o),
(490,730,o),
(337,730,cs),
(111,730,l),
(111,672,l),
(344,672,ls),
(475,672,o),
(528,618,o),
(528,530,cs),
(528,444,o),
(471,388,o),
(339,388,cs),
(118,388,l),
(118,338,l),
(356,338,ls),
(488,338,o),
(545,282,o),
(545,196,cs),
(545,110,o),
(488,54,o),
(357,54,cs),
(111,54,l),
(111,0,l)
);
},
{
closed = 1;
nodes = (
(129,0,l),
(129,730,l),
(97,730,l),
(97,0,l)
);
}
);
width = 634;
},
{
anchors = (
{
name = bottom;
pos = (327,0);
},
{
name = hookleft;
pos = (70,730);
},
{
name = top;
pos = (329,730);
}
);
layerId = "41EDA971-A137-4972-81AF-7929AB7CAABF";
shapes = (
{
closed = 1;
nodes = (
(395,0,ls),
(562,0,o),
(623,75,o),
(623,181,cs),
(623,281,o),
(576,338,o),
(445,345,c),
(445,329,l),
(558,339,o),
(613,390,o),
(613,515,cs),
(613,653,o),
(532,730,o),
(365,730,cs),
(123,730,l),
(123,450,l),
(458,450,ls),
(490,450,o),
(503,437,o),
(503,418,cs),
(503,399,o),
(489,386,o),
(458,386,cs),
(138,386,l),
(138,286,l),
(461,286,ls),
(500,286,o),
(516,269,o),
(516,246,cs),
(516,223,o),
(500,208,o),
(461,208,cs),
(123,208,l),
(123,0,l)
);
},
{
closed = 1;
nodes = (
(166,0,l),
(166,730,l),
(70,730,l),
(70,0,l)
);
}
);
width = 645;
},
{
associatedMasterId = "79167EE4-8C29-4BCE-A9E7-C1CFC4557E33";
layerId = "0D689F6B-81CF-49F1-83C8-7EA6809856D0";
name = "12 déc. 24 à 14:59";
shapes = (
{
closed = 1;
nodes = (
(352,0,ls),
(507,0,o),
(580,67,o),
(580,190,cs),
(580,277,o),
(537,360,o),
(397,379,c),
(410,357,l),
(523,377,o),
(567,453,o),
(567,540,cs),
(567,663,o),
(494,730,o),
(339,730,cs),
(117,730,l),
(117,672,l),
(346,672,ls),
(478,672,o),
(535,616,o),
(535,530,cs),
(535,444,o),
(478,388,o),
(346,388,cs),
(124,388,l),
(124,338,l),
(359,338,ls),
(491,338,o),
(548,282,o),
(548,196,cs),
(548,110,o),
(491,54,o),
(360,54,cs),
(117,54,l),
(117,0,l)
);
},
{
closed = 1;
nodes = (
(135,0,l),
(135,730,l),
(103,730,l),
(103,0,l)
);
}
);
width = 640;
},
{
associatedMasterId = "41EDA971-A137-4972-81AF-7929AB7CAABF";
layerId = "9D0319E2-6293-426B-B604-EA76F9182E14";
name = "12 déc. 24 à 16:22";
shapes = (
{
closed = 1;
nodes = (
(387,0,ls),
(555,0,o),
(613,74,o),
(613,189,cs),
(613,288,o),
(577,338,o),
(439,341,c),
(439,329,l),
(559,341,o),
(603,389,o),
(603,507,cs),
(603,642,o),
(535,730,o),
(335,730,cs),
(123,730,l),
(123,450,l),
(449,450,ls),
(481,450,o),
(494,437,o),
(494,418,cs),
(494,399,o),
(481,386,o),
(449,386,cs),
(138,386,l),
(138,286,l),
(452,286,ls),
(491,286,o),
(506,269,o),
(506,246,cs),
(506,223,o),
(491,208,o),
(452,208,cs),
(123,208,l),
(123,0,l)
);
},
{
closed = 1;
nodes = (
(166,0,l),
(166,730,l),
(70,730,l),
(70,0,l)
);
}
);
width = 635;
},
{
anchors = (
{
name = bottom;
pos = (327,0);
},
{
name = hookleft;
pos = (82,730);
},
{
name = top;
pos = (327,730);
}
);
associatedMasterId = "79167EE4-8C29-4BCE-A9E7-C1CFC4557E33";
attr = {
coordinates = (
550
);
};
background = {
shapes = (
{
closed = 1;
nodes = (
(375,0,ls),
(537,0,o),
(603,72,o),
(603,185,cs),
(603,279,o),
(557,348,o),
(423,360,c),
(427,341,l),
(540,356,o),
(590,418,o),
(590,526,cs),
(590,657,o),
(514,730,o),
(353,730,cs),
(118,730,l),
(118,547,l),
(408,547,ls),
(483,547,o),
(514,516,o),
(514,467,cs),
(514,419,o),
(481,387,o),
(406,387,cs),
(129,387,l),
(129,309,l),
(415,309,ls),
(495,309,o),
(529,275,o),
(529,224,cs),
(529,174,o),
(495,141,o),
(416,141,cs),
(118,141,l),
(118,0,l)
);
},
{
closed = 1;
nodes = (
(150,0,l),
(150,730,l),
(82,730,l),
(82,0,l)
);
}
);
};
layerId = "C9C10152-DC4C-4EA4-8C85-9E6A6603DA5B";
name = "28 févr. 25 à 11:57";
shapes = (
{
closed = 1;
nodes = (
(375,0,ls),
(537,0,o),
(603,72,o),
(603,185,cs),
(603,279,o),
(558,349,o),
(424,361,c),
(427,341,l),
(540,356,o),
(590,418,o),
(590,526,cs),
(590,657,o),
(514,730,o),
(353,730,cs),
(118,730,l),
(118,547,l),
(408,547,ls),
(483,547,o),
(514,517,o),
(514,469,cs),
(514,423,o),
(481,391,o),
(406,391,cs),
(129,391,l),
(129,305,l),
(423,305,ls),
(495,305,o),
(529,273,o),
(529,224,cs),
(529,174,o),
(495,141,o),
(416,141,cs),
(118,141,l),
(118,0,l)
);
},
{
closed = 1;
nodes = (
(150,0,l),
(150,730,l),
(82,730,l),
(82,0,l)
);
}
);
width = 640;
}
);
metricLeft = "=H";
unicode = 66;
},
{
glyphname = "Beta-latin";
lastChange = "2025-03-29 09:30:26 +0000";
layers = (
{
layerId = "79167EE4-8C29-4BCE-A9E7-C1CFC4557E33";
shapes = (
{
ref = B;
},
{
closed = 1;
nodes = (
(97,-196,l),
(129,-196,l),
(129,40,l),
(97,40,l)
);
}
);
width = 634;
},
{
layerId = "41EDA971-A137-4972-81AF-7929AB7CAABF";
shapes = (
{
ref = B;
},
{
closed = 1;
nodes = (
(70,-196,l),
(166,-196,l),
(166,40,l),
(70,40,l)
);
}
);
width = 645;
}
);
metricLeft = "=B";
metricRight = "=B";
unicode = 42932;
},
{
glyphname = Bstroke;
lastChange = "2025-03-31 11:45:37 +0000";
layers = (
{
layerId = "79167EE4-8C29-4BCE-A9E7-C1CFC4557E33";
shapes = (
{
closed = 1;
nodes = (
(349,0,ls),
(504,0,o),
(577,67,o),
(577,190,cs),
(577,277,o),
(534,360,o),
(394,379,c),
(403,357,l),
(516,377,o),
(560,453,o),
(560,540,cs),
(560,663,o),
(490,730,o),
(337,730,cs),
(111,730,l),
(111,672,l),
(344,672,ls),
(475,672,o),
(528,618,o),
(528,530,cs),
(528,444,o),
(471,388,o),
(339,388,cs),
(118,388,l),
(118,338,l),
(356,338,ls),
(488,338,o),
(545,282,o),
(545,196,cs),
(545,110,o),
(488,54,o),
(357,54,cs),
(111,54,l),
(111,0,l)
);
},
{
closed = 1;
nodes = (
(129,0,l),
(129,730,l),
(97,730,l),
(97,0,l)
);
},
{
closed = 1;
nodes = (
(331,171,l),
(331,217,l),
(29,217,l),
(29,171,l)
);
}
);
width = 634;
},
{
background = {
shapes = (
{
closed = 1;
nodes = (
(395,0,ls),
(562,0,o),
(623,77,o),
(623,186,cs),
(623,289,o),
(576,348,o),
(445,355,c),
(445,338,l),
(558,348,o),
(613,396,o),
(613,515,cs),
(613,653,o),
(532,730,o),
(365,730,cs),
(123,730,l),
(123,460,l),
(458,460,ls),
(490,460,o),
(503,447,o),
(503,428,cs),
(503,409,o),
(489,396,o),
(458,396,cs),
(138,396,l),
(138,309,l),
(441,309,ls),
(494,309,o),
(516,285,o),
(516,241,cs),
(516,196,o),
(494,175,o),
(441,175,cs),
(123,175,l),
(123,0,l)
);
},
{
closed = 1;
nodes = (
(166,0,l),
(166,730,l),
(70,730,l),
(70,0,l)
);
},
{
closed = 1;
nodes = (
(337,201,l),
(337,283,l),
(-9,283,l),
(-9,201,l)
);
}
);
};
layerId = "41EDA971-A137-4972-81AF-7929AB7CAABF";
shapes = (
{
closed = 1;
nodes = (
(395,0,ls),
(562,0,o),
(623,77,o),
(623,186,cs),
(623,289,o),
(576,348,o),
(445,355,c),
(445,338,l),
(558,348,o),
(613,396,o),
(613,515,cs),
(613,653,o),
(532,730,o),
(365,730,cs),
(123,730,l),
(123,460,l),
(458,460,ls),
(490,460,o),
(503,447,o),
(503,428,cs),
(503,409,o),
(489,396,o),
(458,396,cs),
(138,396,l),
(138,309,l),
(432,309,ls),
(486,309,o),
(516,285,o),
(516,243,cs),
(516,198,o),
(486,175,o),
(432,175,cs),
(123,175,l),
(123,0,l)
);
},
{
closed = 1;
nodes = (
(166,0,l),
(166,730,l),
(70,730,l),
(70,0,l)
);
},
{
closed = 1;
nodes = (
(337,201,l),
(337,283,l),
(-9,283,l),
(-9,201,l)
);
}
);
width = 645;
},
{
associatedMasterId = "79167EE4-8C29-4BCE-A9E7-C1CFC4557E33";
attr = {
coordinates = (
550
);
};
background = {
anchors = (
{
name = bottom;
pos = (327,0);
},
{
name = top;
pos = (327,730);
}
);
shapes = (
{
closed = 1;
nodes = (
(375,0,ls),
(537,0,o),
(603,72,o),
(603,185,cs),
(603,279,o),
(558,349,o),
(424,361,c),
(427,341,l),
(540,356,o),
(590,418,o),
(590,526,cs),
(590,657,o),
(514,730,o),
(353,730,cs),
(118,730,l),
(118,547,l),
(408,547,ls),
(483,547,o),
(514,517,o),
(514,469,cs),
(514,423,o),
(481,391,o),
(406,391,cs),
(129,391,l),
(129,305,l),
(423,305,ls),
(495,305,o),
(529,273,o),
(529,224,cs),
(529,174,o),
(495,141,o),
(416,141,cs),
(118,141,l),
(118,0,l)
);
},
{
closed = 1;
nodes = (
(150,0,l),
(150,730,l),
(82,730,l),
(82,0,l)
);
}
);
};
layerId = "E2067A66-E5A4-487B-AE38-E8E0DEAD9C10";
name = "24 mars 25 à 12:09";
shapes = (
{
closed = 1;
nodes = (
(375,0,ls),
(537,0,o),
(603,72,o),
(603,185,cs),
(603,279,o),
(558,349,o),
(424,361,c),
(427,341,l),
(540,356,o),
(590,418,o),
(590,526,cs),
(590,657,o),
(514,730,o),
(353,730,cs),
(118,730,l),
(118,547,l),
(408,547,ls),
(483,547,o),
(514,517,o),
(514,469,cs),
(514,423,o),
(481,391,o),
(406,391,cs),
(129,391,l),
(129,305,l),
(423,305,ls),
(495,305,o),
(529,273,o),
(529,224,cs),
(529,174,o),
(495,141,o),
(416,141,cs),
(118,141,l),
(118,0,l)
);
},
{
closed = 1;
nodes = (
(150,0,l),
(150,730,l),
(82,730,l),
(82,0,l)
);
},
{
closed = 1;
nodes = (
(334,182,l),
(334,264,l),
(8,264,l),
(8,182,l)
);
}
);
width = 640;
},
{
associatedMasterId = "41EDA971-A137-4972-81AF-7929AB7CAABF";
background = {
shapes = (
{
ref = B;
}
);
};
layerId = "A0363A7E-C9E4-4229-8FF5-77A19B0AB718";
name = "31 mars 25 à 13:45";
shapes = (
{
closed = 1;
nodes = (
(395,0,ls),
(562,0,o),
(623,77,o),
(623,186,cs),
(623,289,o),
(576,348,o),
(445,355,c),
(445,338,l),
(558,348,o),
(613,396,o),
(613,515,cs),
(613,653,o),
(532,730,o),
(365,730,cs),
(123,730,l),
(123,460,l),
(458,460,ls),
(490,460,o),
(503,447,o),
(503,428,cs),
(503,409,o),
(489,396,o),
(458,396,cs),
(138,396,l),
(138,309,l),
(441,309,ls),
(494,309,o),
(516,285,o),
(516,241,cs),
(516,196,o),
(494,175,o),
(441,175,cs),
(123,175,l),
(123,0,l)
);
},
{
closed = 1;
nodes = (
(166,0,l),
(166,730,l),
(70,730,l),
(70,0,l)
);
},
{
closed = 1;
nodes = (
(337,201,l),
(337,283,l),
(-9,283,l),
(-9,201,l)
);
}
);
width = 645;
}
);
metricLeft = "=H@350";
metricRight = "=B";
unicode = 579;
},
{
glyphname = C;
lastChange = "2025-03-31 09:56:34 +0000";
layers = (
{
anchors = (
{
name = bottom;
pos = (374,0);
},
{
name = cedilla;
pos = (374,0);
},
{
name = hooktop;
pos = (624,621);
},
{
name = top;
pos = (373,730);
}
);
layerId = "79167EE4-8C29-4BCE-A9E7-C1CFC4557E33";
shapes = (
{
closed = 1;
nodes = (
(503,-8,o),
(586,45,o),
(624,107,c),
(605,142,l),
(563,88,o),
(475,49,o),
(384,50,cs),
(187,53,o),
(78,162,o),
(78,366,cs),
(78,564,o),
(193,676,o),
(384,676,cs),
(471,676,o),
(559,641,o),
(604,583,c),
(624,621,l),
(583,686,o),
(508,738,o),
(384,738,cs),
(182,738,o),
(46,608,o),
(46,361,cs),
(46,146,o),
(151,-8,o),
(383,-8,cs)
);
}
);
width = 654;
},
{
anchors = (
{
name = bottom;
pos = (348,0);
},
{
name = cedilla;
pos = (348,0);
},
{
name = hooktop;
pos = (648,605);
},
{
name = top;
pos = (362,730);
}
);
layerId = "41EDA971-A137-4972-81AF-7929AB7CAABF";
shapes = (
{
closed = 1;
nodes = (
(503,-16,o),
(591,33,o),
(639,110,c),
(593,265,l),
(531,223,o),
(463,203,o),
(360,203,cs),
(195,203,o),
(120,244,o),
(120,331,cs),
(120,413,o),
(193,456,o),
(365,456,cs),
(464,456,o),
(525,441,o),
(585,399,c),
(648,605,l),
(598,687,o),
(513,746,o),
(376,746,cs),
(180,746,o),
(32,633,o),
(32,353,cs),
(32,83,o),
(167,-16,o),
(359,-16,cs)
);
}
);
width = 658;
},
{
anchors = (
{
name = bottom;
pos = (334,0);
},
{
name = top;
pos = (349,730);
}
);
associatedMasterId = "41EDA971-A137-4972-81AF-7929AB7CAABF";
layerId = "1A09E8CE-BC81-4BE7-BFF9-F03E3D86045F";
name = "12 déc. 24 à 16:25";
shapes = (
{
closed = 1;
nodes = (
(485,-15,o),
(574,35,o),
(622,113,c),
(571,264,l),
(523,226,o),
(451,203,o),
(348,203,cs),
(187,203,o),
(116,244,o),
(116,331,cs),
(116,413,o),
(184,456,o),
(352,456,cs),
(460,456,o),
(523,435,o),
(571,397,c),
(622,611,l),
(579,689,o),
(494,746,o),
(365,746,cs),
(171,745,o),
(28,633,o),
(28,353,cs),
(28,84,o),
(161,-15,o),
(349,-15,cs)
);
}
);
width = 632;
},
{
anchors = (
{
name = bottom;
pos = (385,0);
},
{
name = top;
pos = (394,730);
}
);
associatedMasterId = "79167EE4-8C29-4BCE-A9E7-C1CFC4557E33";
layerId = "697A0E14-FFC2-47A9-9683-399D227ADBA7";
name = "13 déc. 24 à 14:21";
shapes = (
{
closed = 1;
nodes = (
(519,-8,o),
(601,48,o),
(634,107,c),
(621,144,l),
(575,87,o),
(484,48,o),
(395,50,cs),
(204,52,o),
(88,157,o),
(88,366,cs),
(88,564,o),
(203,676,o),
(395,676,cs),
(483,677,o),
(573,639,o),
(619,582,c),
(633,624,l),
(599,683,o),
(520,738,o),
(395,738,cs),
(192,738,o),
(56,608,o),
(56,361,cs),
(56,146,o),
(161,-8,o),
(394,-8,cs)
);
}
);
width = 675;
},
{
anchors = (
{
name = bottom;
pos = (334,0);
},
{
name = top;
pos = (349,730);
}
);
associatedMasterId = "41EDA971-A137-4972-81AF-7929AB7CAABF";
background = {
shapes = (
{
closed = 1;
nodes = (
(485,-15,o),
(574,35,o),
(622,113,c),
(571,264,l),
(523,226,o),
(451,203,o),
(348,203,cs),
(187,203,o),
(116,244,o),
(116,331,cs),
(116,413,o),
(184,456,o),
(352,456,cs),
(460,456,o),
(523,435,o),
(571,397,c),
(622,611,l),
(579,689,o),
(494,746,o),
(365,746,cs),
(171,745,o),
(28,633,o),
(28,353,cs),
(28,84,o),
(161,-15,o),
(349,-15,cs)
);
}
);
};
layerId = "C0F5F548-11A4-40C1-9BF0-E91E03B9498B";
name = "14 déc. 24 à 10:01";
shapes = (
{
closed = 1;
nodes = (
(490,-15,o),
(572,31,o),
(622,113,c),
(571,264,l),
(523,226,o),
(451,203,o),
(348,203,cs),
(187,203,o),
(116,244,o),
(116,331,cs),
(116,413,o),
(184,456,o),
(352,456,cs),
(460,456,o),
(523,435,o),
(571,397,c),
(622,611,l),
(579,689,o),
(494,746,o),
(365,746,cs),
(171,745,o),
(28,633,o),
(28,353,cs),
(28,84,o),
(161,-15,o),
(349,-15,cs)
);
}
);
width = 632;
},
{
anchors = (
{
name = bottom;
pos = (385,0);
},
{
name = top;
pos = (394,730);
}
);
associatedMasterId = "79167EE4-8C29-4BCE-A9E7-C1CFC4557E33";
background = {
shapes = (
{
closed = 0;
nodes = (
(650,648,l),
(610,573,l)
);
},
{
closed = 0;
nodes = (
(622,576,l),
(571,641,l)
);
},
{
closed = 0;
nodes = (
(641,614,l),
(595,686,l)
);
},
{
closed = 0;
nodes = (
(612,152,l),
(650,81,l)
);
},
{
closed = 0;
nodes = (
(575,88,l),
(623,149,l)
);
},
{
closed = 0;
nodes = (
(598,45,l),
(641,113,l)
);
}
);
};
layerId = "949490E8-6617-41D8-B70F-D8EE5FD19658";
name = "16 déc. 24 à 12:57";
shapes = (
{
closed = 1;
nodes = (
(515,-8,o),
(598,45,o),
(636,107,c),
(617,142,l),
(575,88,o),
(484,48,o),
(395,50,cs),
(204,52,o),
(88,157,o),
(88,366,cs),
(88,564,o),
(203,676,o),
(395,676,cs),
(483,677,o),
(571,641,o),
(616,583,c),
(636,621,l),
(595,686,o),
(520,738,o),
(395,738,cs),
(192,738,o),
(56,608,o),
(56,361,cs),
(56,146,o),
(161,-8,o),
(394,-8,cs)
);
}
);
width = 675;
},
{
anchors = (
{
name = bottom;
pos = (338,0);
},
{
name = top;
pos = (353,730);
}
);
associatedMasterId = "41EDA971-A137-4972-81AF-7929AB7CAABF";
background = {
shapes = (
{
closed = 0;
nodes = (
(627,97,l),
(575,277,l)
);
},
{
closed = 0;
nodes = (
(589,50,l),
(628,119,l)
);
},
{
closed = 0;
nodes = (
(543,241,l),
(588,272,l)
);
},
{
closed = 0;
nodes = (
(564,382,l),
(637,623,l)
);
},
{
closed = 0;
nodes = (
(583,390,l),
(521,432,l)
);
},
{
closed = 0;
nodes = (
(638,594,l),
(584,687,l)
);
}
);
};
layerId = "740874D6-B9B8-4E80-A1E4-CF8644D2C484";
name = "16 déc. 24 à 12:57";
shapes = (
{
closed = 1;
nodes = (
(494,-15,o),
(579,34,o),
(624,110,c),
(578,265,l),
(519,224,o),
(455,203,o),
(352,203,cs),
(191,203,o),
(120,244,o),
(120,331,cs),
(120,413,o),
(188,456,o),
(356,456,cs),
(456,456,o),
(512,440,o),
(569,399,c),
(632,605,l),
(584,687,o),
(502,746,o),
(369,746,cs),
(175,746,o),
(32,633,o),
(32,353,cs),
(32,84,o),
(165,-15,o),
(353,-15,cs)
);
}
);
width = 636;
},
{
anchors = (
{
name = bottom;
pos = (348,0);
},
{
name = hooktop;
pos = (648,605);
},
{
name = top;
pos = (362,730);
}
);
associatedMasterId = "41EDA971-A137-4972-81AF-7929AB7CAABF";
layerId = "1380E0D6-DEE4-449D-B551-A1088EBA9A84";
name = "27 mars 25 à 16:11";
shapes = (
{
closed = 1;
nodes = (
(505,-15,o),
(593,34,o),
(640,110,c),
(594,265,l),
(532,223,o),
(464,203,o),
(361,203,cs),
(196,203,o),
(120,244,o),
(120,331,cs),
(120,413,o),
(193,456,o),
(365,456,cs),
(464,456,o),
(525,441,o),
(585,399,c),
(648,605,l),
(598,687,o),
(513,746,o),
(378,746,cs),
(181,746,o),
(32,633,o),
(32,353,cs),
(32,84,o),
(169,-15,o),
(362,-15,cs)
);
}
);
width = 658;
},
{
anchors = (
{
name = bottom;
pos = (374,0);
},
{
name = hooktop;
pos = (624,621);
},
{
name = top;
pos = (383,730);
}
);
associatedMasterId = "79167EE4-8C29-4BCE-A9E7-C1CFC4557E33";
layerId = "B55F0B87-B5A8-42E6-862E-5F965D04BD0B";
name = "31 mars 25 à 11:01";
shapes = (
{
closed = 1;
nodes = (
(503,-8,o),
(586,45,o),
(624,107,c),
(605,142,l),
(563,88,o),
(475,49,o),
(384,50,cs),
(187,53,o),
(78,162,o),
(78,366,cs),
(78,564,o),
(193,676,o),
(384,676,cs),
(471,676,o),
(559,641,o),
(604,583,c),
(624,621,l),
(583,686,o),
(508,738,o),
(384,738,cs),
(182,738,o),
(46,608,o),
(46,361,cs),
(46,146,o),
(151,-8,o),
(383,-8,cs)
);
}
);
width = 654;
}
);
metricLeft = "=O";
unicode = 67;
},
{
glyphname = "Chi-latin";
lastChange = "2025-04-03 08:53:05 +0000";
layers = (
{
layerId = "79167EE4-8C29-4BCE-A9E7-C1CFC4557E33";
shapes = (
{
closed = 1;
nodes = (
(108,-196,l),
(631,730,l),
(578,730,l),
(55,-196,l)
);
},
{
closed = 1;
nodes = (
(656,-204,o),
(691,-176,o),
(707,-143,c),
(692,-110,l),
(675,-130,o),
(643,-146,o),
(607,-146,cs),
(549,-146,o),
(511,-106,o),
(462,15,cs),
(359,271,l),
(338,237,l),
(440,-17,ls),
(499,-163,o),
(535,-204,o),
(609,-204,cs)
);
},
{
closed = 1;
nodes = (
(349,294,l),
(246,551,ls),
(188,696,o),
(152,738,o),
(80,738,cs),
(30,738,o),
(-7,710,o),
(-24,677,c),
(-5,641,l),
(12,660,o),
(43,676,o),
(79,676,cs),
(137,676,o),
(176,637,o),
(224,519,cs),
(329,258,l)
);
}
);
width = 635;
},
{
layerId = "41EDA971-A137-4972-81AF-7929AB7CAABF";
shapes = (
{
closed = 1;
nodes = (
(305,-196,l),
(787,730,l),
(525,730,l),
(43,-196,l)
);
},
{
closed = 1;
nodes = (
(701,-212,o),
(760,-181,o),
(793,-112,c),
(745,39,l),
(706,9,o),
(673,-4,o),
(636,-4,cs),
(583,-4,o),
(546,24,o),
(521,107,cs),
(479,246,l),
(408,150,l),
(466,-40,ls),
(505,-169,o),
(557,-212,o),
(640,-212,cs)
);
},
{
closed = 1;
nodes = (
(423,344,l),
(361,567,ls),
(325,695,o),
(267,746,o),
(183,746,cs),
(108,746,o),
(45,717,o),
(4,641,c),
(63,421,l),
(108,452,o),
(148,466,o),
(206,466,cs),
(265,466,o),
(297,440,o),
(318,365,cs),
(342,278,l)
);
}
);
width = 787;
},
{
associatedMasterId = "79167EE4-8C29-4BCE-A9E7-C1CFC4557E33";
layerId = "B9554B82-9B2B-4A4F-AB2C-06B52719B2EC";
name = "18 mars 25 à 14:23";
shapes = (
{
closed = 1;
nodes = (
(350,271,l),
(314,413,ls),
(244,689,o),
(188,739,o),
(105,739,cs),
(55,738,o),
(10,706,o),
(-10,667,c),
(8,634,l),
(28,659,o),
(61,680,o),
(103,681,cs),
(180,682,o),
(224,643,o),
(285,397,cs),
(324,245,l)
);
},
{
closed = 1;
nodes = (
(94,-196,l),
(609,730,l),
(556,730,l),
(41,-196,l)
);
},
{
closed = 1;
nodes = (
(620,-202,o),
(664,-171,o),
(684,-132,c),
(666,-98,l),
(646,-124,o),
(614,-144,o),
(572,-145,cs),
(495,-147,o),
(451,-107,o),
(390,139,cs),
(351,291,l),
(324,265,l),
(361,122,ls),
(431,-154,o),
(486,-204,o),
(569,-203,cs)
);
}
);
width = 600;
},
{
associatedMasterId = "41EDA971-A137-4972-81AF-7929AB7CAABF";
layerId = "1FF6BD3C-07E6-4809-B96B-947263FD60D4";
name = "24 mars 25 à 12:45";
shapes = (
{
closed = 1;
nodes = (
(379,-196,l),
(885,730,l),
(621,730,l),
(115,-196,l)
);
},
{
closed = 1;
nodes = (
(491,382,l),
(421,567,ls),
(373,695,o),
(313,746,o),
(231,746,cs),
(141,746,o),
(70,714,o),
(29,634,c),
(93,416,l),
(143,449,o),
(190,466,o),
(258,466,cs),
(324,466,o),
(367,438,o),
(395,364,cs),
(427,278,l)
);
},
{
closed = 1;
nodes = (
(827,-212,o),
(886,-178,o),
(917,-112,c),
(864,43,l),
(824,11,o),
(788,-4,o),
(741,-4,cs),
(690,-4,o),
(650,24,o),
(616,107,cs),
(559,246,l),
(493,150,l),
(565,-28,ls),
(620,-165,o),
(673,-212,o),
(751,-212,cs)
);
}
);
width = 921;
},
{
associatedMasterId = "41EDA971-A137-4972-81AF-7929AB7CAABF";
background = {
shapes = (
{
closed = 1;
nodes = (
(379,-196,l),
(885,730,l),
(621,730,l),
(115,-196,l)
);
},
{
closed = 1;
nodes = (
(491,382,l),
(421,567,ls),
(373,695,o),
(313,746,o),
(231,746,cs),
(141,746,o),
(70,714,o),
(29,634,c),
(93,416,l),
(143,449,o),
(190,466,o),
(258,466,cs),
(324,466,o),
(367,438,o),
(395,364,cs),
(427,278,l)
);
},
{
closed = 1;
nodes = (
(827,-212,o),
(886,-178,o),
(917,-112,c),
(864,43,l),
(824,11,o),
(788,-4,o),
(741,-4,cs),
(690,-4,o),
(650,24,o),
(616,107,cs),
(559,246,l),
(493,150,l),
(565,-28,ls),
(620,-165,o),
(673,-212,o),
(751,-212,cs)
);
}
);
};
layerId = "CD2CA525-7030-41B7-8747-1C81470F8B40";
name = "24 mars 25 à 12:46";
shapes = (
{
closed = 1;
nodes = (
(507,344,l),
(426,567,ls),
(379,695,o),
(321,746,o),
(239,746,cs),
(148,746,o),
(77,714,o),
(34,632,c),
(98,418,l),
(148,450,o),
(195,466,o),
(261,466,cs),
(327,466,o),
(371,438,o),
(398,364,cs),
(428,278,l)
);
},
{
closed = 1;
nodes = (
(820,-212,o),
(879,-177,o),
(911,-110,c),
(859,42,l),
(819,10,o),
(783,-4,o),
(736,-4,cs),
(685,-4,o),
(644,24,o),
(612,107,cs),
(558,246,l),
(492,150,l),
(561,-28,ls),
(613,-165,o),
(665,-212,o),
(743,-212,cs)
);
},
{
closed = 1;
nodes = (
(371,-196,l),
(895,730,l),
(629,730,l),
(105,-196,l)
);
}
);
width = 921;
},
{
associatedMasterId = "41EDA971-A137-4972-81AF-7929AB7CAABF";
background = {
shapes = (
{
closed = 1;
nodes = (
(314,-196,l),
(796,730,l),
(534,730,l),
(52,-196,l)
);
},
{
closed = 1;
nodes = (
(702,-212,o),
(760,-180,o),
(793,-110,c),
(745,42,l),
(707,10,o),
(675,-4,o),
(640,-4,cs),
(589,-4,o),
(553,24,o),
(528,107,cs),
(486,246,l),
(415,150,l),
(469,-28,ls),
(511,-165,o),
(562,-212,o),
(642,-212,cs)
);
},
{
closed = 1;
nodes = (
(432,344,l),
(370,567,ls),
(334,695,o),
(274,746,o),
(190,746,cs),
(113,746,o),
(46,713,o),
(4,632,c),
(63,418,l),
(112,450,o),
(156,466,o),
(218,466,cs),
(276,466,o),
(306,440,o),
(327,365,cs),
(351,278,l)
);
}
);
};
layerId = "B59DDDB4-6795-4A4B-BD9A-A68A00EC64A6";
name = "28 mars 25 à 12:15";
shapes = (
{
closed = 1;
nodes = (
(314,-196,l),
(796,730,l),
(534,730,l),
(52,-196,l)
);
},
{
closed = 1;
nodes = (
(702,-212,o),
(760,-180,o),
(793,-110,c),
(745,42,l),
(707,10,o),
(675,-4,o),
(640,-4,cs),
(589,-4,o),
(553,24,o),
(528,107,cs),
(486,246,l),
(415,150,l),
(469,-28,ls),
(511,-165,o),
(562,-212,o),
(642,-212,cs)
);
},
{
closed = 1;
nodes = (
(432,344,l),
(370,567,ls),
(334,695,o),
(274,746,o),
(190,746,cs),
(113,746,o),
(46,713,o),
(4,632,c),
(63,418,l),
(112,450,o),
(156,466,o),
(218,466,cs),
(276,466,o),
(306,440,o),
(327,365,cs),
(351,278,l)
);
}
);
width = 796;
}
);
unicode = 42931;
},
{
glyphname = Cstroke;
lastChange = "2025-03-31 11:45:58 +0000";
layers = (
{
layerId = "79167EE4-8C29-4BCE-A9E7-C1CFC4557E33";
shapes = (
{
ref = C;
},
{
closed = 1;
nodes = (
(531,783,l),
(492,798,l),
(153,-54,l),
(192,-68,l)
);
}
);
width = 654;
},
{
background = {
shapes = (
{
closed = 1;
nodes = (
(589,774,l),
(501,808,l),
(163,-44,l),
(251,-78,l)
);
}
);
};
layerId = "41EDA971-A137-4972-81AF-7929AB7CAABF";
shapes = (
{
ref = C;
},
{
closed = 1;
nodes = (
(590,776,l),
(502,810,l),
(159,-54,l),
(247,-88,l)
);
}
);
width = 658;
},
{
associatedMasterId = "79167EE4-8C29-4BCE-A9E7-C1CFC4557E33";
layerId = "0ABCDD05-80F8-41FE-A458-7130B934AEA0";
name = "19 mars 25 à 14:09";
shapes = (
{
ref = C;
},
{
closed = 1;
nodes = (
(620,757,l),
(584,780,l),
(85,-27,l),
(121,-50,l)
);
}
);
width = 654;
},
{
associatedMasterId = "41EDA971-A137-4972-81AF-7929AB7CAABF";
layerId = "59BC185E-713B-44A2-9336-9A55E22B4616";
name = "31 mars 25 à 13:45";
shapes = (
{
ref = C;
},
{
closed = 1;
nodes = (
(589,774,l),
(501,808,l),
(163,-44,l),
(251,-78,l)
);
}
);
width = 658;
}
);
metricLeft = "=C";
metricRight = "=C";
unicode = 571;
},
{
glyphname = D;
lastChange = "2025-03-29 09:30:26 +0000";
layers = (
{
anchors = (
{
name = bottom;
pos = (346,0);
},
{
name = hookleft;
pos = (97,730);
},
{
name = top;
pos = (346,730);
}
);
background = {
anchors = (
{
name = top;
pos = (347,730);
}
);
};
layerId = "79167EE4-8C29-4BCE-A9E7-C1CFC4557E33";
shapes = (
{
closed = 1;
nodes = (
(316,0,ls),
(549,0,o),
(664,139,o),
(664,365,cs),
(664,601,o),
(567,730,o),
(316,730,cs),
(118,730,l),
(118,672,l),
(289,672,ls),
(536,672,o),
(632,577,o),
(632,363,cs),
(632,159,o),
(535,54,o),
(289,54,cs),
(126,54,l),
(126,0,l)
);
},
{
closed = 1;
nodes = (
(129,0,l),
(129,730,l),
(97,730,l),
(97,0,l)
);
}
);
width = 710;
},
{
anchors = (
{
name = bottom;
pos = (335,0);
},
{
name = hookleft;
pos = (70,730);
},
{
name = top;
pos = (324,730);
}
);
background = {
anchors = (
{
name = top;
pos = (320,730);
}
);
};
layerId = "41EDA971-A137-4972-81AF-7929AB7CAABF";
shapes = (
{
closed = 1;
nodes = (
(353,0,ls),
(537,0,o),
(678,100,o),
(678,365,cs),
(678,631,o),
(537,730,o),
(353,730,cs),
(118,730,l),
(118,440,l),
(444,440,ls),
(551,440,o),
(595,406,o),
(595,332,cs),
(595,258,o),
(551,218,o),
(445,218,cs),
(106,218,l),
(106,0,l)
);
},
{
closed = 1;
nodes = (
(166,0,l),
(166,730,l),
(70,730,l),
(70,0,l)
);
}
);
width = 710;
},
{
anchors = (
{
name = bottom;
pos = (331,0);
},
{
name = top;
pos = (320,730);
}
);
associatedMasterId = "41EDA971-A137-4972-81AF-7929AB7CAABF";
background = {
anchors = (
{
name = top;
pos = (320,730);
}
);
};
layerId = "2F7315AF-7047-4150-BB22-DFCB40DDAB35";
name = "16 déc. 24 à 13:01";
shapes = (
{
closed = 1;
nodes = (
(349,0,ls),
(529,0,o),
(668,100,o),
(668,365,cs),
(668,631,o),
(529,730,o),
(349,730,cs),
(118,730,l),
(118,440,l),
(441,440,ls),
(544,440,o),
(585,406,o),
(585,332,cs),
(585,258,o),
(544,218,o),
(442,218,cs),
(106,218,l),
(106,0,l)
);
},
{
closed = 1;
nodes = (
(166,0,l),
(166,730,l),
(70,730,l),
(70,0,l)
);
}
);
width = 700;
}
);
metricLeft = "=H";
metricRight = "=O";
unicode = 68;
},
{
glyphname = Eth;
lastChange = "2025-03-29 09:30:26 +0000";
layers = (
{
layerId = "79167EE4-8C29-4BCE-A9E7-C1CFC4557E33";
shapes = (
{
closed = 1;
nodes = (
(381,339,l),
(381,385,l),
(18,385,l),
(18,339,l)
);
},
{
alignment = -1;
ref = D;
}
);
width = 710;
},
{
layerId = "41EDA971-A137-4972-81AF-7929AB7CAABF";
shapes = (
{
closed = 1;
nodes = (
(381,280,l),
(381,380,l),
(-9,380,l),
(-9,280,l)
);
},
{
alignment = -1;
ref = D;
}
);
width = 710;
},
{
associatedMasterId = "41EDA971-A137-4972-81AF-7929AB7CAABF";
layerId = "6245DDDC-0E6D-4BF3-ADE3-406C361624D3";
name = "15 déc. 24 à 14:24";
shapes = (
{
closed = 1;
nodes = (
(399,264,l),
(399,396,l),
(13,396,l),
(13,264,l)
);
},
{
alignment = -1;
pos = (22,0);
ref = D;
}
);
width = 678;
},
{
associatedMasterId = "79167EE4-8C29-4BCE-A9E7-C1CFC4557E33";
attr = {
coordinates = (
550
);
};
layerId = "FD468B8D-0AEF-4019-97E6-E36D590009A1";
name = "28 févr. 25 à 11:56";
shapes = (
{
closed = 1;
nodes = (
(381,301,l),
(381,387,l),
(3,387,l),
(3,301,l)
);
},
{
alignment = -1;
ref = D;
}
);
width = 710;
}
);
metricRight = "=D";
unicode = 208;
},
{
glyphname = E;
lastChange = "2025-03-31 11:46:25 +0000";
layers = (
{
anchors = (
{
name = bottom;
pos = (323,0);
},
{
name = cedilla;
pos = (323,0);
},
{
name = ogonek;
pos = (494,0);
},
{
name = top;
pos = (323,730);
}
);
layerId = "79167EE4-8C29-4BCE-A9E7-C1CFC4557E33";
shapes = (
{
closed = 1;
nodes = (
(536,672,l),
(536,730,l),
(123,730,l),
(123,672,l)
);
},
{
closed = 1;
nodes = (
(543,0,l),
(543,54,l),
(123,54,l),
(123,0,l)
);
},
{
closed = 1;
nodes = (
(129,0,l),
(129,730,l),
(97,730,l),
(97,0,l)
);
},
{
closed = 1;
nodes = (
(456,345,l),
(456,395,l),
(125,395,l),
(125,345,l)
);
}
);
width = 595;
},
{
anchors = (
{
name = bottom;
pos = (328,0);
},
{
name = cedilla;
pos = (328,0);
},
{
name = ogonek;
pos = (494,0);
},
{
name = top;
pos = (325,730);
}
);
layerId = "41EDA971-A137-4972-81AF-7929AB7CAABF";
shapes = (
{
closed = 1;
nodes = (
(561,450,l),
(561,730,l),
(108,730,l),
(108,450,l)
);
},
{
closed = 1;
nodes = (
(566,0,l),
(566,208,l),
(108,208,l),
(108,0,l)
);
},
{
closed = 1;
nodes = (
(166,0,l),
(166,730,l),
(70,730,l),
(70,0,l)
);
},
{
closed = 1;
nodes = (
(477,286,l),
(477,386,l),
(146,386,l),
(146,286,l)
);
}
);
width = 598;
},
{
anchors = (
{
name = bottom;
pos = (330,0);
},
{
name = cedilla;
pos = (330,0);
},
{
name = ogonek;
pos = (494,0);
},
{
name = top;
pos = (330,730);
}
);
associatedMasterId = "79167EE4-8C29-4BCE-A9E7-C1CFC4557E33";
attr = {
coordinates = (
550
);
};
layerId = "A65AD0D8-7D9C-4E6B-BB29-2E23A8A236DA";
name = "28 févr. 25 à 11:55";
shapes = (
{
closed = 1;
nodes = (
(550,547,l),
(550,730,l),
(115,730,l),
(115,547,l)
);
},
{
closed = 1;
nodes = (
(556,0,l),
(556,141,l),
(115,141,l),
(115,0,l)
);
},
{
closed = 1;
nodes = (
(150,0,l),
(150,730,l),
(82,730,l),
(82,0,l)
);
},
{
closed = 1;
nodes = (
(468,307,l),
(468,393,l),
(137,393,l),
(137,307,l)
);
}
);
width = 597;
}
);
metricLeft = "=H";
unicode = 69;
},
{
glyphname = Eogonek;
lastChange = "2025-03-31 09:04:40 +0000";
layers = (
{
layerId = "79167EE4-8C29-4BCE-A9E7-C1CFC4557E33";
shapes = (
{
ref = E;
},
{
closed = 1;
nodes = (
(516,-204,o),
(546,-186,o),
(559,-161,c),
(551,-126,l),
(534,-141,o),
(511,-151,o),
(479,-151,cs),
(446,-151,o),
(422,-135,o),
(422,-109,cs),
(422,-75,o),
(453,-36,o),
(543,0,c),
(518,13,l),
(419,-29,o),
(383,-78,o),
(383,-128,cs),
(383,-178,o),
(421,-204,o),
(473,-204,cs)
);
}
);
width = 601;
},
{
layerId = "41EDA971-A137-4972-81AF-7929AB7CAABF";
shapes = (
{
ref = E;
},
{
closed = 1;
nodes = (
(516,-212,o),
(567,-183,o),
(585,-148,c),
(556,-63,l),
(530,-79,o),
(505,-87,o),
(480,-87,cs),
(457,-87,o),
(447,-79,o),
(447,-66,cs),
(447,-51,o),
(462,-19,o),
(566,0,c),
(503,25,l),
(380,-6,o),
(339,-58,o),
(339,-116,cs),
(339,-175,o),
(384,-212,o),
(458,-212,cs)
);
}
);
width = 598;
}
);
unicode = 280;
},
{
glyphname = Eopen;
lastChange = "2025-04-03 08:57:16 +0000";
layers = (
{
background = {
shapes = (
{
closed = 1;
nodes = (
(439,-8,o),
(512,42,o),
(551,101,c),
(532,136,l),
(493,89,o),
(422,50,o),
(313,50,cs),
(161,50,o),
(76,103,o),
(76,193,cs),
(76,288,o),
(152,344,o),
(282,344,cs),
(391,344,l),
(391,394,l),
(282,394,ls),
(221,394,o),
(91,408,o),
(91,532,cs),
(91,622,o),
(175,676,o),
(312,676,cs),
(407,676,o),
(477,644,o),
(520,591,c),
(540,629,l),
(503,688,o),
(434,738,o),
(318,738,cs),
(163,738,o),
(61,664,o),
(61,534,cs),
(61,443,o),
(105,377,o),
(237,352,c),
(237,383,l),
(102,357,o),
(46,286,o),
(46,187,cs),
(46,80,o),
(120,-8,o),
(310,-8,cs)
);
}
);
};
layerId = "79167EE4-8C29-4BCE-A9E7-C1CFC4557E33";
shapes = (
{
closed = 1;
nodes = (
(432,-8,o),
(512,42,o),
(551,101,c),
(532,136,l),
(493,89,o),
(417,50,o),
(307,50,cs),
(164,50,o),
(88,103,o),
(88,193,cs),
(88,288,o),
(160,344,o),
(282,344,cs),
(391,344,l),
(391,394,l),
(282,394,ls),
(225,394,o),
(103,408,o),
(103,532,cs),
(103,622,o),
(182,676,o),
(312,676,cs),
(407,676,o),
(477,644,o),
(520,591,c),
(540,629,l),
(503,688,o),
(434,738,o),
(318,738,cs),
(163,738,o),
(61,664,o),
(61,534,cs),
(61,443,o),
(105,377,o),
(237,352,c),
(237,383,l),
(102,357,o),
(46,286,o),
(46,187,cs),
(46,80,o),
(113,-8,o),
(300,-8,cs)
);
}
);
width = 581;
},
{
background = {
anchors = (
{
name = bottom;
pos = (320,0);
},
{
name = hookright;
pos = (577,730);
},
{
name = top;
pos = (318,730);
}
);
};
layerId = "41EDA971-A137-4972-81AF-7929AB7CAABF";
shapes = (
{
closed = 1;
nodes = (
(459,-15,o),
(547,34,o),
(594,110,c),
(548,265,l),
(489,223,o),
(424,203,o),
(325,203,cs),
(182,203,o),
(147,217,o),
(147,249,cs),
(147,270,o),
(166,286,o),
(215,286,cs),
(397,286,l),
(397,386,l),
(303,386,ls),
(198,386,o),
(171,392,o),
(171,422,cs),
(171,449,o),
(203,466,o),
(315,466,cs),
(411,466,o),
(472,452,o),
(532,412,c),
(591,608,l),
(537,701,o),
(456,746,o),
(329,746,cs),
(147,746,o),
(34,663,o),
(34,508,cs),
(34,394,o),
(88,340,o),
(202,329,c),
(202,346,l),
(71,337,o),
(24,266,o),
(24,176,cs),
(24,47,o),
(117,-15,o),
(316,-15,cs)
);
}
);
width = 604;
},
{
associatedMasterId = "79167EE4-8C29-4BCE-A9E7-C1CFC4557E33";
background = {
shapes = (
{
pos = (-80,0);
ref = O;
}
);
};
layerId = "FAD58185-F91B-4213-A867-2D618D75A151";
name = "19 mars 25 à 16:00";
shapes = (
{
closed = 1;
nodes = (
(391,-8,o),
(449,39,o),
(481,86,c),
(464,119,l),
(430,79,o),
(374,46,o),
(270,46,cs),
(136,46,o),
(62,100,o),
(62,193,cs),
(62,288,o),
(138,344,o),
(268,344,cs),
(348,344,l),
(348,394,l),
(268,394,ls),
(207,394,o),
(77,408,o),
(77,532,cs),
(77,625,o),
(149,680,o),
(269,680,cs),
(353,680,o),
(410,653,o),
(447,607,c),
(466,643,l),
(434,694,o),
(381,738,o),
(275,738,cs),
(137,738,o),
(47,664,o),
(47,534,cs),
(47,443,o),
(91,377,o),
(223,352,c),
(223,383,l),
(88,357,o),
(32,286,o),
(32,187,cs),
(32,80,o),
(97,-8,o),
(267,-8,cs)
);
}
);
width = 515;
},
{
associatedMasterId = "79167EE4-8C29-4BCE-A9E7-C1CFC4557E33";
background = {
shapes = (
{
closed = 1;
nodes = (
(392,-8,o),
(451,40,o),
(483,87,c),
(464,122,l),
(430,83,o),
(374,50,o),
(270,50,cs),
(136,50,o),
(62,103,o),
(62,193,cs),
(62,288,o),
(138,344,o),
(268,344,cs),
(348,344,l),
(348,394,l),
(268,394,ls),
(207,394,o),
(77,408,o),
(77,532,cs),
(77,622,o),
(149,676,o),
(269,676,cs),
(353,676,o),
(411,649,o),
(448,604,c),
(468,642,l),
(436,694,o),
(382,738,o),
(275,738,cs),
(137,738,o),
(47,664,o),
(47,534,cs),
(47,443,o),
(91,377,o),
(223,352,c),
(223,383,l),
(88,357,o),
(32,286,o),
(32,187,cs),
(32,80,o),
(97,-8,o),
(267,-8,cs)
);
}
);
};
layerId = "4043D12B-FC12-4E94-B5D3-D305BA6FEFA9";
name = "19 mars 25 à 16:02";
shapes = (
{
closed = 1;
nodes = (
(392,-8,o),
(451,40,o),
(483,87,c),
(464,122,l),
(430,83,o),
(374,50,o),
(270,50,cs),
(136,50,o),
(62,103,o),
(62,193,cs),
(62,288,o),
(138,344,o),
(268,344,cs),
(348,344,l),
(348,394,l),
(268,394,ls),
(207,394,o),
(77,408,o),
(77,532,cs),
(77,622,o),
(149,676,o),
(269,676,cs),
(353,676,o),
(411,649,o),
(448,604,c),
(468,642,l),
(436,694,o),
(382,738,o),
(275,738,cs),
(137,738,o),
(47,664,o),
(47,534,cs),
(47,443,o),
(91,377,o),
(223,352,c),
(223,383,l),
(88,357,o),
(32,286,o),
(32,187,cs),
(32,80,o),
(97,-8,o),
(267,-8,cs)
);
}
);
width = 515;
},
{
associatedMasterId = "79167EE4-8C29-4BCE-A9E7-C1CFC4557E33";
layerId = "C2E70948-8B7D-4611-A8BC-D9658955E163";
name = "21 mars 25 à 10:36";
shapes = (
{
closed = 1;
nodes = (
(408,-8,o),
(469,41,o),
(503,90,c),
(484,125,l),
(448,84,o),
(389,50,o),
(280,50,cs),
(140,50,o),
(62,103,o),
(62,193,cs),
(62,288,o),
(138,344,o),
(268,344,cs),
(358,344,l),
(358,394,l),
(268,394,ls),
(207,394,o),
(77,408,o),
(77,532,cs),
(77,622,o),
(153,676,o),
(279,676,cs),
(368,676,o),
(429,648,o),
(468,601,c),
(488,639,l),
(454,692,o),
(398,738,o),
(285,738,cs),
(141,738,o),
(47,664,o),
(47,534,cs),
(47,443,o),
(91,377,o),
(223,352,c),
(223,383,l),
(88,357,o),
(32,286,o),
(32,187,cs),
(32,80,o),
(100,-8,o),
(277,-8,cs)
);
}
);
width = 533;
},
{
associatedMasterId = "79167EE4-8C29-4BCE-A9E7-C1CFC4557E33";
layerId = "4306F1A9-D19F-4688-8D88-87E256D57458";
name = "31 mars 25 à 11:04";
shapes = (
{
closed = 1;
nodes = (
(439,-8,o),
(512,42,o),
(551,101,c),
(532,136,l),
(493,89,o),
(422,50,o),
(313,50,cs),
(161,50,o),
(76,103,o),
(76,193,cs),
(76,288,o),
(152,344,o),
(282,344,cs),
(391,344,l),
(391,394,l),
(282,394,ls),
(221,394,o),
(91,408,o),
(91,532,cs),
(91,622,o),
(175,676,o),
(312,676,cs),
(407,676,o),
(477,644,o),
(520,591,c),
(540,629,l),
(503,688,o),
(434,738,o),
(318,738,cs),
(163,738,o),
(61,664,o),
(61,534,cs),
(61,443,o),
(105,377,o),
(237,352,c),
(237,383,l),
(102,357,o),
(46,286,o),
(46,187,cs),
(46,80,o),
(120,-8,o),
(310,-8,cs)
);
}
);
width = 581;
}
);
metricRight = "=C";
unicode = 400;
},
{
glyphname = Esh;
lastChange = "2025-04-03 12:22:58 +0000";
layers = (
{
layerId = "79167EE4-8C29-4BCE-A9E7-C1CFC4557E33";
shapes = (
{
closed = 1;
nodes = (
(184,-8,o),
(233,39,o),
(233,154,cs),
(233,556,ls),
(233,644,o),
(263,676,o),
(340,676,cs),
(376,676,o),
(406,667,o),
(420,652,c),
(440,690,l),
(422,718,o),
(392,738,o),
(342,738,cs),
(255,738,o),
(201,687,o),
(201,565,cs),
(201,168,ls),
(201,81,o),
(174,51,o),
(110,50,cs),
(74,50,o),
(45,61,o),
(30,76,c),
(10,39,l),
(29,12,o),
(58,-8,o),
(111,-8,cs)
);
}
);
width = 456;
},
{
layerId = "41EDA971-A137-4972-81AF-7929AB7CAABF";
shapes = (
{
closed = 1;
nodes = (
(245,-16,o),
(316,47,o),
(316,183,cs),
(316,363,ls),
(316,440,o),
(350,468,o),
(428,468,cs),
(465,468,o),
(488,462,o),
(508,449,c),
(561,672,l),
(539,724,o),
(480,746,o),
(414,746,cs),
(297,746,o),
(220,675,o),
(220,539,cs),
(220,282,ls),
(220,217,o),
(184,192,o),
(128,192,cs),
(86,192,o),
(59,202,o),
(37,220,c),
(-8,64,l),
(20,12,o),
(71,-16,o),
(142,-16,cs)
);
}
);
width = 553;
},
{
associatedMasterId = "79167EE4-8C29-4BCE-A9E7-C1CFC4557E33";
layerId = "5017E540-07D9-440F-8FE5-28A8BE3AAFDF";
name = "19 mars 25 à 18:31";
shapes = (
{
closed = 1;
nodes = (
(281,386,l),
(42,46,l),
(42,0,l),
(515,0,l),
(515,54,l),
(61,54,l),
(61,17,l),
(335,406,l),
(336,333,l),
(61,708,l),
(60,672,l),
(508,672,l),
(508,730,l),
(36,730,l),
(36,688,l),
(281,352,l)
);
}
);
width = 567;
},
{
associatedMasterId = "79167EE4-8C29-4BCE-A9E7-C1CFC4557E33";
background = {
shapes = (
{
closed = 1;
nodes = (
(185,-8,o),
(233,40,o),
(233,155,cs),
(233,556,ls),
(233,644,o),
(263,676,o),
(340,676,cs),
(376,676,o),
(406,667,o),
(420,652,c),
(440,690,l),
(422,718,o),
(392,738,o),
(342,738,cs),
(255,738,o),
(201,687,o),
(201,565,cs),
(201,163,ls),
(201,80,o),
(175,50,o),
(106,50,cs),
(70,50,o),
(42,60,o),
(27,73,c),
(8,37,l),
(26,11,o),
(56,-8,o),
(107,-8,cs)
);
}
);
};
layerId = "B2DC615D-FAD1-496D-8234-322E5E741AAF";
name = "29 mars 25 à 10:49";
shapes = (
{
closed = 1;
nodes = (
(183,-8,o),
(233,37,o),
(233,153,cs),
(233,556,ls),
(233,644,o),
(263,676,o),
(340,676,cs),
(376,676,o),
(406,667,o),
(420,652,c),
(440,690,l),
(422,718,o),
(392,738,o),
(342,738,cs),
(255,738,o),
(201,687,o),
(201,565,cs),
(201,173,ls),
(201,81,o),
(172,51,o),
(114,50,cs),
(77,50,o),
(48,61,o),
(32,79,c),
(12,41,l),
(31,12,o),
(60,-8,o),
(115,-8,cs)
);
}
);
width = 456;
},
{
associatedMasterId = "79167EE4-8C29-4BCE-A9E7-C1CFC4557E33";
layerId = "01DFF386-3B06-4385-B8D6-BBE7EB7E8C2A";
name = "31 mars 25 à 11:07";
shapes = (
{
closed = 1;
nodes = (
(184,-8,o),
(233,39,o),
(233,154,cs),
(233,556,ls),
(233,644,o),
(263,676,o),
(340,676,cs),
(376,676,o),
(406,667,o),
(420,652,c),
(440,690,l),
(422,718,o),
(392,738,o),
(342,738,cs),
(255,738,o),
(201,687,o),
(201,565,cs),
(201,168,ls),
(201,81,o),
(174,51,o),
(110,50,cs),
(74,50,o),
(45,61,o),
(30,76,c),
(10,39,l),
(29,12,o),
(58,-8,o),
(111,-8,cs)
);
}
);
width = 456;
}
);
unicode = 425;
},
{
glyphname = Estroke;
lastChange = "2025-03-31 11:47:00 +0000";
layers = (
{
background = {
shapes = (
{
closed = 1;
nodes = (
(512,783,l),
(473,798,l),
(134,-54,l),
(173,-68,l)
);
}
);
};
layerId = "79167EE4-8C29-4BCE-A9E7-C1CFC4557E33";
shapes = (
{
ref = E;
},
{
closed = 1;
nodes = (
(516,793,l),
(477,808,l),
(130,-64,l),
(169,-78,l)
);
}
);
width = 595;
},
{
background = {
shapes = (
{
closed = 1;
nodes = (
(528,774,l),
(440,808,l),
(102,-44,l),
(190,-78,l)
);
}
);
};
layerId = "41EDA971-A137-4972-81AF-7929AB7CAABF";
shapes = (
{
ref = E;
},
{
closed = 1;
nodes = (
(532,784,l),
(444,818,l),
(96,-59,l),
(184,-93,l)
);
}
);
width = 598;
},
{
associatedMasterId = "79167EE4-8C29-4BCE-A9E7-C1CFC4557E33";
layerId = "3DC04F9A-0AE8-4BB9-B6B5-98665CA13D81";
name = "19 mars 25 à 14:12";
shapes = (
{
ref = E;
},
{
closed = 1;
nodes = (
(505,772,l),
(458,772,l),
(132,-43,l),
(179,-43,l)
);
}
);
width = 595;
},
{
associatedMasterId = "79167EE4-8C29-4BCE-A9E7-C1CFC4557E33";
layerId = "7FEEF390-ED7D-4B08-930C-9AD61C2BD8CD";
name = "31 mars 25 à 11:07";
shapes = (
{
ref = E;
},
{
closed = 1;
nodes = (
(512,783,l),
(473,798,l),
(134,-54,l),
(173,-68,l)
);
}
);
width = 595;
},
{
associatedMasterId = "41EDA971-A137-4972-81AF-7929AB7CAABF";
layerId = "00CEFB91-964D-403D-8584-E0B6E6F7225F";
name = "31 mars 25 à 13:46";
shapes = (
{
ref = E;
},
{
closed = 1;
nodes = (
(528,774,l),
(440,808,l),
(102,-44,l),
(190,-78,l)
);
}
);
width = 598;
}
);
metricLeft = "=E";
metricRight = "=E";
unicode = 582;
},
{
glyphname = Schwa;
lastChange = "2025-03-31 09:13:07 +0000";
layers = (
{
background = {
shapes = (
{
closed = 1;
nodes = (
(532,-8,o),
(659,120,o),
(659,369,cs),
(659,612,o),
(540,738,o),
(349,738,cs),
(199,738,o),
(116,677,o),
(77,616,c),
(96,580,l),
(139,634,o),
(234,678,o),
(339,676,cs),
(531,673,o),
(627,583,o),
(627,365,cs),
(627,348,ls),
(627,154,o),
(507,50,o),
(353,50,cs),
(195,50,o),
(82,132,o),
(76,351,c),
(59,319,l),
(635,319,l),
(635,369,l),
(46,369,l),
(40,117,o),
(166,-8,o),
(350,-8,cs)
);
}
);
};
layerId = "79167EE4-8C29-4BCE-A9E7-C1CFC4557E33";
shapes = (
{
closed = 1;
nodes = (
(529,-8,o),
(659,123,o),
(659,369,cs),
(659,612,o),
(540,738,o),
(349,738,cs),
(199,738,o),
(116,677,o),
(77,616,c),
(96,580,l),
(139,634,o),
(234,678,o),
(339,676,cs),
(531,673,o),
(627,583,o),
(627,365,cs),
(627,348,ls),
(627,154,o),
(507,50,o),
(351,50,cs),
(193,50,o),
(82,132,o),
(76,351,c),
(59,319,l),
(635,319,l),
(635,369,l),
(46,369,l),
(40,111,o),
(164,-8,o),
(344,-8,cs)
);
}
);
userData = {
RMXScaler = {
height = 133;
weight = -38;
width = 133;
};
};
width = 705;
},
{
background = {
shapes = (
{
closed = 1;
nodes = (
(650,376,l),
(650,651,o),
(527,746,o),
(335,746,cs),
(205,746,o),
(103,701,o),
(51,620,c),
(101,414,l),
(154,452,o),
(232,472,o),
(340,472,cs),
(498,472,o),
(564,431,o),
(564,355,c)
);
}
);
};
layerId = "41EDA971-A137-4972-81AF-7929AB7CAABF";
shapes = (
{
closed = 1;
nodes = (
(544,-16,o),
(650,120,o),
(650,373,cs),
(650,651,o),
(527,746,o),
(335,746,cs),
(205,746,o),
(103,701,o),
(51,620,c),
(101,414,l),
(154,452,o),
(232,472,o),
(340,472,cs),
(499,472,o),
(565,431,o),
(565,352,cs),
(565,309,ls),
(565,241,o),
(510,202,o),
(327,202,cs),
(165,202,o),
(122,239,o),
(121,305,c),
(84,279,l),
(580,279,l),
(580,379,l),
(34,379,l),
(18,103,o),
(123,-16,o),
(334,-16,cs)
);
}
);
userData = {
RMXScaler = {
height = 130;
weight = 130;
width = 130;
};
};
width = 682;
},
{
associatedMasterId = "79167EE4-8C29-4BCE-A9E7-C1CFC4557E33";
layerId = "0484CAC9-D2C6-4D59-BEEA-38FE17EAC18C";
name = "13 déc. 24 à 14:40";
shapes = (
{
closed = 1;
nodes = (
(232,738,o),
(140,682,o),
(103,619,c),
(116,578,l),
(172,643,o),
(268,678,o),
(362,676,cs),
(544,673,o),
(650,573,o),
(650,365,cs),
(650,348,ls),
(650,164,o),
(534,50,o),
(359,50,cs),
(186,50,o),
(104,161,o),
(99,351,c),
(82,319,l),
(658,319,l),
(658,369,l),
(69,369,l),
(63,108,o),
(187,-8,o),
(360,-8,cs),
(551,-8,o),
(682,118,o),
(682,369,cs),
(682,612,o),
(553,738,o),
(372,738,cs)
);
}
);
userData = {
RMXScaler = {
height = 133;
weight = -38;
width = 133;
};
};
width = 728;
},
{
associatedMasterId = "79167EE4-8C29-4BCE-A9E7-C1CFC4557E33";
attr = {
coordinates = (
550
);
};
layerId = "D81601B8-2832-46D8-B1C9-0AAF91FEFF4B";
name = "28 févr. 25 à 12:07";
shapes = (
{
closed = 1;
nodes = (
(537,-12,o),
(654,119,o),
(654,371,cs),
(654,634,o),
(533,743,o),
(341,743,cs),
(202,743,o),
(108,690,o),
(62,618,c),
(99,487,l),
(148,532,o),
(232,562,o),
(340,561,cs),
(512,560,o),
(592,498,o),
(592,358,cs),
(592,326,ls),
(592,207,o),
(510,136,o),
(334,136,cs),
(175,136,o),
(104,192,o),
(101,325,c),
(73,293,l),
(604,293,l),
(604,379,l),
(39,379,l),
(28,106,o),
(141,-12,o),
(335,-12,cs)
);
}
);
userData = {
RMXScaler = {
height = 133;
weight = -38;
width = 133;
};
};
width = 692;
},
{
associatedMasterId = "41EDA971-A137-4972-81AF-7929AB7CAABF";
background = {
shapes = (
{
closed = 1;
nodes = (
(664,376,l),
(664,651,o),
(541,746,o),
(349,746,cs),
(219,746,o),
(117,701,o),
(65,620,c),
(115,414,l),
(168,452,o),
(246,472,o),
(354,472,cs),
(512,472,o),
(578,431,o),
(578,355,c)
);
}
);
};
layerId = "84A5C9DC-95C0-413A-B56E-A5754D322D80";
name = "25 mars 25 à 14:39";
shapes = (
{
closed = 1;
nodes = (
(558,-16,o),
(664,120,o),
(664,369,cs),
(664,637,o),
(537,746,o),
(343,746,cs),
(217,746,o),
(118,705,o),
(66,616,c),
(116,408,l),
(164,448,o),
(241,472,o),
(349,472,cs),
(509,472,o),
(579,427,o),
(579,348,cs),
(579,309,ls),
(579,241,o),
(524,202,o),
(341,202,cs),
(179,202,o),
(136,239,o),
(135,305,c),
(98,279,l),
(594,279,l),
(594,379,l),
(48,379,l),
(32,103,o),
(137,-16,o),
(348,-16,cs)
);
}
);
userData = {
RMXScaler = {
height = 130;
weight = 130;
width = 130;
};
};
width = 678;
},
{
associatedMasterId = "79167EE4-8C29-4BCE-A9E7-C1CFC4557E33";
background = {
shapes = (
{
closed = 0;
nodes = (
(102,570,l),
(64,641,l)
);
},
{
closed = 0;
nodes = (
(139,634,l),
(91,573,l)
);
},
{
closed = 0;
nodes = (
(116,677,l),
(73,609,l)
);
},
{
closed = 1;
nodes = (
(199,738,o),
(116,677,o),
(77,616,c),
(96,580,l),
(139,634,o),
(234,678,o),
(339,676,cs),
(531,673,o),
(627,583,o),
(627,365,cs),
(627,348,ls),
(627,164,o),
(509,50,o),
(344,50,cs),
(161,50,o),
(81,161,o),
(76,351,c),
(59,319,l),
(635,319,l),
(635,369,l),
(46,369,l),
(40,108,o),
(164,-8,o),
(337,-8,cs),
(528,-8,o),
(659,118,o),
(659,369,cs),
(659,612,o),
(540,738,o),
(349,738,cs)
);
}
);
};
layerId = "8CF56A4A-2E56-403A-9D6E-B50E721E196B";
name = "31 mars 25 à 11:08";
shapes = (
{
closed = 1;
nodes = (
(528,-8,o),
(659,125,o),
(659,369,cs),
(659,612,o),
(540,738,o),
(349,738,cs),
(199,738,o),
(116,677,o),
(77,616,c),
(96,580,l),
(139,634,o),
(234,678,o),
(339,676,cs),
(531,673,o),
(627,583,o),
(627,365,cs),
(627,348,ls),
(627,164,o),
(509,50,o),
(344,50,cs),
(181,50,o),
(82,134,o),
(76,351,c),
(59,319,l),
(635,319,l),
(635,369,l),
(46,369,l),
(40,108,o),
(158,-8,o),
(337,-8,cs)
);
}
);
userData = {
RMXScaler = {
height = 133;
weight = -38;
width = 133;
};
};
width = 705;
},
{
associatedMasterId = "79167EE4-8C29-4BCE-A9E7-C1CFC4557E33";
background = {
shapes = (
{
closed = 0;
nodes = (
(102,570,l),
(64,641,l)
);
},
{
closed = 0;
nodes = (
(139,634,l),
(91,573,l)
);
},
{
closed = 0;
nodes = (
(116,677,l),
(73,609,l)
);
},
{
closed = 1;
nodes = (
(199,738,o),
(116,677,o),
(77,616,c),
(96,580,l),
(139,634,o),
(234,678,o),
(339,676,cs),
(531,673,o),
(627,583,o),
(627,365,cs),
(627,348,ls),
(627,164,o),
(509,50,o),
(344,50,cs),
(161,50,o),
(81,161,o),
(76,351,c),
(59,319,l),
(635,319,l),
(635,369,l),
(46,369,l),
(40,108,o),
(164,-8,o),
(337,-8,cs),
(528,-8,o),
(659,118,o),
(659,369,cs),
(659,612,o),
(540,738,o),
(349,738,cs)
);
}
);
};
layerId = "C3FF1898-5905-4809-8983-C67561FFECFE";
name = "31 mars 25 à 11:08";
shapes = (
{
closed = 1;
nodes = (
(528,-8,o),
(659,123,o),
(659,369,cs),
(659,612,o),
(540,738,o),
(349,738,cs),
(199,738,o),
(116,677,o),
(77,616,c),
(96,580,l),
(139,634,o),
(234,678,o),
(339,676,cs),
(531,673,o),
(627,583,o),
(627,365,cs),
(627,348,ls),
(627,164,o),
(509,50,o),
(354,50,cs),
(189,50,o),
(82,129,o),
(76,351,c),
(59,319,l),
(635,319,l),
(635,369,l),
(46,369,l),
(40,108,o),
(162,-8,o),
(347,-8,cs)
);
}
);
userData = {
RMXScaler = {
height = 133;
weight = -38;
width = 133;
};
};
width = 705;
}
);
metricLeft = "=O";
metricRight = "=O";
unicode = 399;
userData = {
RMXScaler = {
source = e;
};
};
},
{
glyphname = Ezh;
lastChange = "2025-03-31 11:47:39 +0000";
layers = (
{
anchors = (
{
name = top;
pos = (266,730);
}
);
layerId = "79167EE4-8C29-4BCE-A9E7-C1CFC4557E33";
shapes = (
{
closed = 1;
nodes = (
(434,-204,o),
(526,-91,o),
(526,73,cs),
(526,250,o),
(420,339,o),
(212,355,c),
(199,317,l),
(505,686,l),
(505,730,l),
(27,730,l),
(27,672,l),
(490,672,l),
(474,699,l),
(165,326,l),
(166,308,l),
(384,302,o),
(494,227,o),
(494,72,cs),
(494,-61,o),
(403,-146,o),
(256,-146,cs),
(140,-146,o),
(50,-98,o),
(0,-37,c),
(-20,-75,l),
(28,-146,o),
(114,-204,o),
(250,-204,cs)
);
}
);
userData = {
RMXScaler = {
adjustSpace = -52;
height = 126.5;
verticalShift = -193;
weight = -26;
width = 111;
};
};
width = 538;
},
{
anchors = (
{
name = top;
pos = (311,730);
}
);
background = {
anchors = (
{
name = top;
pos = (312,730);
}
);
};
layerId = "41EDA971-A137-4972-81AF-7929AB7CAABF";
shapes = (
{
closed = 1;
nodes = (
(512,-212,o),
(609,-113,o),
(609,70,cs),
(609,240,o),
(493,302,o),
(314,318,c),
(314,263,l),
(578,475,l),
(578,731,l),
(46,731,l),
(46,440,l),
(422,440,l),
(421,460,l),
(197,277,l),
(213,196,l),
(424,199,o),
(487,159,o),
(487,96,cs),
(487,41,o),
(446,8,o),
(326,6,cs),
(199,4,o),
(111,41,o),
(48,103,c),
(0,-58,l),
(45,-145,o),
(152,-212,o),
(305,-212,cs)
);
}
);
userData = {
RMXScaler = {
height = 126.5;
verticalShift = -193;
width = 111;
};
};
width = 617;
},
{
associatedMasterId = "79167EE4-8C29-4BCE-A9E7-C1CFC4557E33";
background = {
shapes = (
{
closed = 1;
nodes = (
(537,-8,o),
(626,74,o),
(626,211,cs),
(626,348,o),
(538,419,o),
(360,422,c),
(348,382,l),
(608,685,l),
(608,730,l),
(172,730,l),
(172,672,l),
(588,672,l),
(574,694,l),
(315,393,l),
(316,375,l),
(502,378,o),
(594,324,o),
(594,212,cs),
(594,111,o),
(519,50,o),
(395,50,cs),
(289,50,o),
(205,94,o),
(160,151,c),
(140,113,l),
(181,49,o),
(260,-8,o),
(389,-8,cs)
);
}
);
};
layerId = "E3BBCF02-C203-4FDA-B208-A0456EEDD58C";
name = "19 mars 25 à 16:17";
userData = {
RMXScaler = {
height = 126.5;
verticalShift = -193;
weight = -26;
width = 120;
};
};
width = 0;
},
{
associatedMasterId = "79167EE4-8C29-4BCE-A9E7-C1CFC4557E33";
layerId = "0143454E-B118-4850-B58A-A6DD09433B3F";
name = "19 mars 25 à 16:18";
userData = {
RMXScaler = {
height = 126.5;
verticalShift = -193;
weight = -26;
width = 120;
};
};
width = 0;
},
{
associatedMasterId = "41EDA971-A137-4972-81AF-7929AB7CAABF";
layerId = "A3CB678D-9E80-4CF5-B2B7-5BEBC145BF2E";
name = "24 mars 25 à 13:21";
shapes = (
{
closed = 1;
nodes = (
(519,-212,o),
(616,-109,o),
(616,57,cs),
(616,228,o),
(508,296,o),
(328,306,c),
(334,254,l),
(587,475,l),
(587,730,l),
(55,730,l),
(55,440,l),
(429,440,l),
(431,467,l),
(209,270,l),
(224,199,l),
(412,205,o),
(459,165,o),
(459,95,cs),
(459,36,o),
(421,-4,o),
(325,-4,cs),
(208,-4,o),
(132,31,o),
(73,73,c),
(25,-90,l),
(68,-160,o),
(166,-212,o),
(313,-212,cs)
);
}
);
userData = {
RMXScaler = {
height = 126.5;
verticalShift = -193;
width = 111;
};
};
width = 625;
},
{
anchors = (
{
name = top;
pos = (310,730);
}
);
associatedMasterId = "79167EE4-8C29-4BCE-A9E7-C1CFC4557E33";
background = {
anchors = (
{
name = top;
pos = (288,730);
}
);
shapes = (
{
closed = 1;
nodes = (
(475,-208,o),
(570,-103,o),
(570,71,cs),
(570,244,o),
(459,318,o),
(267,334,c),
(267,287,l),
(543,561,l),
(543,731,l),
(35,731,l),
(35,542,l),
(449,542,l),
(446,564,l),
(180,298,l),
(190,245,l),
(404,244,o),
(487,189,o),
(487,86,cs),
(487,-4,o),
(424,-59,o),
(293,-60,cs),
(170,-62,o),
(81,-19,o),
(24,42,c),
(-12,-65,l),
(35,-146,o),
(133,-208,o),
(278,-208,cs)
);
}
);
};
layerId = "30B1B665-3E81-44C9-A7EA-B8CE0C546B22";
name = "24 mars 25 à 13:28";
shapes = (
{
closed = 1;
nodes = (
(480,-204,o),
(573,-108,o),
(573,73,cs),
(573,241,o),
(469,314,o),
(283,322,c),
(287,262,l),
(544,529,l),
(544,730,l),
(35,730,l),
(35,500,l),
(424,500,l),
(420,519,l),
(190,279,l),
(201,215,l),
(397,220,o),
(467,178,o),
(467,97,cs),
(467,27,o),
(415,-16,o),
(305,-17,cs),
(180,-20,o),
(90,30,o),
(39,89,c),
(-4,-44,l),
(40,-134,o),
(138,-204,o),
(288,-204,cs)
);
}
);
userData = {
RMXScaler = {
adjustSpace = -52;
height = 126.5;
verticalShift = -193;
weight = -26;
width = 111;
};
};
width = 580;
},
{
anchors = (
{
name = top;
pos = (310,730);
}
);
associatedMasterId = "41EDA971-A137-4972-81AF-7929AB7CAABF";
background = {
shapes = (
{
closed = 1;
nodes = (
(522,-211,o),
(613,-118,o),
(613,67,cs),
(613,227,o),
(502,285,o),
(322,296,c),
(328,246,l),
(577,415,l),
(577,731,l),
(43,731,l),
(43,377,l),
(381,377,l),
(385,404,l),
(195,261,l),
(212,175,l),
(408,181,o),
(451,156,o),
(451,117,cs),
(451,85,o),
(426,67,o),
(332,64,cs),
(200,60,o),
(110,106,o),
(58,157,c),
(-2,-46,l),
(42,-138,o),
(150,-211,o),
(309,-211,cs)
);
}
);
};
layerId = "A830AA61-1628-472C-B26E-D4E1C9B1DBC4";
name = "27 mars 25 à 16:35";
shapes = (
{
closed = 1;
nodes = (
(502,-212,o),
(600,-107,o),
(600,71,cs),
(600,249,o),
(488,310,o),
(322,330,c),
(323,258,l),
(576,475,l),
(576,730,l),
(44,730,l),
(44,440,l),
(418,440,l),
(420,467,l),
(192,273,l),
(219,181,l),
(448,183,o),
(518,149,o),
(518,86,cs),
(518,32,o),
(460,-4,o),
(321,-4,cs),
(194,-4,o),
(107,31,o),
(48,83,c),
(0,-80,l),
(43,-160,o),
(152,-212,o),
(297,-212,cs)
);
}
);
userData = {
RMXScaler = {
height = 126.5;
verticalShift = -193;
width = 111;
};
};
width = 618;
},
{
anchors = (
{
name = top;
pos = (309,730);
}
);
associatedMasterId = "41EDA971-A137-4972-81AF-7929AB7CAABF";
background = {
anchors = (
{
name = top;
pos = (310,730);
}
);
};
layerId = "A3EC8A38-8DC1-46C1-8988-D72515B274A1";
name = "27 mars 25 à 16:39";
shapes = (
{
closed = 1;
nodes = (
(510,-212,o),
(607,-113,o),
(607,70,cs),
(607,240,o),
(491,302,o),
(312,318,c),
(312,263,l),
(576,475,l),
(576,731,l),
(44,731,l),
(44,440,l),
(420,440,l),
(419,460,l),
(195,277,l),
(211,196,l),
(422,199,o),
(485,159,o),
(485,96,cs),
(485,41,o),
(444,8,o),
(324,6,cs),
(197,4,o),
(109,41,o),
(46,103,c),
(-2,-58,l),
(43,-145,o),
(150,-212,o),
(303,-212,cs)
);
}
);
userData = {
RMXScaler = {
height = 126.5;
verticalShift = -193;
width = 111;
};
};
width = 612;
},
{
anchors = (
{
name = top;
pos = (289,730);
}
);
associatedMasterId = "79167EE4-8C29-4BCE-A9E7-C1CFC4557E33";
attr = {
coordinates = (
550
);
};
background = {
anchors = (
{
name = top;
pos = (289,730);
}
);
shapes = (
{
closed = 0;
nodes = (
(541,731,l),
(36,731,l)
);
}
);
};
layerId = "E719B0DF-9BD0-4631-BAD8-D97C446FC7EF";
name = "{550} 27 mars 25 à 16:41";
shapes = (
{
closed = 1;
nodes = (
(474,-206,o),
(568,-101,o),
(568,74,cs),
(568,240,o),
(460,319,o),
(269,332,c),
(273,281,l),
(541,564,l),
(541,731,l),
(36,731,l),
(36,542,l),
(447,542,l),
(438,563,l),
(184,294,l),
(193,242,l),
(401,242,o),
(483,190,o),
(483,89,cs),
(483,0,o),
(420,-55,o),
(295,-56,cs),
(171,-58,o),
(81,-11,o),
(29,48,c),
(-8,-58,l),
(38,-141,o),
(135,-206,o),
(281,-206,cs)
);
}
);
userData = {
RMXScaler = {
adjustSpace = -52;
height = 126.5;
verticalShift = -193;
weight = -26;
width = 111;
};
};
width = 572;
}
);
unicode = 439;
userData = {
RMXScaler = {
source = three;
};
};
},
{
glyphname = Ezhreversed;
lastChange = "2025-03-31 11:49:29 +0000";
layers = (
{
anchors = (
{
name = top;
pos = (284,730);
}
);
layerId = "79167EE4-8C29-4BCE-A9E7-C1CFC4557E33";
shapes = (
{
closed = 1;
nodes = (
(435,-204,o),
(521,-146,o),
(569,-74,c),
(550,-39,l),
(503,-99,o),
(418,-146,o),
(309,-146,cs),
(153,-146,o),
(56,-68,o),
(56,61,cs),
(56,218,o),
(166,300,o),
(384,307,c),
(385,326,l),
(76,699,l),
(60,672,l),
(523,672,l),
(523,730,l),
(45,730,l),
(45,686,l),
(351,317,l),
(338,357,l),
(130,337,o),
(24,241,o),
(24,58,cs),
(24,-105,o),
(129,-204,o),
(300,-204,cs)
);
}
);
width = 557;
},
{
anchors = (
{
name = top;
pos = (312,730);
}
);
layerId = "41EDA971-A137-4972-81AF-7929AB7CAABF";
shapes = (
{
closed = 1;
nodes = (
(469,-212,o),
(565,-161,o),
(610,-87,c),
(564,68,l),
(500,25,o),
(431,6,o),
(317,6,cs),
(185,6,o),
(130,38,o),
(130,92,cs),
(130,159,o),
(196,198,o),
(411,196,c),
(427,277,l),
(202,467,l),
(204,440,l),
(578,440,l),
(578,730,l),
(46,730,l),
(46,475,l),
(299,258,l),
(294,318,l),
(124,298,o),
(8,219,o),
(8,48,cs),
(8,-116,o),
(111,-212,o),
(321,-212,cs)
);
}
);
width = 614;
},
{
anchors = (
{
name = top;
pos = (301,730);
}
);
associatedMasterId = "79167EE4-8C29-4BCE-A9E7-C1CFC4557E33";
attr = {
coordinates = (
550
);
};
layerId = "3181A8B3-2198-43CF-BC48-C809F0E50064";
name = "24 mars 25 à 13:34";
shapes = (
{
closed = 1;
nodes = (
(458,-208,o),
(548,-154,o),
(593,-81,c),
(559,21,l),
(503,-29,o),
(428,-60,o),
(315,-60,cs),
(157,-60,o),
(76,-8,o),
(76,78,cs),
(76,179,o),
(165,234,o),
(396,236,c),
(412,296,l),
(148,569,l),
(142,542,l),
(555,542,l),
(555,730,l),
(47,730,l),
(47,567,l),
(323,284,l),
(318,342,l),
(129,322,o),
(16,246,o),
(16,60,cs),
(16,-106,o),
(121,-208,o),
(319,-208,cs)
);
}
);
width = 593;
},
{
anchors = (
{
name = top;
pos = (312,730);
}
);
associatedMasterId = "41EDA971-A137-4972-81AF-7929AB7CAABF";
layerId = "60500832-DBBF-40E3-AEAA-7837852E9622";
name = "31 mars 25 à 13:47";
shapes = (
{
closed = 1;
nodes = (
(474,-212,o),
(567,-161,o),
(610,-87,c),
(564,68,l),
(500,25,o),
(434,6,o),
(317,6,cs),
(157,6,o),
(90,38,o),
(90,92,cs),
(90,149,o),
(163,183,o),
(403,181,c),
(430,273,l),
(202,467,l),
(204,440,l),
(578,440,l),
(578,730,l),
(46,730,l),
(46,475,l),
(299,258,l),
(300,330,l),
(126,310,o),
(8,249,o),
(8,61,cs),
(8,-107,o),
(112,-212,o),
(331,-212,cs)
);
}
);
width = 614;
}
);
unicode = 440;
},
{
glyphname = F;
lastChange = "2025-03-29 09:30:26 +0000";
layers = (
{
anchors = (
{
name = top;
pos = (317,730);
}
);
layerId = "79167EE4-8C29-4BCE-A9E7-C1CFC4557E33";
shapes = (
{
closed = 1;
nodes = (
(536,672,l),
(536,730,l),
(97,730,l),
(97,672,l)
);
},
{
closed = 1;
nodes = (
(129,0,l),
(129,730,l),
(97,730,l),
(97,0,l)
);
},
{
closed = 1;
nodes = (
(456,345,l),
(456,395,l),
(123,395,l),
(123,345,l)
);
}
);
width = 551;
},
{
anchors = (
{
name = top;
pos = (319,730);
}
);
associatedMasterId = "41EDA971-A137-4972-81AF-7929AB7CAABF";
layerId = "949D69AF-422A-4020-AFAE-38E0CE880F74";
name = "16 déc. 24 à 17:37";
shapes = (
{
closed = 1;
nodes = (
(568,450,l),
(568,730,l),
(70,730,l),
(70,450,l)
);
},
{
closed = 1;
nodes = (
(166,0,l),
(166,730,l),
(70,730,l),
(70,0,l)
);
},
{
closed = 1;
nodes = (
(477,256,l),
(477,356,l),
(146,356,l),
(146,256,l)
);
}
);
width = 588;
},
{
anchors = (
{
name = top;
pos = (319,730);
}
);
layerId = "41EDA971-A137-4972-81AF-7929AB7CAABF";
name = Black;
shapes = (
{
closed = 1;
nodes = (
(568,450,l),
(568,730,l),
(70,730,l),
(70,450,l)
);
},
{
closed = 1;
nodes = (
(166,0,l),
(166,730,l),
(70,730,l),
(70,0,l)
);
},
{
closed = 1;
nodes = (
(490,178,l),
(490,386,l),
(146,386,l),
(146,178,l)
);
}
);
width = 588;
}
);
metricLeft = "=H";
unicode = 70;
},
{
glyphname = Fhook;
lastChange = "2025-03-31 11:49:54 +0000";
layers = (
{
background = {
shapes = (
{
closed = 1;
nodes = (
(93,-204,o),
(129,-159,o),
(129,-79,cs),
(129,50,l),
(97,50,l),
(97,-56,ls),
(97,-125,o),
(74,-150,o),
(20,-150,cs),
(-1,-150,o),
(-17,-144,o),
(-27,-137,c),
(-36,-177,l),
(-24,-194,o),
(-3,-204,o),
(28,-204,cs)
);
}
);
};
layerId = "79167EE4-8C29-4BCE-A9E7-C1CFC4557E33";
shapes = (
{
closed = 1;
nodes = (
(93,-204,o),
(129,-159,o),
(129,-79,cs),
(129,50,l),
(97,50,l),
(97,-56,ls),
(97,-125,o),
(74,-150,o),
(20,-150,cs),
(0,-150,o),
(-17,-145,o),
(-33,-132,c),
(-42,-172,l),
(-30,-192,o),
(-3,-204,o),
(28,-204,cs)
);
},
{
ref = F;
}
);
width = 551;
},
{
background = {
shapes = (
{
closed = 1;
nodes = (
(105,-212,o),
(166,-154,o),
(166,-40,cs),
(166,75,l),
(70,75,l),
(70,46,ls),
(70,-7,o),
(43,-26,o),
(-3,-26,cs),
(-33,-26,o),
(-58,-20,o),
(-82,-5,c),
(-122,-146,l),
(-97,-190,o),
(-55,-212,o),
(11,-212,cs)
);
}
);
};
layerId = "41EDA971-A137-4972-81AF-7929AB7CAABF";
shapes = (
{
closed = 1;
nodes = (
(105,-212,o),
(166,-154,o),
(166,-40,cs),
(166,75,l),
(70,75,l),
(70,56,ls),
(70,-7,o),
(47,-26,o),
(-3,-26,cs),
(-33,-26,o),
(-58,-20,o),
(-82,-5,c),
(-122,-146,l),
(-97,-190,o),
(-55,-212,o),
(11,-212,cs)
);
},
{
ref = F;
}
);
width = 588;
},
{
associatedMasterId = "79167EE4-8C29-4BCE-A9E7-C1CFC4557E33";
layerId = "7835C694-077F-457E-9E50-D3703DE0AA08";
name = "31 mars 25 à 11:13";
shapes = (
{
closed = 1;
nodes = (
(93,-204,o),
(129,-159,o),
(129,-79,cs),
(129,50,l),
(97,50,l),
(97,-56,ls),
(97,-125,o),
(74,-150,o),
(20,-150,cs),
(-1,-150,o),
(-17,-144,o),
(-27,-137,c),
(-36,-177,l),
(-24,-194,o),
(-3,-204,o),
(28,-204,cs)
);
},
{
ref = F;
}
);
width = 551;
}
);
metricLeft = "=F@350";
metricRight = "=F";
unicode = 401;
},
{
glyphname = G;
lastChange = "2025-03-31 09:18:13 +0000";
layers = (
{
anchors = (
{
name = bottom;
pos = (394,0);
},
{
name = hooktop;
pos = (636,621);
},
{
name = top;
pos = (392,730);
}
);
background = {
shapes = (
{
closed = 1;
nodes = (
(499,-8,o),
(590,42,o),
(612,139,c),
(606,151,l),
(606,0,l),
(638,0,l),
(638,358,l),
(393,358,l),
(393,308,l),
(632,308,l),
(606,333,l),
(606,254,ls),
(606,118,o),
(513,49,o),
(380,50,cs),
(201,51,o),
(78,154,o),
(78,366,cs),
(78,564,o),
(191,674,o),
(390,676,cs),
(483,677,o),
(571,641,o),
(616,583,c),
(636,621,l),
(595,686,o),
(522,738,o),
(390,738,cs),
(180,738,o),
(46,608,o),
(46,361,cs),
(46,132,o),
(167,-8,o),
(372,-8,cs)
);
}
);
};
layerId = "79167EE4-8C29-4BCE-A9E7-C1CFC4557E33";
shapes = (
{
closed = 1;
nodes = (
(490,-8,o),
(592,55,o),
(612,149,c),
(606,151,l),
(606,0,l),
(638,0,l),
(638,358,l),
(393,358,l),
(393,308,l),
(632,308,l),
(606,333,l),
(606,254,ls),
(606,118,o),
(513,49,o),
(372,50,cs),
(192,51,o),
(78,154,o),
(78,366,cs),
(78,564,o),
(191,674,o),
(390,676,cs),
(483,677,o),
(571,641,o),
(616,583,c),
(636,621,l),
(595,686,o),
(522,738,o),
(390,738,cs),
(180,738,o),
(46,608,o),
(46,361,cs),
(46,132,o),
(158,-8,o),
(364,-8,cs)
);
}
);
width = 700;
},
{
anchors = (
{
name = bottom;
pos = (393,0);
},
{
name = hooktop;
pos = (669,605);
},
{
name = top;
pos = (377,730);
}
);
layerId = "41EDA971-A137-4972-81AF-7929AB7CAABF";
shapes = (
{
closed = 1;
nodes = (
(462,-16,o),
(542,8,o),
(580,114,c),
(566,121,l),
(566,0,l),
(662,0,l),
(662,368,l),
(364,368,l),
(364,268,l),
(622,268,l),
(566,324,l),
(566,272,ls),
(566,230,o),
(515,204,o),
(376,203,cs),
(180,202,o),
(120,256,o),
(121,331,cs),
(122,406,o),
(183,456,o),
(372,456,cs),
(487,456,o),
(547,440,o),
(605,399,c),
(669,605,l),
(617,691,o),
(531,746,o),
(393,746,cs),
(190,746,o),
(32,642,o),
(32,347,cs),
(32,89,o),
(174,-16,o),
(346,-16,cs)
);
}
);
width = 700;
},
{
anchors = (
{
name = bottom;
pos = (404,0);
},
{
name = top;
pos = (402,730);
}
);
associatedMasterId = "79167EE4-8C29-4BCE-A9E7-C1CFC4557E33";
background = {
shapes = (
{
closed = 1;
nodes = (
(507,-8,o),
(608,42,o),
(627,139,c),
(616,151,l),
(616,0,l),
(648,0,l),
(648,358,l),
(403,358,l),
(403,308,l),
(642,308,l),
(616,333,l),
(616,284,ls),
(616,124,o),
(523,49,o),
(380,50,cs),
(201,51,o),
(88,154,o),
(88,366,cs),
(88,564,o),
(205,674,o),
(400,676,cs),
(491,677,o),
(581,641,o),
(629,582,c),
(643,625,l),
(607,687,o),
(528,738,o),
(400,738,cs),
(194,738,o),
(56,608,o),
(56,361,cs),
(56,143,o),
(155,-8,o),
(378,-8,cs)
);
}
);
};
layerId = "867FA862-BCA3-4E7F-9E1A-97F7C99F78AE";
name = "13 déc. 24 à 14:27";
shapes = (
{
closed = 1;
nodes = (
(509,-8,o),
(600,42,o),
(622,139,c),
(616,151,l),
(616,0,l),
(648,0,l),
(648,358,l),
(403,358,l),
(403,308,l),
(642,308,l),
(616,333,l),
(616,254,ls),
(616,118,o),
(523,49,o),
(380,50,cs),
(201,51,o),
(88,154,o),
(88,366,cs),
(88,564,o),
(205,674,o),
(400,676,cs),
(491,677,o),
(581,641,o),
(629,582,c),
(643,625,l),
(607,687,o),
(528,738,o),
(400,738,cs),
(194,738,o),
(56,608,o),
(56,361,cs),
(56,143,o),
(155,-8,o),
(378,-8,cs)
);
}
);
width = 711;
},
{
anchors = (
{
name = bottom;
pos = (376,0);
},
{
name = top;
pos = (360,730);
}
);
associatedMasterId = "41EDA971-A137-4972-81AF-7929AB7CAABF";
background = {
shapes = (
{
closed = 1;
nodes = (
(371,456,l),
(477,456,o),
(547,436,o),
(595,398,c),
(646,611,l),
(602,690,o),
(517,746,o),
(384,746,c)
);
}
);
};
layerId = "19AB3839-DC3B-4D23-A907-066CB9798D6E";
name = "14 déc. 24 à 10:03";
shapes = (
{
closed = 1;
nodes = (
(442,-16,o),
(517,8,o),
(555,114,c),
(540,121,l),
(540,0,l),
(636,0,l),
(636,368,l),
(347,368,l),
(347,268,l),
(626,268,l),
(539,364,l),
(540,272,ls),
(540,233,o),
(500,204,o),
(359,203,cs),
(171,202,o),
(115,256,o),
(116,331,cs),
(117,406,o),
(174,456,o),
(355,456,cs),
(465,456,o),
(535,439,o),
(587,398,c),
(638,611,l),
(594,693,o),
(507,746,o),
(376,746,cs),
(181,746,o),
(28,642,o),
(28,347,cs),
(28,89,o),
(165,-16,o),
(330,-16,cs)
);
}
);
width = 674;
},
{
anchors = (
{
name = bottom;
pos = (380,0);
},
{
name = top;
pos = (364,730);
}
);
associatedMasterId = "41EDA971-A137-4972-81AF-7929AB7CAABF";
background = {
shapes = (
{
closed = 0;
nodes = (
(371,456,ls),
(471,456,o),
(527,440,o),
(584,399,c),
(647,605,l),
(599,687,o),
(517,746,o),
(384,746,cs)
);
}
);
};
layerId = "C4DB5607-EEC6-41EC-BB35-0DB7002EDC1C";
name = "16 déc. 24 à 13:02";
shapes = (
{
closed = 1;
nodes = (
(446,-16,o),
(521,8,o),
(559,114,c),
(544,121,l),
(544,0,l),
(640,0,l),
(640,368,l),
(351,368,l),
(351,268,l),
(630,268,l),
(543,364,l),
(544,272,ls),
(544,233,o),
(504,204,o),
(363,203,cs),
(175,202,o),
(119,256,o),
(120,331,cs),
(121,406,o),
(178,456,o),
(359,456,cs),
(471,456,o),
(527,440,o),
(584,399,c),
(647,605,l),
(599,687,o),
(518,746,o),
(380,746,cs),
(185,746,o),
(32,642,o),
(32,347,cs),
(32,89,o),
(169,-16,o),
(334,-16,cs)
);
}
);
width = 678;
},
{
anchors = (
{
name = bottom;
pos = (393,0);
},
{
name = hooktop;
pos = (655,612);
},
{
name = top;
pos = (384,730);
}
);
associatedMasterId = "79167EE4-8C29-4BCE-A9E7-C1CFC4557E33";
attr = {
coordinates = (
550
);
};
layerId = "304ED758-B9CC-40C6-8A4A-716153A32714";
name = "28 févr. 25 à 12:10";
shapes = (
{
closed = 1;
nodes = (
(478,-12,o),
(563,23,o),
(594,125,c),
(584,134,l),
(584,0,l),
(652,0,l),
(652,368,l),
(377,368,l),
(377,282,l),
(626,282,l),
(584,328,l),
(584,264,ls),
(584,181,o),
(513,136,o),
(378,136,cs),
(190,136,o),
(102,212,o),
(102,346,cs),
(103,476,o),
(186,551,o),
(380,552,cs),
(486,553,o),
(558,528,o),
(610,480,c),
(655,612,l),
(608,688,o),
(527,743,o),
(392,743,cs),
(186,743,o),
(38,627,o),
(38,353,cs),
(38,108,o),
(171,-12,o),
(357,-12,cs)
);
}
);
width = 700;
},
{
anchors = (
{
name = bottom;
pos = (394,0);
},
{
name = hooktop;
pos = (636,621);
},
{
name = top;
pos = (392,730);
}
);
associatedMasterId = "79167EE4-8C29-4BCE-A9E7-C1CFC4557E33";
layerId = "AE5EA56A-234A-4340-9DC7-B1B840C498CA";
name = "31 mars 25 à 11:17";
shapes = (
{
closed = 1;
nodes = (
(499,-8,o),
(590,42,o),
(612,139,c),
(606,151,l),
(606,0,l),
(638,0,l),
(638,358,l),
(393,358,l),
(393,308,l),
(632,308,l),
(606,333,l),
(606,254,ls),
(606,118,o),
(513,49,o),
(380,50,cs),
(201,51,o),
(78,154,o),
(78,366,cs),
(78,564,o),
(191,674,o),
(390,676,cs),
(483,677,o),
(571,641,o),
(616,583,c),
(636,621,l),
(595,686,o),
(522,738,o),
(390,738,cs),
(180,738,o),
(46,608,o),
(46,361,cs),
(46,132,o),
(167,-8,o),
(372,-8,cs)
);
}
);
width = 700;
}
);
metricLeft = "=O";
metricRight = "=G";
unicode = 71;
},
{
glyphname = Glottalstop;
lastChange = "2025-04-03 12:44:00 +0000";
layers = (
{
layerId = "79167EE4-8C29-4BCE-A9E7-C1CFC4557E33";
shapes = (
{
closed = 1;
nodes = (
(246,0,l),
(246,212,ls),
(246,283,o),
(268,302,o),
(351,347,cs),
(416,383,o),
(477,431,o),
(476,537,cs),
(475,653,o),
(404,738,o),
(251,738,cs),
(129,738,o),
(53,687,o),
(10,620,c),
(29,584,l),
(77,648,o),
(169,676,o),
(242,676,cs),
(375,676,o),
(437,615,o),
(437,538,cs),
(437,462,o),
(385,424,o),
(329,394,cs),
(250,352,o),
(214,308,o),
(214,219,cs),
(214,0,l)
);
}
);
userData = {
RMXScaler = {
adjustSpace = -30;
height = 110;
verticalShift = -74;
width = 110;
};
};
width = 496;
},
{
layerId = "41EDA971-A137-4972-81AF-7929AB7CAABF";
shapes = (
{
closed = 1;
nodes = (
(296,0,l),
(296,157,ls),
(296,209,o),
(310,230,o),
(388,260,cs),
(492,299,o),
(544,368,o),
(543,511,cs),
(542,666,o),
(459,746,o),
(287,746,cs),
(141,746,o),
(46,695,o),
(0,612,c),
(60,412,l),
(100,445,o),
(193,467,o),
(300,467,cs),
(412,467,o),
(436,453,o),
(436,430,cs),
(436,413,o),
(426,406,o),
(365,384,cs),
(240,338,o),
(200,281,o),
(200,174,cs),
(200,0,l)
);
}
);
width = 547;
},
{
associatedMasterId = "41EDA971-A137-4972-81AF-7929AB7CAABF";
background = {
shapes = (
{
closed = 1;
nodes = (
(296,0,l),
(296,218,ls),
(296,258,o),
(306,276,o),
(397,303,cs),
(495,333,o),
(544,389,o),
(543,516,cs),
(542,666,o),
(456,746,o),
(281,746,cs),
(136,746,o),
(44,695,o),
(0,612,c),
(60,412,l),
(102,445,o),
(196,467,o),
(307,467,cs),
(420,467,o),
(436,455,o),
(436,435,cs),
(436,416,o),
(418,409,o),
(347,388,cs),
(238,356,o),
(200,307,o),
(200,228,cs),
(200,0,l)
);
}
);
};
layerId = "04C1F5D1-B748-41A4-8FEB-328BC2311E78";
name = "28 mars 25 à 12:19";
shapes = (
{
closed = 1;
nodes = (
(296,0,l),
(296,198,ls),
(296,238,o),
(306,257,o),
(397,294,cs),
(499,335,o),
(544,390,o),
(543,516,cs),
(542,666,o),
(456,746,o),
(281,746,cs),
(136,746,o),
(44,695,o),
(0,612,c),
(60,412,l),
(102,445,o),
(196,467,o),
(307,467,cs),
(410,467,o),
(436,454,o),
(436,432,cs),
(436,414,o),
(418,405,o),
(349,378,cs),
(240,336,o),
(200,287,o),
(200,208,cs),
(200,0,l)
);
}
);
width = 543;
},
{
associatedMasterId = "41EDA971-A137-4972-81AF-7929AB7CAABF";
background = {
shapes = (
{
closed = 1;
nodes = (
(296,0,l),
(296,198,ls),
(296,238,o),
(306,257,o),
(397,294,cs),
(499,335,o),
(544,390,o),
(543,516,cs),
(542,666,o),
(456,746,o),
(281,746,cs),
(136,746,o),
(44,695,o),
(0,612,c),
(60,412,l),
(102,445,o),
(196,467,o),
(307,467,cs),
(410,467,o),
(436,454,o),
(436,432,cs),
(436,414,o),
(418,405,o),
(349,378,cs),
(240,336,o),
(200,287,o),
(200,208,cs),
(200,0,l)
);
}
);
};
layerId = "2A2479C7-AB6B-4F18-9874-507AE6EA0AA8";
name = "31 mars 25 à 14:34";
shapes = (
{
closed = 1;
nodes = (
(296,0,l),
(296,187,ls),
(296,227,o),
(306,246,o),
(397,283,cs),
(500,324,o),
(544,384,o),
(543,516,cs),
(542,666,o),
(456,746,o),
(281,746,cs),
(136,746,o),
(44,695,o),
(0,612,c),
(60,412,l),
(102,445,o),
(196,467,o),
(307,467,cs),
(410,467,o),
(436,453,o),
(436,428,cs),
(436,408,o),
(419,394,o),
(349,367,cs),
(240,325,o),
(200,276,o),
(200,197,cs),
(200,0,l)
);
}
);
width = 543;
}
);
unicode = 577;
userData = {
RMXScaler = {
source = question;
};
};
},
{
glyphname = Gstroke;
lastChange = "2025-03-29 09:30:26 +0000";
layers = (
{
layerId = "79167EE4-8C29-4BCE-A9E7-C1CFC4557E33";
shapes = (
{
closed = 1;
nodes = (
(499,-8,o),
(590,42,o),
(612,139,c),
(606,151,l),
(606,0,l),
(638,0,l),
(638,358,l),
(393,358,l),
(393,308,l),
(632,308,l),
(606,333,l),
(606,254,ls),
(606,118,o),
(513,49,o),
(380,50,cs),
(201,51,o),
(78,154,o),
(78,366,cs),
(78,564,o),
(191,674,o),
(390,676,cs),
(483,677,o),
(571,641,o),
(616,583,c),
(636,621,l),
(595,686,o),
(522,738,o),
(390,738,cs),
(180,738,o),
(46,608,o),
(46,361,cs),
(46,132,o),
(167,-8,o),
(372,-8,cs)
);
},
{
closed = 1;
nodes = (
(717,171,l),
(717,217,l),
(393,217,l),
(393,171,l)
);
}
);
width = 717;
},
{
layerId = "41EDA971-A137-4972-81AF-7929AB7CAABF";
shapes = (
{
closed = 1;
nodes = (
(462,-16,o),
(542,8,o),
(580,114,c),
(566,121,l),
(566,0,l),
(662,0,l),
(662,368,l),
(364,368,l),
(364,286,l),
(622,286,l),
(566,324,l),
(566,246,ls),
(566,189,o),
(515,153,o),
(376,152,cs),
(180,151,o),
(120,215,o),
(121,305,cs),
(122,396,o),
(183,456,o),
(372,456,cs),
(487,456,o),
(547,440,o),
(605,399,c),
(669,605,l),
(617,691,o),
(531,746,o),
(393,746,cs),
(190,746,o),
(32,642,o),
(32,347,cs),
(32,89,o),
(174,-16,o),
(346,-16,cs)
);
},
{
closed = 1;
nodes = (
(741,178,l),
(741,260,l),
(364,260,l),
(364,178,l)
);
}
);
width = 741;
},
{
associatedMasterId = "79167EE4-8C29-4BCE-A9E7-C1CFC4557E33";
attr = {
coordinates = (
550
);
};
background = {
anchors = (
{
name = bottom;
pos = (393,0);
},
{
name = hooktop;
pos = (655,612);
},
{
name = top;
pos = (384,730);
}
);
shapes = (
{
closed = 1;
nodes = (
(478,-12,o),
(563,23,o),
(594,125,c),
(584,134,l),
(584,0,l),
(652,0,l),
(652,368,l),
(377,368,l),
(377,282,l),
(626,282,l),
(584,328,l),
(584,264,ls),
(584,181,o),
(513,136,o),
(378,136,cs),
(190,136,o),
(102,212,o),
(102,346,cs),
(103,476,o),
(186,551,o),
(380,552,cs),
(486,553,o),
(558,528,o),
(610,480,c),
(655,612,l),
(608,688,o),
(527,743,o),
(392,743,cs),
(186,743,o),
(38,627,o),
(38,353,cs),
(38,108,o),
(171,-12,o),
(357,-12,cs)
);
}
);
};
layerId = "17C9B692-3B3E-417E-9280-E5295E59962A";
name = "24 mars 25 à 12:18";
shapes = (
{
closed = 1;
nodes = (
(478,-12,o),
(563,23,o),
(594,125,c),
(584,134,l),
(584,0,l),
(652,0,l),
(652,368,l),
(377,368,l),
(377,286,l),
(626,286,l),
(584,328,l),
(584,264,ls),
(584,181,o),
(513,136,o),
(378,136,cs),
(190,136,o),
(102,212,o),
(102,346,cs),
(103,476,o),
(186,551,o),
(380,552,cs),
(486,553,o),
(558,528,o),
(610,480,c),
(655,612,l),
(608,688,o),
(527,743,o),
(392,743,cs),
(186,743,o),
(38,627,o),
(38,353,cs),
(38,108,o),
(171,-12,o),
(357,-12,cs)
);
},
{
closed = 1;
nodes = (
(731,170,l),
(731,252,l),
(377,252,l),
(377,170,l)
);
}
);
width = 700;
}
);
metricLeft = "=G";
unicode = 484;
},
{
glyphname = H;
lastChange = "2025-03-31 09:52:38 +0000";
layers = (
{
anchors = (
{
name = bottom;
pos = (359,0);
},
{
name = cedilla;
pos = (115,0);
},
{
name = hookleft;
pos = (97,730);
},
{
name = top;
pos = (359,730);
}
);
layerId = "79167EE4-8C29-4BCE-A9E7-C1CFC4557E33";
shapes = (
{
closed = 1;
nodes = (
(602,351,l),
(602,401,l),
(122,401,l),
(122,351,l)
);
},
{
closed = 1;
nodes = (
(129,0,l),
(129,730,l),
(97,730,l),
(97,0,l)
);
},
{
closed = 1;
nodes = (
(627,0,l),
(627,730,l),
(595,730,l),
(595,0,l)
);
}
);
width = 724;
},
{
anchors = (
{
name = bottom;
pos = (373,0);
},
{
name = cedilla;
pos = (119,0);
},
{
name = hookleft;
pos = (70,730);
},
{
name = top;
pos = (373,730);
}
);
layerId = "41EDA971-A137-4972-81AF-7929AB7CAABF";
shapes = (
{
closed = 1;
nodes = (
(569,205,l),
(569,495,l),
(153,495,l),
(153,205,l)
);
},
{
closed = 1;
nodes = (
(166,0,l),
(166,730,l),
(70,730,l),
(70,0,l)
);
},
{
closed = 1;
nodes = (
(654,0,l),
(654,730,l),
(558,730,l),
(558,0,l)
);
}
);
width = 724;
}
);
unicode = 72;
},
{
glyphname = Hbar;
lastChange = "2025-03-29 09:30:26 +0000";
layers = (
{
layerId = "79167EE4-8C29-4BCE-A9E7-C1CFC4557E33";
shapes = (
{
closed = 1;
nodes = (
(735,549,l),
(735,595,l),
(47,595,l),
(47,549,l)
);
},
{
alignment = -1;
pos = (29,0);
ref = H;
}
);
width = 782;
},
{
layerId = "41EDA971-A137-4972-81AF-7929AB7CAABF";
shapes = (
{
closed = 1;
nodes = (
(742,561,l),
(742,661,l),
(0,661,l),
(0,561,l)
);
},
{
alignment = -1;
pos = (9,0);
ref = H;
}
);
width = 742;
},
{
associatedMasterId = "41EDA971-A137-4972-81AF-7929AB7CAABF";
layerId = "F39DED25-ADB9-486F-8F3C-E056F27B6AB2";
name = "15 déc. 24 à 14:25";
shapes = (
{
closed = 1;
nodes = (
(704,549,l),
(704,681,l),
(-1,681,l),
(-1,549,l)
);
},
{
alignment = -1;
pos = (-6,0);
ref = H;
}
);
width = 703;
},
{
associatedMasterId = "79167EE4-8C29-4BCE-A9E7-C1CFC4557E33";
attr = {
coordinates = (
550
);
};
layerId = "3C50216D-F92A-47D8-BB37-BF88F55023EA";
name = "24 mars 25 à 12:12";
shapes = (
{
closed = 1;
nodes = (
(734,551,l),
(734,637,l),
(16,637,l),
(16,551,l)
);
},
{
alignment = -1;
pos = (13,0);
ref = H;
}
);
width = 749;
}
);
unicode = 294;
},
{
glyphname = Heng;
lastChange = "2025-03-31 11:51:14 +0000";
layers = (
{
background = {
shapes = (
{
closed = 1;
nodes = (
(569,-204,o),
(627,-156,o),
(627,-18,cs),
(627,118,l),
(595,118,l),
(595,-2,ls),
(595,-112,o),
(564,-147,o),
(495,-147,cs),
(456,-148,o),
(420,-133,o),
(401,-108,c),
(381,-146,l),
(403,-180,o),
(435,-204,o),
(493,-204,cs)
);
}
);
};
layerId = "79167EE4-8C29-4BCE-A9E7-C1CFC4557E33";
shapes = (
{
closed = 1;
nodes = (
(569,-204,o),
(627,-156,o),
(627,-18,cs),
(627,118,l),
(595,118,l),
(595,-2,ls),
(595,-112,o),
(564,-147,o),
(495,-147,cs),
(456,-148,o),
(420,-132,o),
(400,-112,c),
(381,-149,l),
(401,-181,o),
(436,-204,o),
(493,-204,cs)
);
},
{
ref = H;
}
);
width = 724;
},
{
layerId = "41EDA971-A137-4972-81AF-7929AB7CAABF";
shapes = (
{
closed = 1;
nodes = (
(595,-212,o),
(654,-156,o),
(654,-32,cs),
(654,135,l),
(558,135,l),
(558,68,ls),
(558,6,o),
(530,-17,o),
(479,-17,cs),
(441,-17,o),
(409,-8,o),
(377,14,c),
(335,-131,l),
(364,-184,o),
(413,-212,o),
(491,-212,cs)
);
},
{
ref = H;
}
);
width = 724;
},
{
associatedMasterId = "79167EE4-8C29-4BCE-A9E7-C1CFC4557E33";
layerId = "34C1A1B4-3CBF-4432-8E53-F91DA0D63C62";
name = "31 mars 25 à 11:18";
shapes = (
{
closed = 1;
nodes = (
(564,-204,o),
(627,-153,o),
(627,2,cs),
(627,113,l),
(595,113,l),
(595,11,ls),
(595,-109,o),
(560,-148,o),
(485,-148,cs),
(442,-148,o),
(401,-132,o),
(380,-105,c),
(360,-142,l),
(384,-179,o),
(420,-204,o),
(482,-204,cs)
);
},
{
ref = H;
}
);
width = 724;
},
{
associatedMasterId = "41EDA971-A137-4972-81AF-7929AB7CAABF";
layerId = "8D7F9C8F-17A0-43C9-9FA3-0F33EF7E0D58";
name = "31 mars 25 à 13:50";
shapes = (
{
closed = 1;
nodes = (
(597,-212,o),
(654,-145,o),
(654,-9,cs),
(654,135,l),
(558,135,l),
(558,86,ls),
(558,28,o),
(528,6,o),
(473,6,cs),
(433,6,o),
(397,17,o),
(363,39,c),
(313,-129,l),
(344,-186,o),
(394,-212,o),
(480,-212,cs)
);
},
{
ref = H;
}
);
width = 724;
}
);
metricLeft = "=H";
metricRight = "=H";
unicode = 42790;
},
{
glyphname = Hturned;
lastChange = "2025-04-03 12:53:38 +0000";
layers = (
{
layerId = "79167EE4-8C29-4BCE-A9E7-C1CFC4557E33";
shapes = (
{
closed = 1;
nodes = (
(562,0,l),
(562,730,l),
(530,730,l),
(530,543,ls),
(530,360,o),
(434,292,o),
(303,292,cs),
(144,292,o),
(84,361,o),
(84,525,cs),
(84,730,l),
(52,730,l),
(52,505,ls),
(52,321,o),
(128,234,o),
(298,234,cs),
(429,234,o),
(521,307,o),
(547,435,c),
(530,467,l),
(530,0,l)
);
}
);
userData = {
RMXScaler = {
height = 95;
weight = 30;
width = 119.5;
};
};
width = 659;
},
{
layerId = "41EDA971-A137-4972-81AF-7929AB7CAABF";
shapes = (
{
closed = 1;
nodes = (
(619,0,l),
(619,730,l),
(523,730,l),
(523,567,ls),
(523,489,o),
(472,447,o),
(340,447,cs),
(204,447,o),
(156,487,o),
(156,569,cs),
(156,730,l),
(60,730,l),
(60,473,ls),
(60,268,o),
(151,191,o),
(316,191,cs),
(422,191,o),
(510,232,o),
(536,324,c),
(523,333,l),
(523,0,l)
);
}
);
userData = {
RMXScaler = {
height = 95;
width = 119.5;
};
};
width = 689;
},
{
associatedMasterId = "79167EE4-8C29-4BCE-A9E7-C1CFC4557E33";
background = {
shapes = (
{
closed = 1;
nodes = (
(64,730,l),
(64,505,ls),
(64,321,o),
(140,234,o),
(310,234,cs),
(441,234,o),
(533,307,o),
(559,435,c),
(538,467,l),
(538,0,l),
(574,0,l),
(574,730,l),
(542,730,l),
(542,543,ls),
(542,360,o),
(446,292,o),
(315,292,cs),
(156,292,o),
(96,361,o),
(96,525,cs),
(96,730,l)
);
}
);
};
layerId = "1B73A5C5-8305-4163-93AD-77D40B3D13A4";
name = "24 mars 25 à 13:41";
width = 0;
},
{
associatedMasterId = "41EDA971-A137-4972-81AF-7929AB7CAABF";
layerId = "25A2DBAB-49A1-43C5-96F2-51F36E64BCD1";
name = "31 mars 25 à 13:51";
shapes = (
{
closed = 1;
nodes = (
(619,0,l),
(619,730,l),
(523,730,l),
(523,558,ls),
(523,473,o),
(472,428,o),
(340,428,cs),
(204,428,o),
(156,471,o),
(156,560,cs),
(156,730,l),
(60,730,l),
(60,487,ls),
(60,285,o),
(141,210,o),
(324,210,cs),
(422,210,o),
(507,235,o),
(536,313,c),
(523,313,l),
(523,0,l)
);
}
);
userData = {
RMXScaler = {
height = 95;
width = 119.5;
};
};
width = 689;
}
);
metricRight = "=H";
unicode = 42893;
userData = {
RMXScaler = {
source = h;
};
};
},
{
glyphname = I;
lastChange = "2025-03-29 09:30:26 +0000";
layers = (
{
anchors = (
{
name = bottom;
pos = (210,0);
},
{
name = ogonek;
pos = (245,0);
},
{
name = top;
pos = (209,730);
}
);
layerId = "79167EE4-8C29-4BCE-A9E7-C1CFC4557E33";
shapes = (
{
closed = 1;
nodes = (
(228,34,l),
(228,696,l),
(196,696,l),
(196,34,l)
);
},
{
closed = 1;
nodes = (
(372,0,l),
(372,54,l),
(52,54,l),
(52,0,l)
);
},
{
closed = 1;
nodes = (
(377,672,l),
(377,730,l),
(47,730,l),
(47,672,l)
);
}
);
width = 424;
},
{
anchors = (
{
name = bottom;
pos = (246,0);
},
{
name = ogonek;
pos = (307,0);
},
{
name = top;
pos = (246,730);
}
);
layerId = "41EDA971-A137-4972-81AF-7929AB7CAABF";
shapes = (
{
closed = 1;
nodes = (
(294,167,l),
(294,492,l),
(198,492,l),
(198,167,l)
);
},
{
closed = 1;
nodes = (
(438,0,l),
(438,218,l),
(54,218,l),
(54,0,l)
);
},
{
closed = 1;
nodes = (
(438,440,l),
(438,730,l),
(54,730,l),
(54,440,l)
);
}
);
width = 492;
}
);
unicode = 73;
},
{
glyphname = Iogonek;
lastChange = "2025-03-29 09:30:26 +0000";
layers = (
{
layerId = "79167EE4-8C29-4BCE-A9E7-C1CFC4557E33";
shapes = (
{
closed = 1;
nodes = (
(263,-203,o),
(295,-185,o),
(309,-160,c),
(301,-125,l),
(283,-140,o),
(258,-150,o),
(224,-150,cs),
(188,-150,o),
(168,-135,o),
(168,-105,cs),
(168,-75,o),
(188,-40,o),
(250,0,c),
(225,11,l),
(158,-31,o),
(129,-77,o),
(129,-124,cs),
(129,-177,o),
(163,-203,o),
(218,-203,cs)
);
},
{
ref = I;
}
);
width = 424;
},
{
layerId = "41EDA971-A137-4972-81AF-7929AB7CAABF";
shapes = (
{
closed = 1;
nodes = (
(320,-212,o),
(371,-183,o),
(389,-148,c),
(360,-63,l),
(337,-77,o),
(313,-87,o),
(287,-87,cs),
(263,-87,o),
(251,-77,o),
(251,-60,cs),
(251,-38,o),
(273,-13,o),
(315,0,c),
(258,25,l),
(180,-7,o),
(143,-60,o),
(143,-115,cs),
(143,-176,o),
(188,-212,o),
(261,-212,cs)
);
},
{
ref = I;
}
);
width = 492;
}
);
unicode = 302;
},
{
glyphname = "Iota-latin";
lastChange = "2025-04-03 13:01:18 +0000";
layers = (
{
background = {
shapes = (
{
closed = 1;
nodes = (
(361,-16,o),
(418,17,o),
(456,84,c),
(411,243,l),
(371,214,o),
(326,202,o),
(281,202,cs),
(196,202,o),
(156,234,o),
(156,317,cs),
(156,730,l),
(60,730,l),
(60,242,ls),
(60,63,o),
(120,-16,o),
(270,-16,cs)
);
}
);
};
layerId = "41EDA971-A137-4972-81AF-7929AB7CAABF";
shapes = (
{
closed = 1;
nodes = (
(362,-16,o),
(418,17,o),
(456,84,c),
(411,243,l),
(371,214,o),
(327,202,o),
(278,202,cs),
(196,202,o),
(156,235,o),
(156,317,cs),
(156,730,l),
(60,730,l),
(60,242,ls),
(60,64,o),
(120,-16,o),
(267,-16,cs)
);
}
);
width = 456;
},
{
associatedMasterId = "79167EE4-8C29-4BCE-A9E7-C1CFC4557E33";
layerId = "0D122170-04D8-4E64-8788-FD08F1985D1F";
name = "24 mars 25 à 13:47";
shapes = (
{
closed = 1;
nodes = (
(303,-8,o),
(342,18,o),
(367,57,c),
(347,95,l),
(325,65,o),
(280,48,o),
(233,49,cs),
(152,49,o),
(113,88,o),
(113,212,cs),
(113,730,l),
(82,730,l),
(82,197,ls),
(82,43,o),
(147,-8,o),
(234,-8,cs)
);
}
);
width = 378;
},
{
layerId = "79167EE4-8C29-4BCE-A9E7-C1CFC4557E33";
name = ExtraLight;
shapes = (
{
closed = 1;
nodes = (
(299,-8,o),
(338,17,o),
(366,60,c),
(347,97,l),
(323,66,o),
(281,50,o),
(234,50,cs),
(154,50,o),
(114,87,o),
(114,199,cs),
(114,730,l),
(82,730,l),
(82,186,ls),
(82,41,o),
(142,-8,o),
(233,-8,cs)
);
}
);
width = 378;
}
);
metricLeft = "=U";
unicode = 406;
},
{
glyphname = Istroke;
lastChange = "2025-03-29 09:30:26 +0000";
layers = (
{
layerId = "79167EE4-8C29-4BCE-A9E7-C1CFC4557E33";
shapes = (
{
ref = I;
},
{
closed = 1;
nodes = (
(356,339,l),
(356,385,l),
(68,385,l),
(68,339,l)
);
}
);
width = 424;
},
{
layerId = "41EDA971-A137-4972-81AF-7929AB7CAABF";
shapes = (
{
ref = I;
},
{
closed = 1;
nodes = (
(415,279,l),
(415,379,l),
(77,379,l),
(77,279,l)
);
}
);
width = 492;
},
{
associatedMasterId = "79167EE4-8C29-4BCE-A9E7-C1CFC4557E33";
attr = {
coordinates = (
550
);
};
layerId = "42843532-5E2F-40CD-8BCB-C30A8AC5A9D4";
name = "24 mars 25 à 12:22";
shapes = (
{
alignment = -1;
ref = I;
},
{
closed = 1;
nodes = (
(389,301,l),
(389,387,l),
(73,387,l),
(73,301,l)
);
}
);
width = 462;
}
);
metricLeft = "=I";
metricRight = "=I";
unicode = 407;
},
{
glyphname = J;
lastChange = "2025-03-29 09:30:26 +0000";
layers = (
{
anchors = (
{
name = top;
pos = (236,730);
}
);
background = {
shapes = (
{
closed = 0;
nodes = (
(9,38,l),
(49,113,l)
);
},
{
closed = 0;
nodes = (
(37,110,l),
(88,45,l)
);
},
{
closed = 0;
nodes = (
(18,72,l),
(64,0,l)
);
}
);
};
layerId = "79167EE4-8C29-4BCE-A9E7-C1CFC4557E33";
shapes = (
{
closed = 1;
nodes = (
(271,-8,o),
(342,47,o),
(342,220,cs),
(342,730,l),
(310,730,l),
(310,232,ls),
(310,93,o),
(266,50,o),
(175,50,cs),
(121,50,o),
(69,69,o),
(43,102,c),
(23,64,l),
(51,20,o),
(96,-8,o),
(174,-8,cs)
);
},
{
closed = 1;
nodes = (
(342,672,l),
(342,730,l),
(119,730,l),
(119,672,l)
);
}
);
width = 444;
},
{
anchors = (
{
name = top;
pos = (269,730);
}
);
background = {
shapes = (
{
closed = 0;
nodes = (
(1,77,l),
(56,266,l)
);
},
{
closed = 0;
nodes = (
(41,28,l),
(0,100,l)
);
},
{
closed = 0;
nodes = (
(89,229,l),
(42,261,l)
);
}
);
};
layerId = "41EDA971-A137-4972-81AF-7929AB7CAABF";
shapes = (
{
closed = 1;
nodes = (
(383,-16,o),
(443,77,o),
(443,285,cs),
(443,730,l),
(347,730,l),
(347,328,ls),
(347,249,o),
(305,202,o),
(207,202,cs),
(152,202,o),
(96,219,o),
(52,254,c),
(5,91,l),
(47,18,o),
(108,-16,o),
(211,-16,cs)
);
},
{
closed = 1;
nodes = (
(399,440,l),
(399,730,l),
(85,730,l),
(85,440,l)
);
}
);
width = 503;
},
{
anchors = (
{
name = top;
pos = (236,730);
}
);
associatedMasterId = "79167EE4-8C29-4BCE-A9E7-C1CFC4557E33";
layerId = "2FA7AE3A-7F66-497E-95C7-43EB6FFCED8C";
name = "13 déc. 24 à 14:34";
shapes = (
{
closed = 1;
nodes = (
(271,-8,o),
(342,47,o),
(342,220,cs),
(342,730,l),
(310,730,l),
(310,232,ls),
(310,93,o),
(266,50,o),
(175,50,cs),
(121,50,o),
(68,71,o),
(40,103,c),
(25,62,l),
(46,25,o),
(96,-8,o),
(174,-8,cs)
);
},
{
closed = 1;
nodes = (
(342,672,l),
(342,730,l),
(119,730,l),
(119,672,l)
);
}
);
width = 444;
},
{
anchors = (
{
name = top;
pos = (269,730);
}
);
associatedMasterId = "41EDA971-A137-4972-81AF-7929AB7CAABF";
background = {
shapes = (
{
closed = 1;
nodes = (
(395,-16,o),
(443,75,o),
(443,305,cs),
(443,730,l),
(347,730,l),
(347,328,ls),
(347,249,o),
(300,202,o),
(216,202,cs),
(131,202,o),
(74,232,o),
(54,255,c),
(4,94,l),
(29,26,o),
(94,-16,o),
(203,-16,cs)
);
},
{
closed = 1;
nodes = (
(399,440,l),
(399,730,l),
(85,730,l),
(85,440,l)
);
}
);
};
layerId = "003A596B-A142-4227-A96F-9B57FE5E99E5";
name = "14 déc. 24 à 10:04";
shapes = (
{
closed = 1;
nodes = (
(383,-16,o),
(443,77,o),
(443,285,cs),
(443,730,l),
(347,730,l),
(347,328,ls),
(347,249,o),
(305,202,o),
(207,202,cs),
(142,202,o),
(82,223,o),
(54,255,c),
(4,94,l),
(29,26,o),
(95,-16,o),
(211,-16,cs)
);
},
{
closed = 1;
nodes = (
(399,440,l),
(399,730,l),
(85,730,l),
(85,440,l)
);
}
);
width = 503;
}
);
unicode = 74;
},
{
glyphname = Jcrossedtail;
lastChange = "2025-04-03 13:06:40 +0000";
layers = (
{
background = {
shapes = (
{
pos = (18,0);
ref = J;
}
);
};
layerId = "79167EE4-8C29-4BCE-A9E7-C1CFC4557E33";
shapes = (
{
closed = 1;
nodes = (
(360,672,l),
(360,730,l),
(137,730,l),
(137,672,l)
);
},
{
closed = 1;
nodes = (
(102,50,o),
(60,88,o),
(60,139,cs),
(60,197,o),
(100,250,o),
(228,250,cs),
(330,250,o),
(405,219,o),
(459,162,c),
(476,194,l),
(427,257,o),
(346,292,o),
(233,292,cs),
(81,292,o),
(24,214,o),
(24,131,cs),
(24,45,o),
(88,-8,o),
(183,-8,cs),
(285,-8,o),
(360,48,o),
(360,220,cs),
(360,730,l),
(328,730,l),
(328,232,ls),
(328,94,o),
(280,50,o),
(191,50,cs)
);
}
);
width = 480;
},
{
layerId = "41EDA971-A137-4972-81AF-7929AB7CAABF";
shapes = (
{
closed = 1;
nodes = (
(456,440,l),
(456,730,l),
(98,730,l),
(98,440,l)
);
},
{
closed = 1;
nodes = (
(159,179,o),
(136,198,o),
(136,225,cs),
(136,252,o),
(162,271,o),
(257,271,cs),
(374,271,o),
(481,233,o),
(546,158,c),
(576,203,l),
(514,297,o),
(417,339,o),
(258,339,cs),
(85,339,o),
(17,267,o),
(17,158,cs),
(17,47,o),
(95,-16,o),
(231,-16,cs),
(371,-16,o),
(456,49,o),
(456,278,cs),
(456,730,l),
(360,730,l),
(360,305,ls),
(360,204,o),
(325,179,o),
(235,179,cs)
);
}
);
width = 584;
},
{
associatedMasterId = "41EDA971-A137-4972-81AF-7929AB7CAABF";
background = {
shapes = (
{
pos = (-64,0);
ref = J;
}
);
};
layerId = "D90A6BFC-6CA7-4CF2-9659-2A5447C199EF";
name = "24 mars 25 à 15:59";
shapes = (
{
closed = 1;
nodes = (
(379,530,l),
(379,730,l),
(89,730,l),
(89,530,l)
);
},
{
closed = 1;
nodes = (
(80,162,o),
(54,178,o),
(54,206,cs),
(54,232,o),
(81,251,o),
(186,251,cs),
(298,251,o),
(406,215,o),
(471,144,c),
(489,203,l),
(429,285,o),
(331,319,o),
(198,319,cs),
(31,319,o),
(-26,253,o),
(-26,147,cs),
(-26,46,o),
(38,-16,o),
(167,-16,cs),
(277,-16,o),
(379,54,o),
(379,258,cs),
(379,730,l),
(283,730,l),
(283,269,ls),
(283,183,o),
(263,162,o),
(176,162,cs)
);
}
);
width = 607;
},
{
associatedMasterId = "41EDA971-A137-4972-81AF-7929AB7CAABF";
background = {
shapes = (
{
pos = (13,0);
ref = J;
}
);
};
layerId = "F749D843-CA35-4D95-A190-E0396C566284";
name = "31 mars 25 à 13:53";
shapes = (
{
closed = 1;
nodes = (
(456,440,l),
(456,730,l),
(98,730,l),
(98,440,l)
);
},
{
closed = 1;
nodes = (
(155,197,o),
(131,212,o),
(131,234,cs),
(131,256,o),
(158,271,o),
(257,271,cs),
(374,271,o),
(481,233,o),
(546,158,c),
(576,203,l),
(514,297,o),
(417,339,o),
(258,339,cs),
(84,339,o),
(22,269,o),
(22,158,cs),
(22,43,o),
(94,-16,o),
(226,-16,cs),
(371,-16,o),
(456,49,o),
(456,278,cs),
(456,730,l),
(360,730,l),
(360,309,ls),
(360,219,o),
(325,197,o),
(235,197,cs)
);
}
);
width = 584;
}
);
unicode = 42930;
},
{
glyphname = Jstroke;
lastChange = "2025-03-29 09:30:26 +0000";
layers = (
{
layerId = "79167EE4-8C29-4BCE-A9E7-C1CFC4557E33";
shapes = (
{
ref = J;
},
{
closed = 1;
nodes = (
(421,339,l),
(421,385,l),
(182,385,l),
(182,339,l)
);
}
);
width = 453;
},
{
layerId = "41EDA971-A137-4972-81AF-7929AB7CAABF";
shapes = (
{
ref = J;
},
{
closed = 1;
nodes = (
(522,284,l),
(522,384,l),
(206,384,l),
(206,284,l)
);
}
);
width = 522;
},
{
associatedMasterId = "79167EE4-8C29-4BCE-A9E7-C1CFC4557E33";
attr = {
coordinates = (
550
);
};
layerId = "2BA25EB7-E913-4A8F-A3D2-C8CEF4439564";
name = "24 mars 25 à 12:24";
shapes = (
{
alignment = -1;
ref = J;
},
{
closed = 1;
nodes = (
(478,301,l),
(478,387,l),
(190,387,l),
(190,301,l)
);
}
);
width = 477;
}
);
metricLeft = "=J";
unicode = 584;
},
{
glyphname = K;
lastChange = "2025-03-29 09:30:26 +0000";
layers = (
{
anchors = (
{
name = bottom;
pos = (319,0);
},
{
name = top;
pos = (335,730);
}
);
layerId = "79167EE4-8C29-4BCE-A9E7-C1CFC4557E33";
shapes = (
{
closed = 1;
nodes = (
(628,730,l),
(563,730,l),
(118,289,l),
(123,229,l)
);
},
{
closed = 1;
nodes = (
(129,0,l),
(129,730,l),
(97,730,l),
(97,0,l)
);
},
{
closed = 1;
nodes = (
(629,0,l),
(258,420,l),
(234,399,l),
(586,0,l)
);
}
);
width = 662;
},
{
anchors = (
{
name = bottom;
pos = (354,0);
},
{
name = top;
pos = (354,730);
}
);
layerId = "41EDA971-A137-4972-81AF-7929AB7CAABF";
shapes = (
{
closed = 1;
nodes = (
(691,730,l),
(378,730,l),
(154,482,l),
(154,136,l)
);
},
{
closed = 1;
nodes = (
(166,0,l),
(166,730,l),
(70,730,l),
(70,0,l)
);
},
{
closed = 1;
nodes = (
(671,0,l),
(345,396,l),
(280,323,l),
(547,0,l)
);
}
);
width = 661;
},
{
anchors = (
{
name = bottom;
pos = (315,0);
},
{
name = top;
pos = (315,730);
}
);
associatedMasterId = "79167EE4-8C29-4BCE-A9E7-C1CFC4557E33";
layerId = "E25A549F-EAC5-4B18-A60F-F7CD1734DA3A";
name = "16 déc. 24 à 12:05";
shapes = (
{
closed = 1;
nodes = (
(621,730,l),
(556,730,l),
(120,289,l),
(126,229,l)
);
},
{
closed = 1;
nodes = (
(129,0,l),
(129,730,l),
(97,730,l),
(97,0,l)
);
},
{
closed = 1;
nodes = (
(619,0,l),
(255,420,l),
(232,399,l),
(577,0,l)
);
}
);
width = 652;
},
{
anchors = (
{
name = bottom;
pos = (347,0);
},
{
name = top;
pos = (347,730);
}
);
associatedMasterId = "41EDA971-A137-4972-81AF-7929AB7CAABF";
layerId = "EB0E9516-370C-46B5-B25C-68F3AD3C18AB";
name = "16 déc. 24 à 12:23";
shapes = (
{
closed = 1;
nodes = (
(677,730,l),
(353,730,l),
(159,508,l),
(159,136,l)
);
},
{
closed = 1;
nodes = (
(166,0,l),
(166,730,l),
(70,730,l),
(70,0,l)
);
},
{
closed = 1;
nodes = (
(652,0,l),
(340,396,l),
(276,323,l),
(530,0,l)
);
}
);
width = 637;
},
{
anchors = (
{
name = bottom;
pos = (347,0);
},
{
name = top;
pos = (347,730);
}
);
associatedMasterId = "41EDA971-A137-4972-81AF-7929AB7CAABF";
layerId = "710CA254-BCA3-4FAB-9844-16C83BECE01E";
name = "16 déc. 24 à 13:03";
shapes = (
{
closed = 1;
nodes = (
(672,730,l),
(364,730,l),
(154,490,l),
(154,136,l)
);
},
{
closed = 1;
nodes = (
(166,0,l),
(166,730,l),
(70,730,l),
(70,0,l)
);
},
{
closed = 1;
nodes = (
(652,0,l),
(340,396,l),
(276,323,l),
(530,0,l)
);
}
);
width = 637;
}
);
metricLeft = "=H";
unicode = 75;
},
{
glyphname = Khook;
lastChange = "2025-04-02 09:15:12 +0000";
layers = (
{
layerId = "79167EE4-8C29-4BCE-A9E7-C1CFC4557E33";
shapes = (
{
closed = 1;
nodes = (
(474,635,ls),
(505,672,o),
(533,684,o),
(566,684,cs),
(597,684,o),
(622,670,o),
(633,653,c),
(653,693,l),
(636,722,o),
(607,738,o),
(564,738,cs),
(520,738,o),
(484,719,o),
(445,672,cs),
(117,291,l),
(124,229,l)
);
},
{
closed = 1;
nodes = (
(129,0,l),
(129,730,l),
(97,730,l),
(97,0,l)
);
},
{
closed = 1;
nodes = (
(629,0,l),
(258,420,l),
(234,399,l),
(586,0,l)
);
}
);
width = 661;
},
{
layerId = "41EDA971-A137-4972-81AF-7929AB7CAABF";
shapes = (
{
closed = 1;
nodes = (
(415,425,ls),
(455,469,o),
(491,487,o),
(544,487,cs),
(581,487,o),
(609,476,o),
(624,462,c),
(691,660,l),
(664,717,o),
(604,746,o),
(532,746,cs),
(432,746,o),
(362,709,o),
(285,625,cs),
(154,482,l),
(154,136,l)
);
},
{
closed = 1;
nodes = (
(166,0,l),
(166,730,l),
(70,730,l),
(70,0,l)
);
},
{
closed = 1;
nodes = (
(671,0,l),
(345,396,l),
(280,323,l),
(547,0,l)
);
}
);
width = 701;
},
{
associatedMasterId = "79167EE4-8C29-4BCE-A9E7-C1CFC4557E33";
background = {
shapes = (
{
closed = 1;
nodes = (
(129,0,l),
(129,730,l),
(97,730,l),
(97,0,l)
);
},
{
closed = 1;
nodes = (
(629,0,l),
(258,420,l),
(234,399,l),
(586,0,l)
);
},
{
closed = 1;
nodes = (
(569,672,o),
(591,689,o),
(615,689,cs),
(650,689,o),
(689,653,o),
(697,629,c),
(731,656,l),
(731,696,o),
(677,738,o),
(627,738,cs),
(589,738,o),
(549,718,o),
(514,681,cs),
(118,289,l),
(123,229,l),
(540,643,ls)
);
}
);
};
layerId = "E92A66F4-C019-4D09-8C94-D9E4EDEEA898";
name = "19 mars 25 à 16:31";
shapes = (
{
closed = 1;
nodes = (
(540,643,ls),
(574,677,o),
(595,689,o),
(625,689,cs),
(659,689,o),
(688,669,o),
(699,647,c),
(725,681,l),
(712,712,o),
(676,738,o),
(632,738,cs),
(585,738,o),
(549,718,o),
(514,681,cs),
(118,289,l),
(123,229,l)
);
},
{
closed = 1;
nodes = (
(129,0,l),
(129,730,l),
(97,730,l),
(97,0,l)
);
},
{
closed = 1;
nodes = (
(629,0,l),
(258,420,l),
(234,399,l),
(586,0,l)
);
}
);
width = 662;
},
{
anchors = (
{
name = bottom;
pos = (319,0);
},
{
name = top;
pos = (335,730);
}
);
associatedMasterId = "79167EE4-8C29-4BCE-A9E7-C1CFC4557E33";
background = {
shapes = (
{
ref = K;
}
);
};
layerId = "5659265E-8263-4A3F-8407-5459C8547CBF";
name = "19 mars 25 à 16:35";
shapes = (
{
closed = 1;
nodes = (
(532,635,ls),
(566,669,o),
(592,684,o),
(625,684,cs),
(660,684,o),
(687,668,o),
(699,648,c),
(720,687,l),
(704,716,o),
(674,738,o),
(631,738,cs),
(584,738,o),
(548,716,o),
(505,672,cs),
(118,289,l),
(123,229,l)
);
},
{
closed = 1;
nodes = (
(129,0,l),
(129,730,l),
(97,730,l),
(97,0,l)
);
},
{
closed = 1;
nodes = (
(629,0,l),
(258,420,l),
(234,399,l),
(586,0,l)
);
}
);
width = 662;
},
{
associatedMasterId = "41EDA971-A137-4972-81AF-7929AB7CAABF";
layerId = "877CDD80-4DC2-4667-AA99-A0ACB600ACC5";
name = "28 mars 25 à 11:54";
shapes = (
{
closed = 1;
nodes = (
(415,425,ls),
(456,470,o),
(484,487,o),
(530,487,cs),
(567,487,o),
(599,471,o),
(612,451,c),
(713,638,l),
(678,704,o),
(616,746,o),
(529,746,cs),
(429,746,o),
(361,708,o),
(285,625,cs),
(154,482,l),
(154,136,l)
);
},
{
closed = 1;
nodes = (
(166,0,l),
(166,730,l),
(70,730,l),
(70,0,l)
);
},
{
closed = 1;
nodes = (
(671,0,l),
(345,396,l),
(280,323,l),
(547,0,l)
);
}
);
width = 713;
},
{
associatedMasterId = "79167EE4-8C29-4BCE-A9E7-C1CFC4557E33";
layerId = "8277E6FB-8442-4A89-A78C-EB0C8ACB9EC7";
name = "31 mars 25 à 12:15";
shapes = (
{
closed = 1;
nodes = (
(474,635,ls),
(505,672,o),
(533,684,o),
(566,684,cs),
(601,684,o),
(628,668,o),
(640,648,c),
(661,687,l),
(645,716,o),
(615,738,o),
(572,738,cs),
(525,738,o),
(485,720,o),
(445,672,cs),
(117,291,l),
(124,229,l)
);
},
{
closed = 1;
nodes = (
(129,0,l),
(129,730,l),
(97,730,l),
(97,0,l)
);
},
{
closed = 1;
nodes = (
(629,0,l),
(258,420,l),
(234,399,l),
(586,0,l)
);
}
);
width = 661;
},
{
associatedMasterId = "41EDA971-A137-4972-81AF-7929AB7CAABF";
layerId = "D3682D26-769F-485D-A479-6095FC19DD76";
name = "31 mars 25 à 14:15";
shapes = (
{
closed = 1;
nodes = (
(415,425,ls),
(455,469,o),
(491,487,o),
(544,487,cs),
(581,487,o),
(609,476,o),
(624,462,c),
(691,660,l),
(664,717,o),
(604,746,o),
(532,746,cs),
(432,746,o),
(362,709,o),
(285,625,cs),
(154,482,l),
(154,136,l)
);
},
{
closed = 1;
nodes = (
(166,0,l),
(166,730,l),
(70,730,l),
(70,0,l)
);
},
{
closed = 1;
nodes = (
(671,0,l),
(345,396,l),
(280,323,l),
(547,0,l)
);
}
);
width = 701;
}
);
metricLeft = "=H";
unicode = 408;
},
{
glyphname = Kstroke;
lastChange = "2025-03-29 09:30:26 +0000";
layers = (
{
layerId = "79167EE4-8C29-4BCE-A9E7-C1CFC4557E33";
shapes = (
{
ref = K;
},
{
closed = 1;
nodes = (
(257,523,l),
(257,569,l),
(18,569,l),
(18,523,l)
);
}
);
width = 662;
},
{
layerId = "41EDA971-A137-4972-81AF-7929AB7CAABF";
shapes = (
{
pos = (9,0);
ref = K;
},
{
closed = 1;
nodes = (
(240,578,l),
(240,678,l),
(0,678,l),
(0,578,l)
);
}
);
width = 670;
},
{
associatedMasterId = "79167EE4-8C29-4BCE-A9E7-C1CFC4557E33";
attr = {
coordinates = (
550
);
};
layerId = "CE62580E-8AD1-4474-A681-BC760BFDB400";
name = "24 mars 25 à 12:30";
shapes = (
{
alignment = -1;
ref = K;
},
{
closed = 1;
nodes = (
(242,554,l),
(242,640,l),
(3,640,l),
(3,554,l)
);
}
);
width = 661;
}
);
metricRight = "=K";
unicode = 42816;
},
{
glyphname = L;
lastChange = "2025-03-29 09:30:26 +0000";
layers = (
{
anchors = (
{
name = bottom;
pos = (307,0);
},
{
name = caroncomb.alt;
pos = (237,730);
},
{
name = top;
pos = (112,730);
}
);
layerId = "79167EE4-8C29-4BCE-A9E7-C1CFC4557E33";
shapes = (
{
closed = 1;
nodes = (
(129,0,l),
(129,730,l),
(97,730,l),
(97,0,l)
);
},
{
closed = 1;
nodes = (
(516,0,l),
(516,54,l),
(125,54,l),
(125,0,l)
);
}
);
width = 531;
},
{
anchors = (
{
name = bottom;
pos = (290,0);
},
{
name = caroncomb.alt;
pos = (233,730);
},
{
name = top;
pos = (124,730);
}
);
layerId = "41EDA971-A137-4972-81AF-7929AB7CAABF";
shapes = (
{
closed = 1;
nodes = (
(166,0,l),
(166,730,l),
(70,730,l),
(70,0,l)
);
},
{
closed = 1;
nodes = (
(519,0,l),
(519,222,l),
(105,222,l),
(105,0,l)
);
}
);
width = 539;
}
);
metricLeft = "=H";
unicode = 76;
},
{
glyphname = Lbar;
lastChange = "2025-04-02 09:18:44 +0000";
layers = (
{
layerId = "79167EE4-8C29-4BCE-A9E7-C1CFC4557E33";
shapes = (
{
ref = L;
},
{
closed = 1;
nodes = (
(323,339,l),
(323,385,l),
(18,385,l),
(18,339,l)
);
}
);
width = 531;
},
{
layerId = "41EDA971-A137-4972-81AF-7929AB7CAABF";
shapes = (
{
pos = (9,0);
ref = L;
},
{
closed = 1;
nodes = (
(338,389,l),
(338,489,l),
(0,489,l),
(0,389,l)
);
}
);
width = 548;
},
{
associatedMasterId = "79167EE4-8C29-4BCE-A9E7-C1CFC4557E33";
attr = {
coordinates = (
550
);
};
layerId = "31213A8C-511E-4011-A51E-22428CECB1F2";
name = "24 mars 25 à 12:34";
shapes = (
{
alignment = -1;
ref = L;
},
{
closed = 1;
nodes = (
(326,363,l),
(326,449,l),
(3,449,l),
(3,363,l)
);
}
);
width = 536;
}
);
unicode = 573;
},
{
glyphname = Lbelt;
lastChange = "2025-04-02 09:19:01 +0000";
layers = (
{
layerId = "79167EE4-8C29-4BCE-A9E7-C1CFC4557E33";
shapes = (
{
closed = 1;
nodes = (
(356,329,l),
(356,375,l),
(115,375,ls),
(77,375,o),
(43,391,o),
(43,421,cs),
(43,443,o),
(59,460,o),
(84,460,cs),
(113,460,o),
(130,446,o),
(130,411,c),
(138,444,l),
(135,473,o),
(111,494,o),
(79,494,cs),
(39,494,o),
(8,465,o),
(8,420,cs),
(8,358,o),
(57,329,o),
(138,329,cs)
);
},
{
pos = (33,0);
ref = L;
}
);
width = 564;
},
{
layerId = "41EDA971-A137-4972-81AF-7929AB7CAABF";
shapes = (
{
closed = 1;
nodes = (
(440,359,l),
(440,459,l),
(167,459,ls),
(125,459,o),
(100,474,o),
(100,501,cs),
(100,519,o),
(114,534,o),
(139,534,cs),
(165,534,o),
(181,522,o),
(181,484,c),
(197,533,l),
(194,573,o),
(154,600,o),
(108,600,cs),
(46,600,o),
(1,559,o),
(1,493,cs),
(1,400,o),
(85,359,o),
(191,359,cs)
);
},
{
pos = (111,0);
ref = L;
}
);
width = 650;
},
{
associatedMasterId = "79167EE4-8C29-4BCE-A9E7-C1CFC4557E33";
background = {
shapes = (
{
ref = Lbar;
}
);
};
layerId = "8142CDDB-DB10-4AB5-A232-71DF387C9665";
name = "21 mars 25 à 08:46";
shapes = (
{
closed = 1;
nodes = (
(189,331,o),
(260,367,o),
(296,425,c),
(279,458,l),
(241,410,o),
(174,385,o),
(112,385,cs),
(76,385,o),
(26,390,o),
(26,429,cs),
(26,450,o),
(41,465,o),
(62,465,cs),
(84,465,o),
(97,453,o),
(97,421,c),
(105,454,l),
(102,482,o),
(84,500,o),
(54,500,cs),
(17,500,o),
(-14,473,o),
(-14,423,cs),
(-14,364,o),
(34,331,o),
(110,331,cs)
);
},
{
ref = L;
}
);
width = 531;
},
{
associatedMasterId = "79167EE4-8C29-4BCE-A9E7-C1CFC4557E33";
background = {
shapes = (
{
ref = Lbar;
}
);
};
layerId = "CC408ACF-C234-43C2-8639-E7E625658B55";
name = "21 mars 25 à 08:47";
shapes = (
{
closed = 1;
nodes = (
(323,340,l),
(323,385,l),
(112,385,ls),
(75,385,o),
(24,390,o),
(24,431,cs),
(24,451,o),
(39,466,o),
(59,466,cs),
(83,466,o),
(97,454,o),
(97,421,c),
(105,454,l),
(102,483,o),
(80,501,o),
(48,501,cs),
(9,501,o),
(-21,473,o),
(-21,427,cs),
(-21,371,o),
(30,339,o),
(110,339,cs)
);
},
{
ref = L;
}
);
width = 531;
},
{
associatedMasterId = "79167EE4-8C29-4BCE-A9E7-C1CFC4557E33";
background = {
shapes = (
{
ref = Lbar;
}
);
};
layerId = "2E86E4F3-CB38-4D7F-81FC-5C579C3FC08C";
name = "25 mars 25 à 14:03";
shapes = (
{
closed = 1;
nodes = (
(323,329,l),
(323,375,l),
(82,375,ls),
(43,375,o),
(8,391,o),
(8,421,cs),
(8,442,o),
(24,458,o),
(51,458,cs),
(80,458,o),
(97,445,o),
(97,411,c),
(105,444,l),
(102,474,o),
(78,494,o),
(46,494,cs),
(6,494,o),
(-22,465,o),
(-22,420,cs),
(-22,358,o),
(29,329,o),
(110,329,cs)
);
},
{
ref = L;
}
);
width = 531;
},
{
associatedMasterId = "41EDA971-A137-4972-81AF-7929AB7CAABF";
background = {
shapes = (
{
pos = (111,0);
ref = L;
}
);
};
layerId = "F60FFBA8-4091-45D6-A1F4-8DE2C84C9AE1";
name = "31 mars 25 à 13:54";
shapes = (
{
closed = 1;
nodes = (
(440,359,l),
(440,459,l),
(167,459,ls),
(125,459,o),
(100,474,o),
(100,501,cs),
(100,519,o),
(114,534,o),
(139,534,cs),
(165,534,o),
(181,522,o),
(181,490,c),
(190,533,l),
(187,577,o),
(147,606,o),
(102,606,cs),
(43,606,o),
(0,565,o),
(0,497,cs),
(0,402,o),
(84,359,o),
(191,359,cs)
);
},
{
pos = (111,0);
ref = L;
}
);
width = 650;
}
);
metricRight = "=L";
unicode = 42925;
},
{
glyphname = Ldoublebar;
lastChange = "2025-03-31 09:20:43 +0000";
layers = (
{
layerId = "79167EE4-8C29-4BCE-A9E7-C1CFC4557E33";
shapes = (
{
pos = (7,0);
ref = L;
},
{
closed = 1;
nodes = (
(330,260,l),
(330,306,l),
(6,306,l),
(6,260,l)
);
},
{
closed = 1;
nodes = (
(330,418,l),
(330,464,l),
(6,464,l),
(6,418,l)
);
}
);
width = 538;
},
{
layerId = "41EDA971-A137-4972-81AF-7929AB7CAABF";
shapes = (
{
pos = (9,0);
ref = L;
},
{
closed = 1;
nodes = (
(338,315,l),
(338,415,l),
(0,415,l),
(0,315,l)
);
},
{
closed = 1;
nodes = (
(338,461,l),
(338,561,l),
(0,561,l),
(0,461,l)
);
}
);
width = 548;
},
{
associatedMasterId = "79167EE4-8C29-4BCE-A9E7-C1CFC4557E33";
layerId = "058BC55F-1E66-46BC-B7B3-E40BD2002749";
name = "31 mars 25 à 11:20";
shapes = (
{
pos = (7,0);
ref = L;
},
{
closed = 1;
nodes = (
(330,254,l),
(330,300,l),
(16,300,l),
(16,254,l)
);
},
{
closed = 1;
nodes = (
(330,424,l),
(330,470,l),
(16,470,l),
(16,424,l)
);
}
);
width = 538;
}
);
metricRight = "=L";
unicode = 11360;
},
{
glyphname = Lmiddletilde;
lastChange = "2025-04-02 09:23:09 +0000";
layers = (
{
layerId = "79167EE4-8C29-4BCE-A9E7-C1CFC4557E33";
shapes = (
{
closed = 1;
nodes = (
(30,358,o),
(51,382,o),
(84,383,cs),
(141,384,o),
(199,295,o),
(266,296,cs),
(316,297,o),
(348,342,o),
(362,412,c),
(351,432,l),
(332,365,o),
(310,342,o),
(278,341,cs),
(222,340,o),
(164,429,o),
(96,428,cs),
(48,427,o),
(15,385,o),
(0,313,c),
(11,294,l)
);
},
{
pos = (59,0);
ref = L;
}
);
width = 590;
},
{
layerId = "41EDA971-A137-4972-81AF-7929AB7CAABF";
shapes = (
{
closed = 1;
nodes = (
(48,381,o),
(65,399,o),
(95,399,cs),
(154,399,o),
(186,344,o),
(271,344,cs),
(330,344,o),
(378,396,o),
(396,480,c),
(368,534,l),
(349,497,o),
(330,479,o),
(301,479,cs),
(245,479,o),
(204,534,o),
(125,534,cs),
(65,534,o),
(18,482,o),
(0,398,c),
(28,344,l)
);
},
{
pos = (76,0);
ref = L;
}
);
width = 615;
},
{
associatedMasterId = "79167EE4-8C29-4BCE-A9E7-C1CFC4557E33";
layerId = "6419581F-CA68-4911-AC62-07ACDE2CD947";
name = "19 mars 25 à 17:38";
shapes = (
{
ref = L;
},
{
closed = 1;
nodes = (
(-19,358,o),
(2,382,o),
(35,383,cs),
(88,384,o),
(110,295,o),
(177,296,cs),
(227,297,o),
(259,342,o),
(273,412,c),
(262,432,l),
(243,365,o),
(221,342,o),
(189,341,cs),
(137,340,o),
(115,429,o),
(47,428,cs),
(-1,427,o),
(-34,385,o),
(-49,313,c),
(-38,294,l)
);
},
{
closed = 1;
nodes = (
(-19,358,o),
(2,382,o),
(35,383,cs),
(88,384,o),
(110,295,o),
(177,296,cs),
(227,297,o),
(259,342,o),
(273,412,c),
(262,432,l),
(243,365,o),
(221,342,o),
(189,341,cs),
(137,340,o),
(115,429,o),
(47,428,cs),
(-1,427,o),
(-34,385,o),
(-49,313,c),
(-38,294,l)
);
}
);
width = 531;
}
);
metricRight = "=L";
unicode = 11362;
},
{
glyphname = Lslash;
lastChange = "2025-03-29 09:30:26 +0000";
layers = (
{
background = {
shapes = (
{
closed = 1;
nodes = (
(345,458,l),
(318,500,l),
(17,289,l),
(44,247,l)
);
}
);
};
layerId = "79167EE4-8C29-4BCE-A9E7-C1CFC4557E33";
shapes = (
{
closed = 1;
nodes = (
(344,459,l),
(320,497,l),
(18,288,l),
(42,250,l)
);
},
{
alignment = -1;
pos = (22,0);
ref = L;
}
);
width = 553;
},
{
layerId = "41EDA971-A137-4972-81AF-7929AB7CAABF";
shapes = (
{
closed = 1;
nodes = (
(441,512,l),
(392,599,l),
(0,364,l),
(49,276,l)
);
},
{
alignment = -1;
pos = (56,0);
ref = L;
}
);
width = 595;
},
{
associatedMasterId = "41EDA971-A137-4972-81AF-7929AB7CAABF";
layerId = "5933AD87-3B68-483E-92F3-5E1867F7246D";
name = "15 déc. 24 à 14:25";
shapes = (
{
closed = 1;
nodes = (
(447,497,l),
(383,612,l),
(-9,377,l),
(55,261,l)
);
},
{
alignment = -1;
pos = (54,0);
ref = L;
}
);
width = 593;
}
);
metricRight = "=L";
unicode = 321;
},
{
glyphname = M;
lastChange = "2025-03-31 11:55:43 +0000";
layers = (
{
anchors = (
{
name = bottom;
pos = (442,0);
},
{
name = top;
pos = (438,730);
}
);
layerId = "79167EE4-8C29-4BCE-A9E7-C1CFC4557E33";
shapes = (
{
closed = 1;
nodes = (
(141,0,l),
(141,715,l),
(119,715,l),
(429,0,l),
(462,0,l),
(775,716,l),
(748,719,l),
(748,0,l),
(780,0,l),
(780,730,l),
(731,730,l),
(426,32,l),
(450,32,l),
(147,730,l),
(97,730,l),
(97,0,l)
);
}
);
width = 877;
},
{
anchors = (
{
name = bottom;
pos = (486,0);
},
{
name = top;
pos = (454,730);
}
);
layerId = "41EDA971-A137-4972-81AF-7929AB7CAABF";
name = UltraBlack;
shapes = (
{
closed = 1;
nodes = (
(237,0,l),
(237,545,l),
(214,550,l),
(432,0,l),
(547,0,l),
(764,550,l),
(743,563,l),
(743,0,l),
(839,0,l),
(839,730,l),
(586,730,l),
(400,260,l),
(432,260,l),
(247,730,l),
(70,730,l),
(70,0,l)
);
}
);
width = 909;
},
{
associatedMasterId = "79167EE4-8C29-4BCE-A9E7-C1CFC4557E33";
layerId = "CBCAEC20-0780-45E0-AEF6-61022428CF22";
name = "12 déc. 24 à 15:07";
shapes = (
{
closed = 1;
nodes = (
(147,0,l),
(147,715,l),
(129,715,l),
(433,0,l),
(478,0,l),
(781,716,l),
(759,719,l),
(759,0,l),
(791,0,l),
(791,730,l),
(735,730,l),
(436,24,l),
(458,24,l),
(158,730,l),
(103,730,l),
(103,0,l)
);
}
);
width = 893;
},
{
associatedMasterId = "79167EE4-8C29-4BCE-A9E7-C1CFC4557E33";
background = {
shapes = (
{
pos = (127,0);
ref = V;
}
);
};
layerId = "978D6A6A-2EE3-41D0-A5D0-44EE9366488F";
name = "13 déc. 24 à 16:29";
shapes = (
{
closed = 1;
nodes = (
(147,0,l),
(147,715,l),
(129,715,l),
(437,0,l),
(473,0,l),
(781,716,l),
(759,719,l),
(759,0,l),
(791,0,l),
(791,730,l),
(735,730,l),
(434,32,l),
(458,32,l),
(158,730,l),
(103,730,l),
(103,0,l)
);
}
);
width = 893;
},
{
associatedMasterId = "41EDA971-A137-4972-81AF-7929AB7CAABF";
layerId = "C3EBF5C9-B963-450B-90ED-F4765C321844";
name = "16 déc. 24 à 12:45";
shapes = (
{
closed = 1;
nodes = (
(237,0,l),
(237,545,l),
(212,550,l),
(425,0,l),
(542,0,l),
(754,550,l),
(732,563,l),
(732,0,l),
(829,0,l),
(829,730,l),
(561,730,l),
(379,260,l),
(429,260,l),
(248,730,l),
(70,730,l),
(70,0,l)
);
}
);
width = 899;
},
{
associatedMasterId = "79167EE4-8C29-4BCE-A9E7-C1CFC4557E33";
layerId = "980F0A6E-D911-4EE2-AD25-0EA4629132CC";
name = "16 déc. 24 à 13:05";
shapes = (
{
closed = 1;
nodes = (
(141,0,l),
(141,715,l),
(119,715,l),
(431,0,l),
(465,0,l),
(780,716,l),
(753,719,l),
(753,0,l),
(785,0,l),
(785,730,l),
(736,730,l),
(429,32,l),
(452,32,l),
(147,730,l),
(97,730,l),
(97,0,l)
);
}
);
width = 882;
}
);
metricLeft = "=H";
metricRight = "=H";
unicode = 77;
},
{
glyphname = Mturned;
lastChange = "2025-03-31 09:21:28 +0000";
layers = (
{
layerId = "79167EE4-8C29-4BCE-A9E7-C1CFC4557E33";
shapes = (
{
closed = 1;
nodes = (
(402,-8,o),
(482,59,o),
(505,178,c),
(487,192,l),
(502,44,o),
(575,-8,o),
(692,-8,cs),
(800,-8,o),
(876,55,o),
(898,166,c),
(888,185,l),
(888,0,l),
(922,0,l),
(922,730,l),
(890,730,l),
(890,264,ls),
(890,108,o),
(808,50,o),
(695,50,cs),
(566,50,o),
(518,113,o),
(518,256,cs),
(518,730,l),
(486,730,l),
(486,264,ls),
(486,108,o),
(404,50,o),
(296,50,cs),
(163,50,o),
(114,113,o),
(114,256,cs),
(114,730,l),
(82,730,l),
(82,251,ls),
(82,56,o),
(157,-8,o),
(291,-8,cs)
);
}
);
userData = {
RMXScaler = {
adjustSpace = -3;
height = 133;
weight = -28;
width = 117.25;
};
};
width = 1019;
},
{
layerId = "41EDA971-A137-4972-81AF-7929AB7CAABF";
shapes = (
{
closed = 1;
nodes = (
(404,-16,o),
(495,55,o),
(495,245,c),
(475,234,l),
(487,58,o),
(552,-16,o),
(675,-16,cs),
(786,-16,o),
(867,55,o),
(867,245,c),
(844,235,l),
(844,0,l),
(940,0,l),
(940,730,l),
(844,730,l),
(844,379,ls),
(844,251,o),
(800,202,o),
(699,202,cs),
(595,202,o),
(548,253,o),
(548,378,cs),
(548,730,l),
(452,730,l),
(452,379,ls),
(452,251,o),
(408,202,o),
(307,202,cs),
(203,202,o),
(156,253,o),
(156,378,cs),
(156,730,l),
(60,730,l),
(60,306,ls),
(60,78,o),
(124,-16,o),
(282,-16,cs)
);
}
);
userData = {
RMXScaler = {
adjustSpace = -4;
height = 132;
width = 116;
};
};
width = 1010;
},
{
associatedMasterId = "79167EE4-8C29-4BCE-A9E7-C1CFC4557E33";
background = {
shapes = (
{
closed = 1;
nodes = (
(402,-8,o),
(482,57,o),
(505,171,c),
(487,185,l),
(502,43,o),
(573,-8,o),
(689,-8,cs),
(798,-8,o),
(876,53,o),
(898,161,c),
(888,180,l),
(888,0,l),
(922,0,l),
(922,730,l),
(890,730,l),
(890,257,ls),
(890,107,o),
(808,51,o),
(696,51,cs),
(566,51,o),
(518,111,o),
(518,249,cs),
(518,730,l),
(486,730,l),
(486,257,ls),
(486,107,o),
(405,51,o),
(298,51,cs),
(163,51,o),
(114,111,o),
(114,249,cs),
(114,730,l),
(82,730,l),
(82,241,ls),
(82,56,o),
(155,-8,o),
(292,-8,cs)
);
}
);
};
layerId = "4B9C306A-641D-477F-9884-07E5E3103978";
name = "25 mars 25 à 14:11";
userData = {
RMXScaler = {
height = 133;
weight = -28;
width = 118;
};
};
width = 0;
},
{
associatedMasterId = "79167EE4-8C29-4BCE-A9E7-C1CFC4557E33";
background = {
shapes = (
{
closed = 1;
nodes = (
(402,-8,o),
(482,57,o),
(505,171,c),
(487,185,l),
(502,43,o),
(573,-8,o),
(689,-8,cs),
(798,-8,o),
(876,53,o),
(898,161,c),
(888,180,l),
(888,0,l),
(922,0,l),
(922,730,l),
(890,730,l),
(890,257,ls),
(890,107,o),
(808,51,o),
(696,51,cs),
(566,51,o),
(518,111,o),
(518,249,cs),
(518,730,l),
(486,730,l),
(486,257,ls),
(486,107,o),
(405,51,o),
(298,51,cs),
(163,51,o),
(114,111,o),
(114,249,cs),
(114,730,l),
(82,730,l),
(82,241,ls),
(82,56,o),
(155,-8,o),
(292,-8,cs)
);
}
);
};
layerId = "677C8EFB-687E-4D1B-A8D9-BBB16902974C";
name = "25 mars 25 à 14:13";
userData = {
RMXScaler = {
adjustSpace = 10;
height = 133;
weight = -28;
width = 108.5;
};
};
width = 0;
},
{
associatedMasterId = "41EDA971-A137-4972-81AF-7929AB7CAABF";
background = {
shapes = (
{
closed = 1;
nodes = (
(452,379,ls),
(452,251,o),
(408,202,o),
(307,202,cs),
(203,202,o),
(156,253,o),
(156,378,cs),
(156,730,l),
(60,730,l),
(60,312,ls),
(60,80,o),
(123,-16,o),
(291,-16,cs),
(401,-16,o),
(495,55,o),
(495,245,c),
(475,234,l),
(487,58,o),
(549,-16,o),
(683,-16,cs),
(783,-16,o),
(867,55,o),
(867,245,c),
(844,379,l),
(844,251,o),
(800,202,o),
(699,202,cs),
(595,202,o),
(548,253,o),
(548,378,cs),
(548,730,l),
(452,730,l)
);
},
{
closed = 1;
nodes = (
(940,0,l),
(940,730,l),
(844,730,l),
(844,0,l)
);
}
);
};
layerId = "26E1B749-B868-4ADC-8425-1EB9129B374C";
name = "25 mars 25 à 14:13";
userData = {
RMXScaler = {
height = 132;
width = 108.5;
};
};
width = 0;
},
{
associatedMasterId = "79167EE4-8C29-4BCE-A9E7-C1CFC4557E33";
layerId = "D6AA19A2-F4F0-4725-B455-69E444681659";
name = "31 mars 25 à 11:21";
shapes = (
{
closed = 1;
nodes = (
(401,-8,o),
(482,59,o),
(505,178,c),
(487,192,l),
(502,44,o),
(573,-8,o),
(688,-8,cs),
(798,-8,o),
(876,55,o),
(898,166,c),
(888,185,l),
(888,0,l),
(922,0,l),
(922,730,l),
(890,730,l),
(890,264,ls),
(890,108,o),
(808,50,o),
(695,50,cs),
(566,50,o),
(518,113,o),
(518,256,cs),
(518,730,l),
(486,730,l),
(486,264,ls),
(486,108,o),
(404,50,o),
(296,50,cs),
(163,50,o),
(114,113,o),
(114,256,cs),
(114,730,l),
(82,730,l),
(82,251,ls),
(82,56,o),
(156,-8,o),
(290,-8,cs)
);
}
);
userData = {
RMXScaler = {
adjustSpace = -3;
height = 133;
weight = -28;
width = 117.25;
};
};
width = 1019;
}
);
metricLeft = "=U";
metricRight = "=H";
unicode = 412;
userData = {
RMXScaler = {
source = m;
};
};
},
{
glyphname = N;
lastChange = "2025-03-29 09:30:26 +0000";
layers = (
{
anchors = (
{
name = bottom;
pos = (393,0);
},
{
name = top;
pos = (414,730);
}
);
layerId = "79167EE4-8C29-4BCE-A9E7-C1CFC4557E33";
shapes = (
{
closed = 1;
nodes = (
(129,0,l),
(129,687,l),
(115,687,l),
(637,0,l),
(677,0,l),
(677,730,l),
(645,730,l),
(645,45,l),
(663,45,l),
(143,730,l),
(97,730,l),
(97,0,l)
);
}
);
width = 774;
},
{
anchors = (
{
name = bottom;
pos = (388,0);
},
{
name = top;
pos = (419,730);
}
);
layerId = "41EDA971-A137-4972-81AF-7929AB7CAABF";
name = Black;
shapes = (
{
closed = 1;
nodes = (
(166,0,l),
(166,561,l),
(128,538,l),
(483,0,l),
(710,0,l),
(710,730,l),
(614,730,l),
(614,52,l),
(692,138,l),
(305,730,l),
(70,730,l),
(70,0,l)
);
}
);
width = 780;
},
{
anchors = (
{
name = bottom;
pos = (401,0);
},
{
name = top;
pos = (422,730);
}
);
associatedMasterId = "79167EE4-8C29-4BCE-A9E7-C1CFC4557E33";
layerId = "AAD056EC-D48C-4371-BC63-2002783EC7CC";
name = "12 déc. 24 à 15:09";
shapes = (
{
closed = 1;
nodes = (
(135,0,l),
(135,707,l),
(109,716,l),
(632,0,l),
(686,0,l),
(686,730,l),
(654,730,l),
(654,25,l),
(670,39,l),
(166,730,l),
(103,730,l),
(103,0,l)
);
}
);
width = 788;
},
{
anchors = (
{
name = bottom;
pos = (401,0);
},
{
name = top;
pos = (422,730);
}
);
associatedMasterId = "79167EE4-8C29-4BCE-A9E7-C1CFC4557E33";
layerId = "01D7CF74-CD21-497F-9698-A1077CCA24C1";
name = "16 déc. 24 à 12:21";
shapes = (
{
closed = 1;
nodes = (
(135,0,l),
(135,687,l),
(121,687,l),
(642,0,l),
(686,0,l),
(686,730,l),
(654,730,l),
(654,45,l),
(675,45,l),
(156,730,l),
(103,730,l),
(103,0,l)
);
}
);
width = 788;
},
{
anchors = (
{
name = bottom;
pos = (401,0);
},
{
name = top;
pos = (422,730);
}
);
associatedMasterId = "79167EE4-8C29-4BCE-A9E7-C1CFC4557E33";
layerId = "816EAEF8-42C7-4BAA-983B-206EEF681F39";
name = "16 déc. 24 à 12:42";
shapes = (
{
closed = 1;
nodes = (
(135,0,l),
(135,687,l),
(119,687,l),
(644,0,l),
(686,0,l),
(686,730,l),
(654,730,l),
(654,45,l),
(675,45,l),
(152,730,l),
(103,730,l),
(103,0,l)
);
}
);
width = 788;
},
{
anchors = (
{
name = bottom;
pos = (382,0);
},
{
name = top;
pos = (413,730);
}
);
associatedMasterId = "41EDA971-A137-4972-81AF-7929AB7CAABF";
layerId = "0D4335C7-249A-46CC-AFB3-AFBA6FFAABD3";
name = "16 déc. 24 à 12:43";
shapes = (
{
closed = 1;
nodes = (
(166,0,l),
(166,561,l),
(136,538,l),
(460,0,l),
(699,0,l),
(699,730,l),
(603,730,l),
(603,52,l),
(673,138,l),
(317,730,l),
(70,730,l),
(70,0,l)
);
}
);
width = 769;
}
);
metricLeft = "=H";
metricRight = "=H";
unicode = 78;
},
{
glyphname = Nhookleft;
lastChange = "2025-03-29 09:30:26 +0000";
layers = (
{
layerId = "79167EE4-8C29-4BCE-A9E7-C1CFC4557E33";
shapes = (
{
closed = 1;
nodes = (
(93,-204,o),
(129,-159,o),
(129,-79,cs),
(129,70,l),
(97,70,l),
(97,-56,ls),
(97,-125,o),
(74,-150,o),
(20,-150,cs),
(-1,-150,o),
(-17,-144,o),
(-27,-137,c),
(-36,-177,l),
(-24,-194,o),
(-3,-204,o),
(28,-204,cs)
);
},
{
ref = _N.alt;
}
);
width = 729;
},
{
layerId = "41EDA971-A137-4972-81AF-7929AB7CAABF";
shapes = (
{
closed = 1;
nodes = (
(105,-212,o),
(166,-154,o),
(166,-40,cs),
(166,75,l),
(70,75,l),
(70,46,ls),
(70,-7,o),
(43,-26,o),
(-3,-26,cs),
(-33,-26,o),
(-58,-20,o),
(-82,-5,c),
(-122,-146,l),
(-97,-190,o),
(-55,-212,o),
(11,-212,cs)
);
},
{
ref = _N.alt;
}
);
width = 734;
}
);
metricLeft = "=H@350";
metricRight = "=|U";
unicode = 413;
},
{
glyphname = Nlongrightleg;
lastChange = "2025-03-29 09:30:26 +0000";
layers = (
{
layerId = "79167EE4-8C29-4BCE-A9E7-C1CFC4557E33";
shapes = (
{
ref = _N.alt;
},
{
closed = 1;
nodes = (
(615,-196,l),
(647,-196,l),
(647,70,l),
(615,70,l)
);
}
);
width = 729;
},
{
layerId = "41EDA971-A137-4972-81AF-7929AB7CAABF";
shapes = (
{
ref = _N.alt;
},
{
closed = 1;
nodes = (
(578,-196,l),
(674,-196,l),
(674,70,l),
(578,70,l)
);
}
);
width = 734;
}
);
metricLeft = "=H";
metricRight = "=|U";
unicode = 544;
},
{
glyphname = Eng;
lastChange = "2025-03-31 09:37:38 +0000";
layers = (
{
background = {
shapes = (
{
ref = _N.alt;
}
);
};
layerId = "79167EE4-8C29-4BCE-A9E7-C1CFC4557E33";
shapes = (
{
closed = 1;
nodes = (
(583,-204,o),
(647,-152,o),
(647,3,cs),
(647,94,l),
(615,94,l),
(615,17,ls),
(615,-107,o),
(578,-146,o),
(498,-146,cs),
(451,-147,o),
(407,-129,o),
(384,-103,c),
(365,-140,l),
(389,-178,o),
(429,-204,o),
(496,-204,cs)
);
},
{
ref = _N.alt;
}
);
width = 729;
},
{
layerId = "41EDA971-A137-4972-81AF-7929AB7CAABF";
shapes = (
{
closed = 1;
nodes = (
(615,-212,o),
(674,-141,o),
(674,14,cs),
(674,153,l),
(578,153,l),
(578,88,ls),
(578,21,o),
(545,-12,o),
(476,-12,cs),
(431,-12,o),
(390,1,o),
(354,27,c),
(311,-122,l),
(344,-182,o),
(397,-212,o),
(483,-212,cs)
);
},
{
ref = _N.alt;
}
);
width = 734;
},
{
associatedMasterId = "79167EE4-8C29-4BCE-A9E7-C1CFC4557E33";
background = {
anchors = (
{
name = bottom;
pos = (365,0);
},
{
name = top;
pos = (429,730);
}
);
};
layerId = "E2CE59EC-B3D0-4082-8558-C1B339E5E60A";
name = "19 mars 25 à 15:23";
shapes = (
{
closed = 1;
nodes = (
(609,-204,o),
(680,-156,o),
(680,-6,cs),
(680,730,l),
(648,730,l),
(648,36,l),
(675,45,l),
(160,730,l),
(97,730,l),
(97,0,l),
(129,0,l),
(129,717,l),
(102,717,l),
(675,-44,l),
(648,0,l),
(648,-110,o),
(602,-146,o),
(513,-146,cs),
(459,-146,o),
(406,-125,o),
(378,-93,c),
(363,-134,l),
(384,-171,o),
(434,-204,o),
(512,-204,cs)
);
}
);
width = 777;
},
{
associatedMasterId = "79167EE4-8C29-4BCE-A9E7-C1CFC4557E33";
background = {
anchors = (
{
name = bottom;
pos = (365,0);
},
{
name = top;
pos = (429,730);
}
);
};
layerId = "9A33B3C9-5E0C-4BFB-903C-3423D75C0084";
name = "31 mars 25 à 11:21";
shapes = (
{
ref = _N.alt;
},
{
closed = 1;
nodes = (
(576,-204,o),
(647,-149,o),
(647,24,cs),
(647,70,l),
(615,70,l),
(615,36,ls),
(615,-103,o),
(571,-146,o),
(480,-146,cs),
(426,-146,o),
(374,-127,o),
(348,-94,c),
(328,-132,l),
(356,-176,o),
(401,-204,o),
(479,-204,cs)
);
}
);
width = 729;
}
);
metricLeft = "=H";
metricRight = "=|U";
unicode = 330;
},
{
glyphname = O;
lastChange = "2025-03-31 11:51:41 +0000";
layers = (
{
anchors = (
{
name = bottom;
pos = (356,0);
},
{
name = ogonek;
pos = (413,0);
},
{
name = top;
pos = (356,730);
}
);
layerId = "79167EE4-8C29-4BCE-A9E7-C1CFC4557E33";
shapes = (
{
closed = 1;
nodes = (
(543,-8,o),
(666,133,o),
(666,365,cs),
(666,597,o),
(543,738,o),
(356,738,cs),
(169,738,o),
(46,597,o),
(46,365,cs),
(46,133,o),
(169,-8,o),
(356,-8,cs)
);
},
{
closed = 1;
nodes = (
(181,50,o),
(78,176,o),
(78,365,cs),
(78,553,o),
(181,676,o),
(356,676,cs),
(532,676,o),
(634,553,o),
(634,365,cs),
(634,176,o),
(532,50,o),
(356,50,cs)
);
}
);
width = 712;
},
{
anchors = (
{
name = bottom;
pos = (356,0);
},
{
name = ogonek;
pos = (421,0);
},
{
name = top;
pos = (356,730);
}
);
background = {
shapes = (
{
closed = 1;
nodes = (
(538,-16,o),
(680,88,o),
(680,365,cs),
(680,643,o),
(538,746,o),
(356,746,cs),
(173,746,o),
(32,643,o),
(32,365,cs),
(32,88,o),
(173,-16,o),
(356,-16,cs)
);
},
{
closed = 1;
nodes = (
(187,238,o),
(115,281,o),
(115,365,cs),
(115,449,o),
(187,492,o),
(356,492,cs),
(525,492,o),
(597,449,o),
(597,365,cs),
(597,281,o),
(525,238,o),
(356,238,cs)
);
},
{
closed = 1;
nodes = (
(173,746,o),
(32,642,o),
(32,365,cs),
(32,87,o),
(173,-16,o),
(356,-16,cs),
(538,-16,o),
(680,87,o),
(680,365,cs),
(680,642,o),
(538,746,o),
(356,746,cs)
);
},
{
closed = 1;
nodes = (
(525,492,o),
(597,449,o),
(597,365,cs),
(597,281,o),
(525,238,o),
(356,238,cs),
(187,238,o),
(115,281,o),
(115,365,cs),
(115,449,o),
(187,492,o),
(356,492,cs)
);
}
);
};
layerId = "41EDA971-A137-4972-81AF-7929AB7CAABF";
shapes = (
{
closed = 1;
nodes = (
(538,-16,o),
(680,88,o),
(680,365,cs),
(680,643,o),
(538,746,o),
(356,746,cs),
(173,746,o),
(32,643,o),
(32,365,cs),
(32,88,o),
(173,-16,o),
(356,-16,cs)
);
},
{
closed = 1;
nodes = (
(187,202,o),
(115,245,o),
(115,329,cs),
(115,413,o),
(187,456,o),
(356,456,cs),
(525,456,o),
(597,413,o),
(597,329,cs),
(597,245,o),
(525,202,o),
(356,202,cs)
);
}
);
width = 712;
},
{
anchors = (
{
name = ogonek;
pos = (427,0);
},
{
name = top;
pos = (370,730);
}
);
associatedMasterId = "79167EE4-8C29-4BCE-A9E7-C1CFC4557E33";
layerId = "CAC14B60-3C4A-4173-9306-D5B62EFC089C";
name = "16 déc. 24 à 12:52";
shapes = (
{
closed = 1;
nodes = (
(559,-8,o),
(683,133,o),
(683,365,cs),
(683,597,o),
(559,738,o),
(370,738,cs),
(180,738,o),
(56,597,o),
(56,365,cs),
(56,133,o),
(180,-8,o),
(370,-8,cs)
);
},
{
closed = 1;
nodes = (
(192,50,o),
(88,176,o),
(88,365,cs),
(88,553,o),
(192,676,o),
(370,676,cs),
(548,676,o),
(651,553,o),
(651,365,cs),
(651,176,o),
(548,50,o),
(370,50,cs)
);
}
);
width = 739;
},
{
anchors = (
{
name = ogonek;
pos = (417,0);
},
{
name = top;
pos = (353,730);
}
);
associatedMasterId = "41EDA971-A137-4972-81AF-7929AB7CAABF";
layerId = "0D2EAFBD-6171-4601-BCF0-438B0ED1E2D8";
name = "16 déc. 24 à 12:56";
shapes = (
{
closed = 1;
nodes = (
(534,-16,o),
(674,88,o),
(674,365,cs),
(674,643,o),
(534,746,o),
(353,746,cs),
(171,746,o),
(32,643,o),
(32,365,cs),
(32,88,o),
(171,-16,o),
(353,-16,cs)
);
},
{
closed = 1;
nodes = (
(185,202,o),
(115,245,o),
(115,329,cs),
(115,413,o),
(185,456,o),
(353,456,cs),
(521,456,o),
(591,413,o),
(591,329,cs),
(591,245,o),
(521,202,o),
(353,202,cs)
);
}
);
width = 706;
}
);
unicode = 79;
},
{
glyphname = OU;
lastChange = "2025-03-31 11:59:34 +0000";
layers = (
{
background = {
shapes = (
{
closed = 1;
nodes = (
(508,-8,o),
(622,72,o),
(622,212,cs),
(622,348,o),
(508,427,o),
(332,427,cs),
(157,427,o),
(42,348,o),
(42,212,cs),
(42,72,o),
(157,-8,o),
(332,-8,cs)
);
},
{
closed = 1;
nodes = (
(170,50,o),
(74,114,o),
(74,214,cs),
(74,314,o),
(170,377,o),
(332,377,cs),
(495,377,o),
(590,314,o),
(590,214,cs),
(590,114,o),
(495,50,o),
(332,50,cs)
);
},
{
closed = 1;
nodes = (
(485,377,o),
(599,427,o),
(599,570,cs),
(599,730,l),
(567,730,l),
(567,580,ls),
(567,465,o),
(485,427,o),
(335,427,cs),
(180,427,o),
(97,465,o),
(97,580,cs),
(97,730,l),
(65,730,l),
(65,571,ls),
(65,430,o),
(154,377,o),
(337,377,cs)
);
}
);
};
layerId = "79167EE4-8C29-4BCE-A9E7-C1CFC4557E33";
shapes = (
{
closed = 1;
nodes = (
(508,-8,o),
(622,72,o),
(622,212,cs),
(622,313,o),
(560,382,o),
(454,412,c),
(457,391,l),
(542,414,o),
(599,469,o),
(599,570,cs),
(599,730,l),
(567,730,l),
(567,580,ls),
(567,465,o),
(485,427,o),
(335,427,cs),
(180,427,o),
(97,465,o),
(97,580,cs),
(97,730,l),
(65,730,l),
(65,571,ls),
(65,469,o),
(113,413,o),
(207,390,c),
(207,411,l),
(105,382,o),
(42,312,o),
(42,212,cs),
(42,72,o),
(157,-8,o),
(332,-8,cs)
);
},
{
closed = 1;
nodes = (
(170,50,o),
(74,114,o),
(74,214,cs),
(74,314,o),
(170,377,o),
(332,377,cs),
(495,377,o),
(590,314,o),
(590,214,cs),
(590,114,o),
(495,50,o),
(332,50,cs)
);
}
);
userData = {
RMXScaler = {
height = 57.7;
weight = 32;
width = 93.2;
};
};
width = 664;
},
{
layerId = "41EDA971-A137-4972-81AF-7929AB7CAABF";
shapes = (
{
closed = 1;
nodes = (
(525,-16,o),
(659,48,o),
(659,227,cs),
(659,331,o),
(606,397,o),
(519,424,c),
(521,414,l),
(594,434,o),
(633,491,o),
(633,590,cs),
(633,730,l),
(537,730,l),
(537,650,ls),
(537,572,o),
(488,534,o),
(343,534,cs),
(197,534,o),
(144,572,o),
(144,650,cs),
(144,730,l),
(48,730,l),
(48,572,ls),
(48,481,o),
(88,431,o),
(157,414,c),
(159,424,l),
(74,395,o),
(22,327,o),
(22,222,cs),
(22,45,o),
(158,-16,o),
(340,-16,cs)
);
},
{
closed = 1;
nodes = (
(141,202,o),
(106,218,o),
(106,252,cs),
(106,286,o),
(144,302,o),
(340,302,cs),
(538,302,o),
(575,286,o),
(575,252,cs),
(575,218,o),
(540,202,o),
(340,202,cs)
);
}
);
userData = {
RMXScaler = {
height = 57.7;
weight = -320;
width = 93.2;
};
};
width = 681;
},
{
associatedMasterId = "79167EE4-8C29-4BCE-A9E7-C1CFC4557E33";
layerId = "EE202D9A-8D3F-46AD-A666-8341B1A0C8BC";
name = "19 mars 25 à 17:11";
userData = {
RMXScaler = {
height = 60;
width = 90;
};
};
width = 0;
},
{
associatedMasterId = "79167EE4-8C29-4BCE-A9E7-C1CFC4557E33";
background = {
shapes = (
{
closed = 1;
nodes = (
(508,-8,o),
(622,72,o),
(622,212,cs),
(622,348,o),
(508,427,o),
(332,427,cs),
(157,427,o),
(42,348,o),
(42,212,cs),
(42,72,o),
(157,-8,o),
(332,-8,cs)
);
},
{
closed = 1;
nodes = (
(170,50,o),
(74,114,o),
(74,214,cs),
(74,314,o),
(170,377,o),
(332,377,cs),
(495,377,o),
(590,314,o),
(590,214,cs),
(590,114,o),
(495,50,o),
(332,50,cs)
);
},
{
closed = 1;
nodes = (
(485,377,o),
(599,427,o),
(599,570,cs),
(599,730,l),
(567,730,l),
(567,580,ls),
(567,465,o),
(485,427,o),
(335,427,cs),
(180,427,o),
(97,465,o),
(97,580,cs),
(97,730,l),
(65,730,l),
(65,571,ls),
(65,430,o),
(154,377,o),
(337,377,cs)
);
}
);
};
layerId = "809E32E5-56EF-4E9F-885E-56F3DA8B6281";
name = "25 mars 25 à 14:23";
userData = {
RMXScaler = {
height = 60;
width = 90;
};
};
width = 0;
},
{
associatedMasterId = "79167EE4-8C29-4BCE-A9E7-C1CFC4557E33";
layerId = "7AC58EC7-62B2-4282-835E-DDC1AF39330A";
name = "25 mars 25 à 14:29";
shapes = (
{
closed = 1;
nodes = (
(508,-8,o),
(622,72,o),
(622,212,cs),
(622,348,o),
(508,427,o),
(332,427,cs),
(157,427,o),
(42,348,o),
(42,212,cs),
(42,72,o),
(157,-8,o),
(332,-8,cs)
);
},
{
closed = 1;
nodes = (
(170,50,o),
(74,114,o),
(74,214,cs),
(74,314,o),
(170,377,o),
(332,377,cs),
(495,377,o),
(590,314,o),
(590,214,cs),
(590,114,o),
(495,50,o),
(332,50,cs)
);
},
{
closed = 1;
nodes = (
(485,377,o),
(599,427,o),
(599,570,cs),
(599,730,l),
(567,730,l),
(567,580,ls),
(567,465,o),
(485,427,o),
(335,427,cs),
(180,427,o),
(97,465,o),
(97,580,cs),
(97,730,l),
(65,730,l),
(65,571,ls),
(65,430,o),
(154,377,o),
(337,377,cs)
);
}
);
userData = {
RMXScaler = {
height = 57.7;
weight = 32;
width = 93.2;
};
};
width = 663;
},
{
associatedMasterId = "79167EE4-8C29-4BCE-A9E7-C1CFC4557E33";
attr = {
coordinates = (
550
);
};
layerId = "EBCF572C-55E1-438B-AA94-071F3CF09B88";
name = "25 mars 25 à 14:34";
shapes = (
{
closed = 1;
nodes = (
(518,-12,o),
(643,59,o),
(643,220,cs),
(643,323,o),
(585,391,o),
(491,419,c),
(493,404,l),
(571,425,o),
(620,482,o),
(620,581,cs),
(619,730,l),
(551,730,l),
(552,604,ls),
(553,507,o),
(484,467,o),
(341,467,cs),
(196,467,o),
(123,506,o),
(123,604,cs),
(123,730,l),
(55,730,l),
(55,572,ls),
(55,476,o),
(100,423,o),
(179,404,c),
(180,418,l),
(88,389,o),
(31,320,o),
(31,218,cs),
(31,57,o),
(158,-12,o),
(337,-12,cs)
);
},
{
closed = 1;
nodes = (
(162,136,o),
(92,174,o),
(92,240,cs),
(92,306,o),
(163,345,o),
(337,345,cs),
(511,345,o),
(582,306,o),
(582,240,cs),
(582,174,o),
(512,136,o),
(337,136,cs)
);
}
);
userData = {
RMXScaler = {
height = 57.7;
weight = 32;
width = 93.2;
};
};
width = 674;
},
{
associatedMasterId = "41EDA971-A137-4972-81AF-7929AB7CAABF";
layerId = "8B3C9E52-0F0F-4785-9536-F374BE025289";
name = "31 mars 25 à 13:55";
shapes = (
{
closed = 1;
nodes = (
(525,-16,o),
(659,48,o),
(659,227,cs),
(659,331,o),
(606,397,o),
(519,424,c),
(521,414,l),
(595,434,o),
(637,491,o),
(636,590,cs),
(634,730,l),
(538,730,l),
(540,622,ls),
(542,527,o),
(483,482,o),
(345,482,cs),
(209,482,o),
(144,527,o),
(144,622,cs),
(144,730,l),
(48,730,l),
(48,572,ls),
(48,481,o),
(88,431,o),
(157,414,c),
(159,424,l),
(74,395,o),
(22,327,o),
(22,222,cs),
(22,45,o),
(158,-16,o),
(340,-16,cs)
);
},
{
closed = 1;
nodes = (
(155,202,o),
(106,223,o),
(106,268,cs),
(106,313,o),
(158,334,o),
(340,334,cs),
(524,334,o),
(575,313,o),
(575,268,cs),
(575,223,o),
(526,202,o),
(340,202,cs)
);
}
);
userData = {
RMXScaler = {
height = 57.7;
weight = -320;
width = 93.2;
};
};
width = 681;
}
);
metricLeft = "=o";
metricRight = "=o";
unicode = 546;
userData = {
RMXScaler = {
source = O;
};
};
},
{
glyphname = Ocenteredtilde;
lastChange = "2025-03-29 09:30:26 +0000";
layers = (
{
layerId = "79167EE4-8C29-4BCE-A9E7-C1CFC4557E33";
shapes = (
{
ref = O;
},
{
closed = 1;
nodes = (
(649,337,l),
(649,387,l),
(62,387,l),
(62,337,l)
);
}
);
width = 712;
},
{
layerId = "41EDA971-A137-4972-81AF-7929AB7CAABF";
shapes = (
{
ref = O;
},
{
closed = 1;
nodes = (
(649,279,l),
(649,379,l),
(62,379,l),
(62,279,l)
);
}
);
width = 712;
},
{
associatedMasterId = "79167EE4-8C29-4BCE-A9E7-C1CFC4557E33";
attr = {
coordinates = (
550
);
};
layerId = "73619FCD-45F6-47F9-B82B-F12146A4A656";
name = "25 mars 25 à 14:21";
shapes = (
{
alignment = -1;
ref = O;
},
{
closed = 1;
nodes = (
(649,301,l),
(649,387,l),
(62,387,l),
(62,301,l)
);
}
);
width = 712;
}
);
metricLeft = "=O";
metricRight = "=O";
unicode = 415;
},
{
glyphname = "Omega-latin";
lastChange = "2025-03-31 12:01:15 +0000";
layers = (
{
layerId = "79167EE4-8C29-4BCE-A9E7-C1CFC4557E33";
shapes = (
{
closed = 1;
nodes = (
(366,-8,o),
(429,45,o),
(452,156,c),
(440,156,l),
(461,47,o),
(531,-8,o),
(616,-8,cs),
(755,-8,o),
(863,140,o),
(863,340,cs),
(863,488,o),
(803,643,o),
(708,730,c),
(650,730,l),
(754,639,o),
(814,486,o),
(814,338,cs),
(814,165,o),
(732,50,o),
(613,50,cs),
(521,50,o),
(464,118,o),
(464,243,cs),
(464,467,l),
(432,467,l),
(432,243,ls),
(432,118,o),
(378,50,o),
(278,50,cs),
(158,50,o),
(84,149,o),
(84,324,cs),
(84,467,o),
(137,624,o),
(248,730,c),
(210,730,l),
(111,633,o),
(46,485,o),
(46,311,cs),
(46,109,o),
(132,-8,o),
(272,-8,cs)
);
}
);
width = 909;
},
{
background = {
shapes = (
{
closed = 1;
nodes = (
(338,-16,o),
(427,42,o),
(436,209,c),
(417,209,l),
(418,50,o),
(514,-16,o),
(644,-16,cs),
(818,-16,o),
(947,118,o),
(947,354,cs),
(947,507,o),
(871,666,o),
(789,730,c),
(532,730,l),
(648,623,o),
(706,494,o),
(706,366,cs),
(706,258,o),
(655,203,o),
(581,203,cs),
(503,203,o),
(468,255,o),
(468,332,cs),
(468,500,l),
(374,500,l),
(374,332,ls),
(374,254,o),
(339,203,o),
(261,203,cs),
(185,203,o),
(129,258,o),
(129,366,cs),
(129,475,o),
(174,607,o),
(311,730,c),
(217,730,l),
(110,626,o),
(36,476,o),
(36,305,cs),
(36,86,o),
(134,-16,o),
(261,-16,cs)
);
}
);
};
layerId = "41EDA971-A137-4972-81AF-7929AB7CAABF";
shapes = (
{
closed = 1;
nodes = (
(331,-16,o),
(423,42,o),
(432,209,c),
(406,209,l),
(407,50,o),
(508,-16,o),
(644,-16,cs),
(818,-16,o),
(947,118,o),
(947,354,cs),
(947,507,o),
(871,666,o),
(789,730,c),
(532,730,l),
(648,623,o),
(706,494,o),
(706,366,cs),
(706,258,o),
(655,203,o),
(581,203,cs),
(503,203,o),
(468,255,o),
(468,332,cs),
(468,500,l),
(374,500,l),
(374,332,ls),
(374,254,o),
(339,203,o),
(261,203,cs),
(186,203,o),
(131,258,o),
(131,373,cs),
(131,475,o),
(176,607,o),
(311,730,c),
(217,730,l),
(110,626,o),
(32,473,o),
(32,305,cs),
(32,88,o),
(128,-16,o),
(246,-16,cs)
);
}
);
width = 979;
},
{
associatedMasterId = "79167EE4-8C29-4BCE-A9E7-C1CFC4557E33";
background = {
shapes = (
{
pos = (-70,0);
ref = Mturned;
}
);
};
layerId = "501936D9-6EC5-4462-940A-82B29DBEA3A7";
name = "25 mars 25 à 14:40";
shapes = (
{
closed = 1;
nodes = (
(729,-8,o),
(833,140,o),
(833,340,cs),
(833,491,o),
(776,644,o),
(694,730,c),
(629,730,l),
(730,639,o),
(787,488,o),
(787,336,cs),
(787,165,o),
(706,50,o),
(603,50,cs),
(495,50,o),
(448,134,o),
(448,231,cs),
(448,467,l),
(416,467,l),
(416,236,ls),
(416,133,o),
(397,50,o),
(271,50,cs),
(148,50,o),
(78,147,o),
(78,326,cs),
(78,465,o),
(129,626,o),
(237,730,c),
(192,730,l),
(107,639,o),
(46,485,o),
(46,319,cs),
(46,101,o),
(125,-8,o),
(263,-8,cs),
(343,-8,o),
(405,38,o),
(437,141,c),
(423,114,l),
(437,53,o),
(505,-8,o),
(599,-8,cs)
);
}
);
width = 879;
},
{
associatedMasterId = "41EDA971-A137-4972-81AF-7929AB7CAABF";
background = {
shapes = (
{
closed = 0;
nodes = (
(212,730,l),
(101,623,o),
(30,488,o),
(33,292,cs),
(37,76,o),
(129,-16,o),
(253,-16,cs),
(341,-16,o),
(439,42,o),
(452,210,c),
(430,210,l),
(433,50,o),
(550,-16,o),
(673,-16,cs),
(849,-16,o),
(968,121,o),
(964,365,cs),
(961,522,o),
(902,666,o),
(816,730,c)
);
}
);
};
layerId = "651E9A5F-4821-4D61-94F2-6328D79568C6";
name = "25 mars 25 à 14:59";
shapes = (
{
closed = 1;
nodes = (
(329,-16,o),
(426,42,o),
(443,215,c),
(421,204,l),
(421,50,o),
(523,-16,o),
(656,-16,cs),
(842,-16,o),
(964,118,o),
(964,367,cs),
(964,518,o),
(907,665,o),
(823,730,c),
(571,730,l),
(692,613,o),
(732,492,o),
(732,371,cs),
(732,265,o),
(682,202,o),
(606,202,cs),
(519,202,o),
(486,259,o),
(486,335,cs),
(486,520,l),
(390,520,l),
(390,329,ls),
(390,249,o),
(351,202,o),
(269,202,cs),
(185,202,o),
(124,251,o),
(124,361,cs),
(124,455,o),
(175,601,o),
(328,730,c),
(219,730,l),
(106,623,o),
(32,488,o),
(32,295,cs),
(32,76,o),
(118,-16,o),
(241,-16,cs)
);
}
);
width = 996;
},
{
associatedMasterId = "41EDA971-A137-4972-81AF-7929AB7CAABF";
background = {
shapes = (
{
closed = 0;
nodes = (
(550,730,l),
(687,607,o),
(732,474,o),
(732,366,cs),
(732,258,o),
(677,203,o),
(597,203,cs),
(513,203,o),
(476,254,o),
(476,332,cs),
(476,520,l),
(380,520,l),
(380,332,ls),
(380,254,o),
(343,203,o),
(260,203,cs),
(180,203,o),
(124,258,o),
(124,366,cs),
(124,474,o),
(170,607,o),
(307,730,c)
);
}
);
};
layerId = "FDCDAF19-C01C-4103-867A-C75A39FEC8BC";
name = "25 mars 25 à 15:01";
shapes = (
{
closed = 1;
nodes = (
(340,-16,o),
(440,42,o),
(450,209,c),
(430,209,l),
(435,50,o),
(549,-16,o),
(673,-16,cs),
(848,-16,o),
(964,118,o),
(964,357,cs),
(964,519,o),
(902,666,o),
(816,730,c),
(571,730,l),
(692,613,o),
(732,492,o),
(732,371,cs),
(732,265,o),
(682,197,o),
(606,202,cs),
(521,208,o),
(486,259,o),
(486,335,cs),
(486,520,l),
(390,520,l),
(390,329,ls),
(390,249,o),
(351,202,o),
(269,202,cs),
(185,202,o),
(124,251,o),
(124,361,cs),
(124,455,o),
(175,601,o),
(328,730,c),
(212,730,l),
(99,621,o),
(33,488,o),
(33,305,cs),
(33,76,o),
(129,-16,o),
(253,-16,cs)
);
}
);
width = 996;
},
{
associatedMasterId = "41EDA971-A137-4972-81AF-7929AB7CAABF";
background = {
shapes = (
{
closed = 1;
nodes = (
(339,-16,o),
(439,42,o),
(449,209,c),
(429,209,l),
(434,50,o),
(548,-16,o),
(672,-16,cs),
(847,-16,o),
(963,118,o),
(963,357,cs),
(963,519,o),
(901,666,o),
(815,730,c),
(549,730,l),
(686,607,o),
(731,474,o),
(731,366,cs),
(731,258,o),
(676,203,o),
(596,203,cs),
(512,203,o),
(475,254,o),
(475,332,cs),
(475,520,l),
(379,520,l),
(379,332,ls),
(379,254,o),
(342,203,o),
(259,203,cs),
(179,203,o),
(123,258,o),
(123,366,cs),
(123,474,o),
(169,607,o),
(306,730,c),
(211,730,l),
(98,621,o),
(32,488,o),
(32,305,cs),
(32,76,o),
(128,-16,o),
(252,-16,cs)
);
}
);
};
layerId = "6A22FB1D-66A0-47A9-A653-62480DDB9E2E";
name = "25 mars 25 à 15:03";
shapes = (
{
closed = 1;
nodes = (
(339,-16,o),
(439,42,o),
(449,209,c),
(429,209,l),
(434,50,o),
(548,-16,o),
(672,-16,cs),
(847,-16,o),
(963,118,o),
(963,357,cs),
(963,509,o),
(894,666,o),
(808,730,c),
(549,730,l),
(686,607,o),
(731,474,o),
(731,366,cs),
(731,258,o),
(676,203,o),
(596,203,cs),
(512,203,o),
(475,254,o),
(475,332,cs),
(475,520,l),
(379,520,l),
(379,332,ls),
(379,254,o),
(342,203,o),
(259,203,cs),
(179,203,o),
(123,258,o),
(123,366,cs),
(123,474,o),
(169,607,o),
(306,730,c),
(211,730,l),
(98,621,o),
(32,488,o),
(32,305,cs),
(32,76,o),
(128,-16,o),
(252,-16,cs)
);
}
);
width = 995;
},
{
associatedMasterId = "41EDA971-A137-4972-81AF-7929AB7CAABF";
background = {
shapes = (
{
closed = 1;
nodes = (
(339,-16,o),
(439,42,o),
(449,209,c),
(429,209,l),
(434,50,o),
(548,-16,o),
(672,-16,cs),
(847,-16,o),
(963,118,o),
(963,357,cs),
(963,519,o),
(901,666,o),
(815,730,c),
(549,730,l),
(686,607,o),
(731,474,o),
(731,366,cs),
(731,258,o),
(676,203,o),
(596,203,cs),
(512,203,o),
(475,254,o),
(475,332,cs),
(475,520,l),
(379,520,l),
(379,332,ls),
(379,254,o),
(342,203,o),
(259,203,cs),
(179,203,o),
(123,258,o),
(123,366,cs),
(123,474,o),
(169,607,o),
(306,730,c),
(211,730,l),
(98,621,o),
(32,488,o),
(32,305,cs),
(32,76,o),
(128,-16,o),
(252,-16,cs)
);
}
);
};
layerId = "8B9398DD-B065-4E33-ABEF-8A99BC6DB29B";
name = "25 mars 25 à 15:03";
shapes = (
{
closed = 1;
nodes = (
(339,-16,o),
(439,42,o),
(449,209,c),
(429,209,l),
(434,50,o),
(548,-16,o),
(672,-16,cs),
(847,-16,o),
(963,118,o),
(963,357,cs),
(963,509,o),
(894,666,o),
(808,730,c),
(549,730,l),
(686,607,o),
(731,474,o),
(731,366,cs),
(731,258,o),
(676,203,o),
(596,203,cs),
(512,203,o),
(475,254,o),
(475,332,cs),
(475,520,l),
(379,520,l),
(379,332,ls),
(379,254,o),
(342,203,o),
(259,203,cs),
(179,203,o),
(123,258,o),
(123,366,cs),
(123,474,o),
(169,607,o),
(306,730,c),
(211,730,l),
(98,621,o),
(32,488,o),
(32,305,cs),
(32,76,o),
(128,-16,o),
(252,-16,cs)
);
}
);
width = 995;
},
{
associatedMasterId = "79167EE4-8C29-4BCE-A9E7-C1CFC4557E33";
background = {
shapes = (
{
closed = 1;
nodes = (
(731,-8,o),
(835,140,o),
(835,340,cs),
(835,491,o),
(778,644,o),
(696,730,c),
(631,730,l),
(732,639,o),
(789,488,o),
(789,336,cs),
(789,165,o),
(708,50,o),
(605,50,cs),
(497,50,o),
(450,129,o),
(450,246,cs),
(450,467,l),
(418,467,l),
(418,256,ls),
(418,153,o),
(399,50,o),
(273,50,cs),
(150,50,o),
(80,147,o),
(80,326,cs),
(80,465,o),
(131,626,o),
(239,730,c),
(194,730,l),
(109,639,o),
(48,485,o),
(48,319,cs),
(48,101,o),
(127,-8,o),
(265,-8,cs),
(345,-8,o),
(409,33,o),
(441,156,c),
(427,156,l),
(443,48,o),
(507,-8,o),
(601,-8,cs)
);
}
);
};
layerId = "BE6BE582-7E57-4893-9B67-A96E3AC87AA0";
name = "25 mars 25 à 15:05";
shapes = (
{
closed = 1;
nodes = (
(345,-8,o),
(411,41,o),
(439,156,c),
(427,156,l),
(443,48,o),
(507,-8,o),
(601,-8,cs),
(732,-8,o),
(837,140,o),
(837,340,cs),
(837,491,o),
(778,646,o),
(688,730,c),
(631,730,l),
(732,639,o),
(789,488,o),
(789,336,cs),
(789,165,o),
(708,50,o),
(605,50,cs),
(497,50,o),
(450,129,o),
(450,246,cs),
(450,467,l),
(418,467,l),
(418,240,ls),
(418,107,o),
(360,50,o),
(273,50,cs),
(150,50,o),
(80,147,o),
(80,326,cs),
(80,465,o),
(131,626,o),
(239,730,c),
(202,730,l),
(109,639,o),
(46,485,o),
(46,319,cs),
(46,101,o),
(126,-8,o),
(265,-8,cs)
);
}
);
width = 883;
},
{
associatedMasterId = "79167EE4-8C29-4BCE-A9E7-C1CFC4557E33";
background = {
shapes = (
{
closed = 1;
nodes = (
(272,-8,l),
(362,-8,o),
(428,45,o),
(450,156,c),
(438,156,l),
(461,45,o),
(527,-8,o),
(616,-8,c),
(614,50,l),
(515,50,o),
(460,118,o),
(460,243,cs),
(460,467,l),
(428,467,l),
(428,243,ls),
(428,118,o),
(374,50,o),
(274,50,c)
);
}
);
};
layerId = "35B92408-DCD8-4EE7-88C1-87E7C959977B";
name = "27 mars 25 à 10:40";
shapes = (
{
closed = 1;
nodes = (
(354,-8,o),
(420,41,o),
(449,156,c),
(437,156,l),
(453,48,o),
(519,-8,o),
(615,-8,cs),
(749,-8,o),
(857,140,o),
(857,340,cs),
(857,488,o),
(799,643,o),
(704,730,c),
(646,730,l),
(750,639,o),
(808,487,o),
(808,336,cs),
(808,165,o),
(725,50,o),
(619,50,cs),
(509,50,o),
(460,129,o),
(460,246,cs),
(460,467,l),
(428,467,l),
(428,240,ls),
(428,107,o),
(368,50,o),
(279,50,cs),
(153,50,o),
(81,147,o),
(81,326,cs),
(81,465,o),
(133,626,o),
(244,730,c),
(206,730,l),
(111,639,o),
(46,486,o),
(46,319,cs),
(46,101,o),
(128,-8,o),
(271,-8,cs)
);
}
);
width = 903;
},
{
associatedMasterId = "41EDA971-A137-4972-81AF-7929AB7CAABF";
layerId = "852657C5-DC3D-4994-901D-4A3D5DD9C7B8";
name = "27 mars 25 à 10:42";
shapes = (
{
closed = 1;
nodes = (
(324,-16,o),
(420,42,o),
(429,209,c),
(410,209,l),
(413,50,o),
(526,-16,o),
(644,-16,cs),
(812,-16,o),
(933,118,o),
(933,357,cs),
(933,507,o),
(857,666,o),
(775,730,c),
(518,730,l),
(634,623,o),
(692,494,o),
(692,366,cs),
(692,258,o),
(641,203,o),
(567,203,cs),
(489,203,o),
(454,255,o),
(454,332,cs),
(454,500,l),
(360,500,l),
(360,332,ls),
(360,254,o),
(325,203,o),
(247,203,cs),
(175,203,o),
(122,258,o),
(122,366,cs),
(122,475,o),
(165,607,o),
(297,730,c),
(203,730,l),
(95,621,o),
(32,488,o),
(32,305,cs),
(32,76,o),
(124,-16,o),
(241,-16,cs)
);
}
);
width = 965;
},
{
associatedMasterId = "41EDA971-A137-4972-81AF-7929AB7CAABF";
layerId = "E55932C4-ED61-45A9-9733-9193693308A1";
name = "27 mars 25 à 14:47";
shapes = (
{
closed = 1;
nodes = (
(324,-16,o),
(420,42,o),
(429,209,c),
(410,209,l),
(413,50,o),
(510,-16,o),
(629,-16,cs),
(800,-16,o),
(940,118,o),
(940,357,cs),
(940,507,o),
(864,666,o),
(782,730,c),
(525,730,l),
(641,623,o),
(699,494,o),
(699,366,cs),
(699,258,o),
(648,203,o),
(574,203,cs),
(496,203,o),
(461,255,o),
(461,332,cs),
(461,500,l),
(367,500,l),
(367,332,ls),
(367,254,o),
(332,203,o),
(254,203,cs),
(178,203,o),
(122,258,o),
(122,366,cs),
(122,475,o),
(167,607,o),
(304,730,c),
(210,730,l),
(98,621,o),
(32,488,o),
(32,305,cs),
(32,76,o),
(124,-16,o),
(241,-16,cs)
);
}
);
width = 972;
},
{
associatedMasterId = "41EDA971-A137-4972-81AF-7929AB7CAABF";
background = {
shapes = (
{
closed = 1;
nodes = (
(332,-16,o),
(419,39,o),
(429,209,c),
(410,209,l),
(413,40,o),
(515,-16,o),
(638,-16,cs),
(813,-16,o),
(940,122,o),
(940,348,cs),
(940,510,o),
(867,661,o),
(782,730,c),
(210,730,l),
(98,621,o),
(32,469,o),
(32,301,cs),
(32,85,o),
(129,-16,o),
(250,-16,cs)
);
}
);
};
layerId = "2E875E05-6BA8-4DBD-8F71-4ED1177BCAF0";
name = "27 mars 25 à 14:48";
shapes = (
{
closed = 1;
nodes = (
(324,-16,o),
(420,42,o),
(429,209,c),
(410,209,l),
(413,50,o),
(510,-16,o),
(629,-16,cs),
(800,-16,o),
(940,118,o),
(940,357,cs),
(940,507,o),
(864,666,o),
(782,730,c),
(525,730,l),
(641,623,o),
(699,494,o),
(699,366,cs),
(699,258,o),
(648,203,o),
(574,203,cs),
(496,203,o),
(461,255,o),
(461,332,cs),
(461,500,l),
(367,500,l),
(367,332,ls),
(367,254,o),
(332,203,o),
(254,203,cs),
(178,203,o),
(122,258,o),
(122,366,cs),
(122,475,o),
(167,607,o),
(304,730,c),
(210,730,l),
(98,621,o),
(32,488,o),
(32,305,cs),
(32,76,o),
(124,-16,o),
(241,-16,cs)
);
}
);
width = 972;
},
{
associatedMasterId = "79167EE4-8C29-4BCE-A9E7-C1CFC4557E33";
background = {
shapes = (
{
closed = 1;
nodes = (
(365,-8,o),
(429,45,o),
(451,156,c),
(439,156,l),
(461,47,o),
(530,-8,o),
(614,-8,cs),
(753,-8,o),
(859,140,o),
(859,340,cs),
(859,488,o),
(801,643,o),
(706,730,c),
(648,730,l),
(752,639,o),
(810,486,o),
(810,338,cs),
(810,165,o),
(730,50,o),
(611,50,cs),
(519,50,o),
(462,118,o),
(462,243,cs),
(462,467,l),
(430,467,l),
(430,243,ls),
(430,118,o),
(376,50,o),
(276,50,cs),
(155,50,o),
(83,149,o),
(83,322,cs),
(83,467,o),
(134,624,o),
(246,730,c),
(208,730,l),
(109,633,o),
(48,487,o),
(48,311,cs),
(48,107,o),
(130,-8,o),
(270,-8,cs)
);
}
);
};
layerId = "052F0A4C-DE75-4F2C-94EA-7237E523A91C";
name = "31 mars 25 à 11:22";
shapes = (
{
closed = 1;
nodes = (
(365,-8,o),
(429,45,o),
(451,156,c),
(439,156,l),
(461,47,o),
(530,-8,o),
(614,-8,cs),
(753,-8,o),
(861,140,o),
(861,340,cs),
(861,488,o),
(801,643,o),
(706,730,c),
(648,730,l),
(752,639,o),
(812,486,o),
(812,338,cs),
(812,165,o),
(730,50,o),
(611,50,cs),
(519,50,o),
(462,118,o),
(462,243,cs),
(462,467,l),
(430,467,l),
(430,243,ls),
(430,118,o),
(376,50,o),
(276,50,cs),
(155,50,o),
(81,149,o),
(81,322,cs),
(81,467,o),
(134,624,o),
(246,730,c),
(208,730,l),
(109,633,o),
(46,487,o),
(46,311,cs),
(46,107,o),
(130,-8,o),
(270,-8,cs)
);
}
);
width = 907;
},
{
associatedMasterId = "41EDA971-A137-4972-81AF-7929AB7CAABF";
background = {
shapes = (
{
closed = 1;
nodes = (
(335,-16,o),
(422,39,o),
(432,209,c),
(413,209,l),
(416,40,o),
(518,-16,o),
(641,-16,cs),
(816,-16,o),
(943,122,o),
(943,348,cs),
(943,510,o),
(870,661,o),
(785,730,c),
(213,730,l),
(101,621,o),
(35,469,o),
(35,301,cs),
(35,85,o),
(132,-16,o),
(253,-16,cs)
);
}
);
};
layerId = "8BFC12ED-01E5-4D5B-9ACA-F7F468C0C6AA";
name = "31 mars 25 à 13:59";
shapes = (
{
closed = 1;
nodes = (
(334,-16,o),
(423,42,o),
(432,209,c),
(413,209,l),
(414,50,o),
(510,-16,o),
(640,-16,cs),
(814,-16,o),
(943,118,o),
(943,354,cs),
(943,507,o),
(867,666,o),
(785,730,c),
(528,730,l),
(644,623,o),
(702,494,o),
(702,366,cs),
(702,258,o),
(651,203,o),
(577,203,cs),
(499,203,o),
(464,255,o),
(464,332,cs),
(464,500,l),
(370,500,l),
(370,332,ls),
(370,254,o),
(335,203,o),
(257,203,cs),
(181,203,o),
(125,258,o),
(125,366,cs),
(125,475,o),
(170,607,o),
(307,730,c),
(213,730,l),
(106,626,o),
(32,476,o),
(32,305,cs),
(32,86,o),
(130,-16,o),
(257,-16,cs)
);
}
);
width = 975;
}
);
metricLeft = O;
metricRight = O;
unicode = 42934;
},
{
glyphname = Oopen;
lastChange = "2025-04-02 09:46:49 +0000";
layers = (
{
layerId = "79167EE4-8C29-4BCE-A9E7-C1CFC4557E33";
shapes = (
{
closed = 1;
nodes = (
(497,-8,o),
(612,134,o),
(612,365,cs),
(612,596,o),
(511,738,o),
(301,738,cs),
(183,738,o),
(85,686,o),
(42,622,c),
(62,586,l),
(108,640,o),
(211,677,o),
(295,676,cs),
(486,674,o),
(580,565,o),
(580,365,cs),
(580,163,o),
(474,52,o),
(290,50,cs),
(191,49,o),
(96,87,o),
(50,144,c),
(30,106,l),
(72,44,o),
(156,-8,o),
(291,-8,cs)
);
}
);
width = 658;
},
{
layerId = "41EDA971-A137-4972-81AF-7929AB7CAABF";
shapes = (
{
closed = 1;
nodes = (
(480,-15,o),
(617,93,o),
(617,362,cs),
(617,647,o),
(494,746,o),
(301,746,cs),
(170,746,o),
(66,698,o),
(14,613,c),
(66,395,l),
(120,435,o),
(198,456,o),
(306,456,cs),
(467,456,o),
(534,413,o),
(534,332,cs),
(534,244,o),
(460,203,o),
(292,203,cs),
(189,203,o),
(118,223,o),
(56,265,c),
(10,110,l),
(57,34,o),
(145,-15,o),
(288,-15,cs)
);
}
);
width = 649;
},
{
associatedMasterId = "79167EE4-8C29-4BCE-A9E7-C1CFC4557E33";
layerId = "4C5FD5A3-5858-4687-9DF6-B0DFC46709A6";
name = "31 mars 25 à 11:23";
shapes = (
{
closed = 1;
nodes = (
(493,-8,o),
(608,134,o),
(608,365,cs),
(608,596,o),
(505,738,o),
(286,738,cs),
(171,738,o),
(76,686,o),
(34,622,c),
(54,586,l),
(100,640,o),
(205,677,o),
(285,676,cs),
(481,675,o),
(576,565,o),
(576,365,cs),
(576,163,o),
(470,51,o),
(286,50,cs),
(191,49,o),
(96,87,o),
(50,144,c),
(30,106,l),
(72,44,o),
(156,-8,o),
(287,-8,cs)
);
}
);
width = 654;
}
);
metricLeft = "=|C";
metricRight = "=O";
unicode = 390;
},
{
glyphname = Oslash;
lastChange = "2025-03-29 09:30:26 +0000";
layers = (
{
background = {
shapes = (
{
alignment = -1;
ref = O;
},
{
closed = 1;
nodes = (
(647,728,l),
(613,753,l),
(64,2,l),
(99,-22,l)
);
}
);
};
layerId = "79167EE4-8C29-4BCE-A9E7-C1CFC4557E33";
shapes = (
{
closed = 1;
nodes = (
(640,718,l),
(606,743,l),
(71,12,l),
(106,-12,l)
);
},
{
alignment = -1;
ref = O;
}
);
width = 712;
},
{
layerId = "41EDA971-A137-4972-81AF-7929AB7CAABF";
shapes = (
{
closed = 1;
nodes = (
(676,685,l),
(605,746,l),
(35,45,l),
(106,-16,l)
);
},
{
alignment = -1;
ref = O;
}
);
width = 712;
},
{
associatedMasterId = "41EDA971-A137-4972-81AF-7929AB7CAABF";
layerId = "44D1FD99-37B6-4924-89FC-BF0CB823339B";
name = "15 déc. 24 à 14:26";
shapes = (
{
closed = 1;
nodes = (
(669,676,l),
(567,762,l),
(8,53,l),
(107,-34,l)
);
},
{
alignment = -1;
ref = O;
}
);
width = 698;
},
{
associatedMasterId = "41EDA971-A137-4972-81AF-7929AB7CAABF";
layerId = "4846C9DB-2C53-4448-8B5E-93BC228FC9D2";
name = "23 janv. 25 à 11:57";
shapes = (
{
closed = 1;
nodes = (
(663,682,l),
(586,746,l),
(12,50,l),
(87,-16,l)
);
},
{
alignment = -1;
ref = O;
}
);
width = 698;
},
{
associatedMasterId = "79167EE4-8C29-4BCE-A9E7-C1CFC4557E33";
layerId = "DFF6C235-D81F-4F73-B41D-AF79894556E0";
name = "27 févr. 25 à 11:09";
shapes = (
{
closed = 1;
nodes = (
(684,706,l),
(651,738,l),
(27,24,l),
(60,-8,l)
);
},
{
alignment = -1;
ref = O;
}
);
width = 712;
},
{
associatedMasterId = "79167EE4-8C29-4BCE-A9E7-C1CFC4557E33";
background = {
shapes = (
{
closed = 1;
nodes = (
(620,757,l),
(584,780,l),
(85,-27,l),
(121,-50,l)
);
}
);
};
layerId = "7D7ED9AD-15DC-4951-A1CD-D91A9BB22313";
name = "19 mars 25 à 14:01";
shapes = (
{
closed = 1;
nodes = (
(683,710,l),
(651,738,l),
(28,20,l),
(60,-8,l)
);
},
{
alignment = -1;
ref = O;
}
);
width = 712;
},
{
associatedMasterId = "79167EE4-8C29-4BCE-A9E7-C1CFC4557E33";
layerId = "3E92D689-486D-4C29-AD17-C79C09C72691";
name = "19 mars 25 à 14:06";
shapes = (
{
closed = 1;
nodes = (
(671,755,l),
(636,780,l),
(39,-24,l),
(73,-50,l)
);
},
{
alignment = -1;
ref = O;
}
);
width = 712;
},
{
associatedMasterId = "79167EE4-8C29-4BCE-A9E7-C1CFC4557E33";
layerId = "2DDF9130-8707-46B4-AD0E-14B9E48D6C37";
name = "19 mars 25 à 14:08";
shapes = (
{
closed = 1;
nodes = (
(671,755,l),
(636,780,l),
(39,-24,l),
(73,-50,l)
);
},
{
alignment = -1;
ref = O;
}
);
width = 712;
},
{
associatedMasterId = "79167EE4-8C29-4BCE-A9E7-C1CFC4557E33";
layerId = "5CA42740-1534-407A-A878-5E0564A793DC";
name = "19 mars 25 à 14:10";
shapes = (
{
alignment = -1;
ref = O;
},
{
closed = 1;
nodes = (
(543,772,l),
(496,772,l),
(170,-43,l),
(217,-43,l)
);
}
);
width = 712;
}
);
metricLeft = "=O@365";
metricRight = "=O@365";
unicode = 216;
},
{
glyphname = OE;
lastChange = "2025-03-29 09:30:26 +0000";
layers = (
{
background = {
shapes = (
{
closed = 1;
nodes = (
(366,730,l),
(173,730,o),
(46,595,o),
(46,365,cs),
(46,135,o),
(173,0,o),
(366,0,c),
(366,54,l),
(185,54,o),
(78,175,o),
(78,365,cs),
(78,554,o),
(185,672,o),
(366,672,c)
);
}
);
};
layerId = "79167EE4-8C29-4BCE-A9E7-C1CFC4557E33";
name = Light;
shapes = (
{
closed = 1;
nodes = (
(531,0,l),
(531,54,l),
(399,54,ls),
(194,54,o),
(78,159,o),
(78,363,cs),
(78,577,o),
(197,672,o),
(401,672,cs),
(531,672,l),
(531,730,l),
(396,730,ls),
(171,730,o),
(46,601,o),
(46,365,cs),
(46,139,o),
(161,0,o),
(396,0,cs)
);
},
{
alignment = -1;
pos = (411,0);
ref = E;
}
);
width = 1006;
},
{
layerId = "41EDA971-A137-4972-81AF-7929AB7CAABF";
name = Light;
shapes = (
{
closed = 1;
nodes = (
(490,0,l),
(490,208,l),
(278,208,ls),
(161,208,o),
(115,254,o),
(115,332,cs),
(115,411,o),
(161,450,o),
(279,450,cs),
(478,450,l),
(478,730,l),
(341,730,ls),
(167,730,o),
(32,631,o),
(32,365,cs),
(32,100,o),
(167,0,o),
(341,0,cs)
);
},
{
alignment = -1;
pos = (361,0);
ref = E;
}
);
width = 959;
}
);
metricLeft = "=O";
metricRight = "=E";
unicode = 338;
},
{
glyphname = P;
lastChange = "2025-03-29 09:30:26 +0000";
layers = (
{
anchors = (
{
name = hookleft;
pos = (97,730);
},
{
name = top;
pos = (347,730);
}
);
layerId = "79167EE4-8C29-4BCE-A9E7-C1CFC4557E33";
shapes = (
{
closed = 1;
nodes = (
(363,283,ls),
(521,283,o),
(606,369,o),
(606,507,cs),
(606,651,o),
(532,730,o),
(364,730,cs),
(113,730,l),
(113,672,l),
(365,672,ls),
(519,672,o),
(574,607,o),
(574,504,cs),
(574,400,o),
(511,337,o),
(357,337,cs),
(118,337,l),
(118,283,l)
);
},
{
closed = 1;
nodes = (
(129,0,l),
(129,730,l),
(97,730,l),
(97,0,l)
);
}
);
width = 635;
},
{
anchors = (
{
name = hookleft;
pos = (70,730);
},
{
name = top;
pos = (322,730);
}
);
background = {
shapes = (
{
closed = 1;
nodes = (
(339,132,ls),
(522,132,o),
(620,205,o),
(620,424,cs),
(620,666,o),
(518,730,o),
(349,730,cs),
(124,730,l),
(124,435,l),
(480,435,ls),
(518,435,o),
(538,421,o),
(538,396,cs),
(538,367,o),
(523,352,o),
(480,352,cs),
(139,352,l),
(139,132,l)
);
},
{
closed = 1;
nodes = (
(166,0,l),
(166,730,l),
(70,730,l),
(70,0,l)
);
}
);
};
layerId = "41EDA971-A137-4972-81AF-7929AB7CAABF";
shapes = (
{
closed = 1;
nodes = (
(329,132,ls),
(522,132,o),
(620,203,o),
(620,434,cs),
(620,650,o),
(537,730,o),
(329,730,cs),
(124,730,l),
(124,435,l),
(479,435,ls),
(517,435,o),
(537,421,o),
(537,396,cs),
(537,367,o),
(522,352,o),
(479,352,cs),
(139,352,l),
(139,132,l)
);
},
{
closed = 1;
nodes = (
(166,0,l),
(166,730,l),
(70,730,l),
(70,0,l)
);
}
);
width = 636;
},
{
associatedMasterId = "79167EE4-8C29-4BCE-A9E7-C1CFC4557E33";
background = {
shapes = (
{
closed = 1;
nodes = (
(368,283,ls),
(551,283,o),
(612,405,o),
(612,506,cs),
(612,651,o),
(541,730,o),
(370,730,cs),
(118,730,l),
(118,672,l),
(372,672,ls),
(522,672,o),
(579,605,o),
(579,503,cs),
(579,402,o),
(511,337,o),
(360,337,cs),
(124,337,l),
(124,283,l)
);
},
{
closed = 1;
nodes = (
(135,0,l),
(135,730,l),
(103,730,l),
(103,0,l)
);
}
);
};
layerId = "620D940D-90B8-4D7E-9573-AFC71775D80A";
name = "12 déc. 24 à 15:11";
shapes = (
{
closed = 1;
nodes = (
(368,283,ls),
(519,283,o),
(612,373,o),
(612,506,cs),
(612,651,o),
(541,730,o),
(370,730,cs),
(118,730,l),
(118,672,l),
(372,672,ls),
(522,672,o),
(579,605,o),
(579,503,cs),
(579,402,o),
(511,337,o),
(360,337,cs),
(124,337,l),
(124,283,l)
);
},
{
closed = 1;
nodes = (
(135,0,l),
(135,730,l),
(103,730,l),
(103,0,l)
);
}
);
width = 641;
},
{
associatedMasterId = "41EDA971-A137-4972-81AF-7929AB7CAABF";
layerId = "2F0C0C65-C7BB-46B9-B267-EFF9FB9A22FA";
name = "12 déc. 24 à 16:27";
shapes = (
{
closed = 1;
nodes = (
(339,132,ls),
(522,132,o),
(620,205,o),
(620,424,cs),
(620,666,o),
(518,730,o),
(349,730,cs),
(124,730,l),
(124,435,l),
(480,435,ls),
(518,435,o),
(538,421,o),
(538,396,cs),
(538,367,o),
(523,352,o),
(480,352,cs),
(139,352,l),
(139,132,l)
);
},
{
closed = 1;
nodes = (
(166,0,l),
(166,730,l),
(70,730,l),
(70,0,l)
);
}
);
width = 636;
}
);
metricLeft = "=H";
unicode = 80;
},
{
glyphname = Thorn;
lastChange = "2025-03-29 09:30:26 +0000";
layers = (
{
layerId = "79167EE4-8C29-4BCE-A9E7-C1CFC4557E33";
shapes = (
{
closed = 1;
nodes = (
(362,142,ls),
(513,142,o),
(606,232,o),
(606,365,cs),
(606,510,o),
(535,589,o),
(364,589,cs),
(115,589,l),
(115,531,l),
(366,531,ls),
(516,531,o),
(573,464,o),
(573,362,cs),
(573,261,o),
(505,196,o),
(354,196,cs),
(115,196,l),
(115,142,l)
);
},
{
closed = 1;
nodes = (
(129,0,l),
(129,730,l),
(97,730,l),
(97,0,l)
);
}
);
width = 635;
},
{
layerId = "41EDA971-A137-4972-81AF-7929AB7CAABF";
shapes = (
{
closed = 1;
nodes = (
(338,66,ls),
(521,66,o),
(619,140,o),
(619,357,cs),
(619,599,o),
(517,664,o),
(348,664,cs),
(124,664,l),
(124,369,l),
(480,369,ls),
(519,369,o),
(539,358,o),
(541,335,cs),
(544,302,o),
(524,285,o),
(480,285,cs),
(138,285,l),
(138,66,l)
);
},
{
closed = 1;
nodes = (
(166,0,l),
(166,730,l),
(70,730,l),
(70,0,l)
);
}
);
width = 635;
}
);
metricLeft = "=P";
metricRight = "=P";
unicode = 222;
},
{
glyphname = Pstroke;
lastChange = "2025-03-29 09:30:26 +0000";
layers = (
{
layerId = "79167EE4-8C29-4BCE-A9E7-C1CFC4557E33";
shapes = (
{
closed = 1;
nodes = (
(363,283,ls),
(521,283,o),
(606,369,o),
(606,507,cs),
(606,651,o),
(532,730,o),
(364,730,cs),
(113,730,l),
(113,672,l),
(365,672,ls),
(519,672,o),
(574,607,o),
(574,504,cs),
(574,400,o),
(511,337,o),
(357,337,cs),
(118,337,l),
(118,283,l)
);
},
{
closed = 1;
nodes = (
(129,0,l),
(129,730,l),
(97,730,l),
(97,0,l)
);
},
{
closed = 1;
nodes = (
(331,483,l),
(331,529,l),
(29,529,l),
(29,483,l)
);
}
);
width = 635;
},
{
layerId = "41EDA971-A137-4972-81AF-7929AB7CAABF";
shapes = (
{
closed = 1;
nodes = (
(338,132,ls),
(531,132,o),
(629,203,o),
(629,434,cs),
(629,650,o),
(546,730,o),
(338,730,cs),
(133,730,l),
(133,457,l),
(462,457,ls),
(520,457,o),
(546,435,o),
(546,395,cs),
(546,352,o),
(527,329,o),
(462,329,cs),
(148,329,l),
(148,132,l)
);
},
{
closed = 1;
nodes = (
(175,0,l),
(175,730,l),
(79,730,l),
(79,0,l)
);
},
{
closed = 1;
nodes = (
(365,352,l),
(365,434,l),
(0,434,l),
(0,352,l)
);
}
);
width = 645;
},
{
associatedMasterId = "79167EE4-8C29-4BCE-A9E7-C1CFC4557E33";
attr = {
coordinates = (
550
);
};
background = {
anchors = (
{
name = hookleft;
pos = (82,730);
},
{
name = top;
pos = (333,730);
}
);
shapes = (
{
closed = 1;
nodes = (
(344,198,ls),
(522,198,o),
(614,276,o),
(614,466,cs),
(614,650,o),
(535,730,o),
(344,730,cs),
(119,730,l),
(119,539,l),
(429,539,ls),
(518,539,o),
(553,502,o),
(553,443,cs),
(553,381,o),
(517,345,o),
(426,345,cs),
(130,345,l),
(130,198,l)
);
},
{
closed = 1;
nodes = (
(150,0,l),
(150,730,l),
(82,730,l),
(82,0,l)
);
}
);
};
layerId = "56CED429-A1C9-4D6A-B014-E96ECAE0ECB8";
name = "24 mars 25 à 12:30";
shapes = (
{
closed = 1;
nodes = (
(344,198,ls),
(522,198,o),
(614,276,o),
(614,466,cs),
(614,650,o),
(535,730,o),
(344,730,cs),
(119,730,l),
(119,539,l),
(429,539,ls),
(518,539,o),
(553,502,o),
(553,443,cs),
(553,381,o),
(517,345,o),
(426,345,cs),
(130,345,l),
(130,198,l)
);
},
{
closed = 1;
nodes = (
(150,0,l),
(150,730,l),
(82,730,l),
(82,0,l)
);
},
{
closed = 1;
nodes = (
(345,399,l),
(345,485,l),
(8,485,l),
(8,399,l)
);
}
);
width = 636;
}
);
metricRight = "=P";
unicode = 11363;
},
{
glyphname = Q;
lastChange = "2025-03-29 09:30:26 +0000";
layers = (
{
layerId = "79167EE4-8C29-4BCE-A9E7-C1CFC4557E33";
shapes = (
{
closed = 1;
nodes = (
(634,-47,l),
(398,277,l),
(361,250,l),
(597,-74,l)
);
},
{
alignment = -1;
ref = O;
}
);
width = 712;
},
{
layerId = "41EDA971-A137-4972-81AF-7929AB7CAABF";
shapes = (
{
closed = 1;
nodes = (
(648,-27,l),
(387,340,l),
(302,281,l),
(563,-87,l)
);
},
{
alignment = -1;
ref = O;
}
);
width = 712;
},
{
associatedMasterId = "41EDA971-A137-4972-81AF-7929AB7CAABF";
layerId = "D194D3A1-193B-4A67-AD6D-B78992CC1280";
name = "16 déc. 24 à 18:05";
shapes = (
{
closed = 1;
nodes = (
(652,-10,l),
(396,351,l),
(288,276,l),
(544,-86,l)
);
},
{
alignment = -1;
ref = O;
}
);
width = 712;
}
);
metricLeft = "=O@365";
metricRight = "=O@365";
unicode = 81;
},
{
glyphname = Qhooktail;
lastChange = "2025-04-03 08:41:22 +0000";
layers = (
{
background = {
shapes = (
{
closed = 1;
nodes = (
(527,-8,o),
(646,133,o),
(646,365,cs),
(646,597,o),
(527,738,o),
(346,738,cs),
(165,738,o),
(46,597,o),
(46,365,cs),
(46,133,o),
(165,-8,o),
(346,-8,cs)
);
},
{
closed = 1;
nodes = (
(177,50,o),
(78,176,o),
(78,365,cs),
(78,553,o),
(177,676,o),
(346,676,cs),
(516,676,o),
(614,553,o),
(614,365,cs),
(614,176,o),
(516,50,o),
(346,50,cs)
);
},
{
closed = 1;
nodes = (
(732,-204,o),
(754,-189,o),
(767,-168,c),
(753,-132,l),
(742,-141,o),
(725,-146,o),
(705,-146,cs),
(670,-146,o),
(648,-129,o),
(648,-74,cs),
(648,730,l),
(616,730,l),
(616,504,l),
(620,485,l),
(620,238,l),
(616,217,l),
(616,-98,ls),
(616,-171,o),
(647,-204,o),
(699,-204,cs)
);
}
);
};
layerId = "79167EE4-8C29-4BCE-A9E7-C1CFC4557E33";
shapes = (
{
closed = 1;
nodes = (
(527,-8,o),
(646,133,o),
(646,365,cs),
(646,597,o),
(527,738,o),
(346,738,cs),
(165,738,o),
(46,597,o),
(46,365,cs),
(46,133,o),
(165,-8,o),
(346,-8,cs)
);
},
{
closed = 1;
nodes = (
(177,50,o),
(78,176,o),
(78,365,cs),
(78,553,o),
(177,676,o),
(346,676,cs),
(516,676,o),
(614,553,o),
(614,365,cs),
(614,176,o),
(516,50,o),
(346,50,cs)
);
},
{
closed = 1;
nodes = (
(741,-204,o),
(767,-191,o),
(783,-166,c),
(769,-131,l),
(756,-144,o),
(738,-150,o),
(714,-150,cs),
(672,-150,o),
(648,-124,o),
(648,-63,cs),
(648,730,l),
(616,730,l),
(616,503,l),
(620,486,l),
(620,238,l),
(616,218,l),
(616,-83,ls),
(616,-164,o),
(650,-204,o),
(707,-204,cs)
);
}
);
width = 745;
},
{
layerId = "41EDA971-A137-4972-81AF-7929AB7CAABF";
shapes = (
{
closed = 1;
nodes = (
(509,-16,o),
(647,79,o),
(647,367,cs),
(647,653,o),
(510,746,o),
(347,746,cs),
(168,746,o),
(32,637,o),
(32,362,cs),
(32,93,o),
(167,-16,o),
(345,-16,cs)
);
},
{
closed = 1;
nodes = (
(185,202,o),
(115,245,o),
(115,329,cs),
(115,413,o),
(185,456,o),
(349,456,cs),
(513,456,o),
(583,413,o),
(583,329,cs),
(583,245,o),
(513,202,o),
(349,202,cs)
);
},
{
closed = 1;
nodes = (
(778,-212,o),
(820,-177,o),
(843,-130,c),
(799,7,l),
(782,-9,o),
(761,-16,o),
(737,-16,cs),
(695,-16,o),
(675,4,o),
(675,56,cs),
(675,730,l),
(579,730,l),
(579,542,l),
(583,508,l),
(583,212,l),
(579,185,l),
(579,-37,ls),
(579,-160,o),
(630,-212,o),
(712,-212,cs)
);
}
);
width = 745;
},
{
associatedMasterId = "79167EE4-8C29-4BCE-A9E7-C1CFC4557E33";
layerId = "4A512AEC-E97A-4F84-9365-92B9358E4CA5";
name = "31 mars 25 à 11:26";
shapes = (
{
closed = 1;
nodes = (
(527,-8,o),
(646,133,o),
(646,365,cs),
(646,597,o),
(527,738,o),
(346,738,cs),
(165,738,o),
(46,597,o),
(46,365,cs),
(46,133,o),
(165,-8,o),
(346,-8,cs)
);
},
{
closed = 1;
nodes = (
(177,50,o),
(78,176,o),
(78,365,cs),
(78,553,o),
(177,676,o),
(346,676,cs),
(516,676,o),
(614,553,o),
(614,365,cs),
(614,176,o),
(516,50,o),
(346,50,cs)
);
},
{
closed = 1;
nodes = (
(741,-204,o),
(765,-192,o),
(778,-171,c),
(768,-135,l),
(758,-142,o),
(742,-150,o),
(721,-150,cs),
(670,-150,o),
(648,-128,o),
(648,-63,cs),
(648,730,l),
(616,730,l),
(616,-83,ls),
(616,-164,o),
(649,-204,o),
(711,-204,cs)
);
}
);
width = 745;
},
{
associatedMasterId = "79167EE4-8C29-4BCE-A9E7-C1CFC4557E33";
background = {
shapes = (
{
closed = 1;
nodes = (
(611,-55,l),
(615,-165,o),
(647,-204,o),
(709,-204,cs),
(743,-204,o),
(766,-190,o),
(781,-166,c),
(767,-131,l),
(756,-142,o),
(738,-150,o),
(715,-150,cs),
(672,-150,o),
(647,-128,o),
(643,-41,c)
);
}
);
};
layerId = "19F162FE-6580-422E-A766-7E3C2C46BC76";
name = "31 mars 25 à 11:27";
shapes = (
{
closed = 1;
nodes = (
(527,-8,o),
(646,133,o),
(646,365,cs),
(646,597,o),
(527,738,o),
(346,738,cs),
(165,738,o),
(46,597,o),
(46,365,cs),
(46,133,o),
(165,-8,o),
(346,-8,cs)
);
},
{
closed = 1;
nodes = (
(177,50,o),
(78,176,o),
(78,365,cs),
(78,553,o),
(177,676,o),
(346,676,cs),
(516,676,o),
(614,553,o),
(614,365,cs),
(614,176,o),
(516,50,o),
(346,50,cs)
);
},
{
closed = 1;
nodes = (
(741,-204,o),
(765,-192,o),
(778,-171,c),
(768,-135,l),
(758,-142,o),
(742,-150,o),
(721,-150,cs),
(670,-150,o),
(648,-128,o),
(648,-63,cs),
(648,730,l),
(616,730,l),
(616,-83,ls),
(616,-164,o),
(649,-204,o),
(711,-204,cs)
);
}
);
width = 745;
},
{
associatedMasterId = "41EDA971-A137-4972-81AF-7929AB7CAABF";
layerId = "5FF16DC0-5D0C-4EA2-8E58-942F8628BCC5";
name = "31 mars 25 à 14:02";
shapes = (
{
closed = 1;
nodes = (
(522,-16,o),
(660,88,o),
(660,365,cs),
(660,643,o),
(522,746,o),
(346,746,cs),
(169,746,o),
(32,643,o),
(32,365,cs),
(32,88,o),
(169,-16,o),
(346,-16,cs)
);
},
{
closed = 1;
nodes = (
(184,202,o),
(115,245,o),
(115,329,cs),
(115,413,o),
(184,456,o),
(346,456,cs),
(508,456,o),
(577,413,o),
(577,329,cs),
(577,245,o),
(508,202,o),
(346,202,cs)
);
},
{
closed = 1;
nodes = (
(778,-212,o),
(820,-178,o),
(843,-130,c),
(800,5,l),
(782,-10,o),
(761,-16,o),
(738,-16,cs),
(694,-16,o),
(673,3,o),
(673,56,cs),
(673,730,l),
(577,730,l),
(577,-33,ls),
(577,-159,o),
(628,-212,o),
(711,-212,cs)
);
}
);
width = 743;
},
{
associatedMasterId = "41EDA971-A137-4972-81AF-7929AB7CAABF";
background = {
shapes = (
{
closed = 1;
nodes = (
(496,-16,o),
(633,69,o),
(633,369,cs),
(633,663,o),
(498,746,o),
(347,746,cs),
(166,746,o),
(32,631,o),
(32,359,cs),
(32,97,o),
(164,-16,o),
(343,-16,cs)
);
},
{
closed = 1;
nodes = (
(186,202,o),
(115,245,o),
(115,329,cs),
(115,413,o),
(186,456,o),
(352,456,cs),
(518,456,o),
(589,413,o),
(589,329,cs),
(589,245,o),
(518,202,o),
(352,202,cs)
);
},
{
closed = 1;
nodes = (
(778,-212,o),
(820,-177,o),
(843,-130,c),
(798,8,l),
(782,-8,o),
(760,-16,o),
(735,-16,cs),
(696,-16,o),
(677,4,o),
(677,55,cs),
(677,730,l),
(581,730,l),
(581,542,l),
(589,505,l),
(589,212,l),
(581,185,l),
(581,-32,ls),
(581,-159,o),
(631,-212,o),
(710,-212,cs)
);
}
);
};
layerId = "74D02DFE-9FB9-40A3-A536-7450263BCC8C";
name = "3 avr. 25 à 10:40";
shapes = (
{
closed = 1;
nodes = (
(522,-16,o),
(660,88,o),
(660,365,cs),
(660,643,o),
(522,746,o),
(346,746,cs),
(169,746,o),
(32,643,o),
(32,365,cs),
(32,88,o),
(169,-16,o),
(346,-16,cs)
);
},
{
closed = 1;
nodes = (
(184,202,o),
(115,245,o),
(115,329,cs),
(115,413,o),
(184,456,o),
(346,456,cs),
(508,456,o),
(577,413,o),
(577,329,cs),
(577,245,o),
(508,202,o),
(346,202,cs)
);
},
{
closed = 1;
nodes = (
(777,-212,o),
(820,-178,o),
(843,-130,c),
(800,5,l),
(782,-10,o),
(761,-16,o),
(738,-16,cs),
(694,-16,o),
(673,3,o),
(673,56,cs),
(673,730,l),
(577,730,l),
(577,-43,ls),
(577,-162,o),
(629,-212,o),
(713,-212,cs)
);
}
);
width = 743;
}
);
metricLeft = "=O";
metricRight = "=H@365";
unicode = 586;
},
{
glyphname = R;
lastChange = "2025-03-31 09:30:51 +0000";
layers = (
{
anchors = (
{
name = bottom;
pos = (343,0);
},
{
name = top;
pos = (326,730);
}
);
background = {
shapes = (
{
closed = 1;
nodes = (
(642,-8,o),
(665,8,o),
(681,34,c),
(662,70,l),
(654,59,o),
(634,50,o),
(617,50,cs),
(571,50,o),
(543,72,o),
(535,177,cs),
(527,286,o),
(503,324,o),
(432,334,c),
(428,316,l),
(542,337,o),
(601,412,o),
(601,523,cs),
(601,652,o),
(537,730,o),
(360,730,cs),
(97,730,l),
(97,0,l),
(129,0,l),
(129,672,l),
(367,672,ls),
(512,672,o),
(569,612,o),
(569,515,cs),
(569,414,o),
(501,348,o),
(352,348,cs),
(119,348,l),
(119,298,l),
(391,298,ls),
(470,298,o),
(497,274,o),
(503,168,cs),
(511,29,o),
(542,-8,o),
(605,-8,cs)
);
}
);
};
layerId = "79167EE4-8C29-4BCE-A9E7-C1CFC4557E33";
shapes = (
{
closed = 1;
nodes = (
(641,-8,o),
(665,9,o),
(679,32,c),
(665,70,l),
(655,59,o),
(635,50,o),
(613,50,cs),
(572,50,o),
(543,72,o),
(535,177,cs),
(527,286,o),
(503,324,o),
(432,334,c),
(428,316,l),
(542,337,o),
(601,412,o),
(601,523,cs),
(601,652,o),
(537,730,o),
(360,730,cs),
(97,730,l),
(97,0,l),
(129,0,l),
(129,672,l),
(367,672,ls),
(512,672,o),
(569,612,o),
(569,515,cs),
(569,414,o),
(501,348,o),
(352,348,cs),
(119,348,l),
(119,298,l),
(391,298,ls),
(470,298,o),
(497,274,o),
(503,168,cs),
(511,29,o),
(542,-8,o),
(605,-8,cs)
);
}
);
width = 691;
},
{
anchors = (
{
name = bottom;
pos = (346,0);
},
{
name = top;
pos = (339,730);
}
);
background = {
shapes = (
{
closed = 0;
nodes = (
(689,42,l),
(637,222,l)
);
},
{
closed = 0;
nodes = (
(651,-5,l),
(690,64,l)
);
},
{
closed = 0;
nodes = (
(605,186,l),
(650,217,l)
);
}
);
};
layerId = "41EDA971-A137-4972-81AF-7929AB7CAABF";
shapes = (
{
closed = 1;
nodes = (
(627,-16,o),
(661,6,o),
(689,55,c),
(644,210,l),
(627,198,o),
(608,192,o),
(588,192,cs),
(554,192,o),
(544,203,o),
(533,239,cs),
(518,287,o),
(491,295,o),
(424,295,c),
(429,285,l),
(570,270,o),
(630,354,o),
(630,506,cs),
(630,653,o),
(560,730,o),
(403,730,cs),
(70,730,l),
(70,0,l),
(166,0,l),
(166,450,l),
(460,450,ls),
(494,450,o),
(514,437,o),
(514,411,cs),
(514,382,o),
(500,367,o),
(461,367,cs),
(152,367,l),
(150,209,l),
(370,209,ls),
(427,209,o),
(445,198,o),
(453,133,cs),
(467,20,o),
(505,-16,o),
(575,-16,cs)
);
}
);
width = 693;
},
{
anchors = (
{
name = bottom;
pos = (349,0);
},
{
name = top;
pos = (332,730);
}
);
associatedMasterId = "79167EE4-8C29-4BCE-A9E7-C1CFC4557E33";
background = {
shapes = (
{
closed = 1;
nodes = (
(647,-8,o),
(673,10,o),
(685,36,c),
(671,68,l),
(662,58,o),
(639,50,o),
(623,50,cs),
(576,50,o),
(555,74,o),
(534,177,cs),
(512,286,o),
(494,324,o),
(424,334,c),
(434,316,l),
(548,337,o),
(607,411,o),
(607,517,cs),
(607,651,o),
(543,730,o),
(366,730,cs),
(103,730,l),
(103,0,l),
(135,0,l),
(135,668,l),
(369,668,ls),
(518,668,o),
(575,605,o),
(575,508,cs),
(575,411,o),
(507,348,o),
(358,348,cs),
(125,348,l),
(125,298,l),
(383,298,ls),
(452,298,o),
(482,282,o),
(502,173,cs),
(530,24,o),
(557,-8,o),
(614,-8,cs)
);
}
);
};
layerId = "B59F9DAC-FB86-4890-A718-8A4496D115C4";
name = "12 déc. 24 à 15:13";
shapes = (
{
closed = 1;
nodes = (
(647,-8,o),
(673,10,o),
(685,36,c),
(671,68,l),
(662,58,o),
(639,50,o),
(623,50,cs),
(576,50,o),
(555,74,o),
(534,177,cs),
(512,286,o),
(494,324,o),
(424,334,c),
(434,316,l),
(548,337,o),
(607,411,o),
(607,517,cs),
(607,651,o),
(543,730,o),
(366,730,cs),
(103,730,l),
(103,0,l),
(135,0,l),
(135,672,l),
(369,672,ls),
(518,672,o),
(575,610,o),
(575,515,cs),
(575,414,o),
(507,348,o),
(358,348,cs),
(125,348,l),
(125,298,l),
(383,298,ls),
(452,298,o),
(482,282,o),
(502,173,cs),
(530,24,o),
(557,-8,o),
(614,-8,cs)
);
}
);
width = 697;
},
{
anchors = (
{
name = bottom;
pos = (349,0);
},
{
name = top;
pos = (332,730);
}
);
associatedMasterId = "79167EE4-8C29-4BCE-A9E7-C1CFC4557E33";
layerId = "F6A43461-F492-4CC3-BC0B-DCF7BA30750D";
name = "12 déc. 24 à 15:17";
shapes = (
{
closed = 1;
nodes = (
(647,-8,o),
(673,10,o),
(685,36,c),
(671,68,l),
(662,58,o),
(639,50,o),
(623,50,cs),
(576,50,o),
(555,74,o),
(534,177,cs),
(512,286,o),
(494,324,o),
(424,334,c),
(434,316,l),
(548,337,o),
(607,412,o),
(607,523,cs),
(607,652,o),
(543,730,o),
(366,730,cs),
(103,730,l),
(103,0,l),
(135,0,l),
(135,672,l),
(373,672,ls),
(518,672,o),
(575,612,o),
(575,515,cs),
(575,414,o),
(507,348,o),
(358,348,cs),
(125,348,l),
(125,298,l),
(383,298,ls),
(452,298,o),
(482,282,o),
(502,173,cs),
(530,24,o),
(557,-8,o),
(614,-8,cs)
);
}
);
width = 697;
},
{
anchors = (
{
name = bottom;
pos = (349,0);
},
{
name = top;
pos = (332,730);
}
);
associatedMasterId = "79167EE4-8C29-4BCE-A9E7-C1CFC4557E33";
background = {
shapes = (
{
closed = 1;
nodes = (
(647,-8,o),
(673,10,o),
(685,36,c),
(671,68,l),
(662,58,o),
(639,50,o),
(623,50,cs),
(580,50,o),
(549,72,o),
(541,177,cs),
(533,286,o),
(509,324,o),
(438,334,c),
(434,316,l),
(548,337,o),
(607,412,o),
(607,523,cs),
(607,652,o),
(543,730,o),
(366,730,cs),
(103,730,l),
(103,0,l),
(135,0,l),
(135,672,l),
(373,672,ls),
(518,672,o),
(575,612,o),
(575,515,cs),
(575,414,o),
(507,348,o),
(358,348,cs),
(125,348,l),
(125,298,l),
(397,298,ls),
(473,298,o),
(503,276,o),
(509,173,cs),
(517,29,o),
(554,-8,o),
(613,-8,cs)
);
}
);
};
layerId = "8000894A-AB2A-400C-9E2E-131AEA56DC6D";
name = "13 déc. 24 à 14:35";
shapes = (
{
closed = 1;
nodes = (
(648,-8,o),
(673,10,o),
(685,36,c),
(671,68,l),
(662,58,o),
(639,50,o),
(623,50,cs),
(577,50,o),
(549,72,o),
(541,177,cs),
(533,286,o),
(509,324,o),
(438,334,c),
(434,316,l),
(548,337,o),
(607,412,o),
(607,523,cs),
(607,652,o),
(543,730,o),
(366,730,cs),
(103,730,l),
(103,0,l),
(135,0,l),
(135,672,l),
(373,672,ls),
(518,672,o),
(575,612,o),
(575,515,cs),
(575,414,o),
(507,348,o),
(358,348,cs),
(125,348,l),
(125,298,l),
(397,298,ls),
(476,298,o),
(503,274,o),
(509,168,cs),
(517,29,o),
(548,-8,o),
(611,-8,cs)
);
}
);
width = 697;
},
{
anchors = (
{
name = bottom;
pos = (344,0);
},
{
name = top;
pos = (337,730);
}
);
associatedMasterId = "41EDA971-A137-4972-81AF-7929AB7CAABF";
layerId = "7BD50B62-3351-4D83-9362-09B123562EFC";
name = "14 déc. 24 à 10:05";
shapes = (
{
closed = 1;
nodes = (
(637,-16,o),
(671,15,o),
(687,57,c),
(638,208,l),
(623,199,o),
(605,192,o),
(584,192,cs),
(551,192,o),
(541,203,o),
(530,239,cs),
(515,287,o),
(488,295,o),
(422,295,c),
(427,285,l),
(567,270,o),
(627,354,o),
(627,506,cs),
(627,653,o),
(557,730,o),
(401,730,cs),
(70,730,l),
(70,0,l),
(166,0,l),
(166,450,l),
(458,450,ls),
(492,450,o),
(511,437,o),
(511,411,cs),
(511,382,o),
(498,367,o),
(459,367,cs),
(152,367,l),
(150,209,l),
(368,209,ls),
(425,209,o),
(442,198,o),
(450,133,cs),
(464,20,o),
(501,-16,o),
(581,-16,cs)
);
}
);
width = 689;
},
{
anchors = (
{
name = bottom;
pos = (343,0);
},
{
name = top;
pos = (326,730);
}
);
associatedMasterId = "79167EE4-8C29-4BCE-A9E7-C1CFC4557E33";
layerId = "8C24A675-CD5A-4596-8B3B-B6E8B9EAF347";
name = "31 mars 25 à 11:26";
shapes = (
{
closed = 1;
nodes = (
(642,-8,o),
(665,8,o),
(681,34,c),
(662,70,l),
(654,59,o),
(634,50,o),
(617,50,cs),
(571,50,o),
(543,72,o),
(535,177,cs),
(527,286,o),
(503,324,o),
(432,334,c),
(428,316,l),
(542,337,o),
(601,412,o),
(601,523,cs),
(601,652,o),
(537,730,o),
(360,730,cs),
(97,730,l),
(97,0,l),
(129,0,l),
(129,672,l),
(367,672,ls),
(512,672,o),
(569,612,o),
(569,515,cs),
(569,414,o),
(501,348,o),
(352,348,cs),
(119,348,l),
(119,298,l),
(391,298,ls),
(470,298,o),
(497,274,o),
(503,168,cs),
(511,29,o),
(542,-8,o),
(605,-8,cs)
);
}
);
width = 691;
},
{
anchors = (
{
name = bottom;
pos = (343,0);
},
{
name = top;
pos = (326,730);
}
);
associatedMasterId = "79167EE4-8C29-4BCE-A9E7-C1CFC4557E33";
background = {
shapes = (
{
closed = 1;
nodes = (
(642,-8,o),
(665,8,o),
(681,34,c),
(662,70,l),
(654,59,o),
(634,50,o),
(617,50,cs),
(571,50,o),
(543,72,o),
(535,177,cs),
(527,286,o),
(503,324,o),
(432,334,c),
(428,316,l),
(542,337,o),
(601,412,o),
(601,523,cs),
(601,652,o),
(537,730,o),
(360,730,cs),
(97,730,l),
(97,0,l),
(129,0,l),
(129,672,l),
(367,672,ls),
(512,672,o),
(569,612,o),
(569,515,cs),
(569,414,o),
(501,348,o),
(352,348,cs),
(119,348,l),
(119,298,l),
(391,298,ls),
(470,298,o),
(497,274,o),
(503,168,cs),
(511,29,o),
(542,-8,o),
(605,-8,cs)
);
}
);
};
layerId = "9A5B2BA9-99E4-4F15-B3EF-461DE2315CB0";
name = "31 mars 25 à 11:30";
shapes = (
{
closed = 1;
nodes = (
(642,-8,o),
(665,8,o),
(681,34,c),
(662,70,l),
(654,59,o),
(634,50,o),
(617,50,cs),
(571,50,o),
(543,72,o),
(535,177,cs),
(527,286,o),
(503,324,o),
(432,334,c),
(428,316,l),
(542,337,o),
(601,412,o),
(601,523,cs),
(601,652,o),
(537,730,o),
(360,730,cs),
(97,730,l),
(97,0,l),
(129,0,l),
(129,672,l),
(367,672,ls),
(512,672,o),
(569,612,o),
(569,515,cs),
(569,414,o),
(501,348,o),
(352,348,cs),
(119,348,l),
(119,298,l),
(391,298,ls),
(470,298,o),
(497,274,o),
(503,168,cs),
(511,29,o),
(542,-8,o),
(605,-8,cs)
);
}
);
width = 691;
}
);
metricLeft = "=H";
unicode = 82;
},
{
glyphname = Rstroke;
lastChange = "2025-03-31 09:37:50 +0000";
layers = (
{
layerId = "79167EE4-8C29-4BCE-A9E7-C1CFC4557E33";
shapes = (
{
pos = (31,0);
ref = R;
},
{
closed = 1;
nodes = (
(144,300,l),
(144,346,l),
(0,346,l),
(0,300,l)
);
}
);
width = 722;
},
{
layerId = "41EDA971-A137-4972-81AF-7929AB7CAABF";
shapes = (
{
pos = (49,0);
ref = R;
},
{
closed = 1;
nodes = (
(158,214,l),
(158,362,l),
(0,362,l),
(0,214,l)
);
}
);
width = 742;
}
);
metricRight = "=R";
unicode = 588;
},
{
glyphname = Rtail;
lastChange = "2025-03-31 12:08:20 +0000";
layers = (
{
layerId = "79167EE4-8C29-4BCE-A9E7-C1CFC4557E33";
shapes = (
{
closed = 1;
nodes = (
(252,-204,o),
(283,-187,o),
(306,-153,c),
(291,-120,l),
(271,-141,o),
(245,-150,o),
(213,-150,cs),
(158,-150,o),
(129,-123,o),
(129,-51,cs),
(129,64,l),
(97,64,l),
(97,-66,ls),
(97,-165,o),
(138,-204,o),
(208,-204,cs)
);
},
{
ref = R;
}
);
width = 691;
},
{
background = {
shapes = (
{
ref = R;
}
);
};
layerId = "41EDA971-A137-4972-81AF-7929AB7CAABF";
shapes = (
{
closed = 1;
nodes = (
(288,-211,o),
(333,-180,o),
(359,-130,c),
(317,6,l),
(292,-12,o),
(267,-20,o),
(241,-20,cs),
(190,-20,o),
(166,1,o),
(166,57,cs),
(166,109,l),
(70,109,l),
(70,-40,ls),
(70,-160,o),
(125,-211,o),
(218,-211,cs)
);
},
{
ref = R;
}
);
width = 693;
},
{
associatedMasterId = "79167EE4-8C29-4BCE-A9E7-C1CFC4557E33";
layerId = "730A32BD-79FF-431A-B3A5-0AA926A64A5E";
name = "31 mars 25 à 11:28";
shapes = (
{
ref = R;
},
{
closed = 1;
nodes = (
(267,-204,o),
(298,-185,o),
(322,-146,c),
(306,-114,l),
(286,-139,o),
(257,-150,o),
(222,-150,cs),
(160,-150,o),
(129,-123,o),
(129,-45,cs),
(129,101,l),
(97,101,l),
(97,-58,ls),
(97,-166,o),
(141,-204,o),
(219,-204,cs)
);
}
);
width = 691;
},
{
associatedMasterId = "41EDA971-A137-4972-81AF-7929AB7CAABF";
layerId = "91FE34CF-0CC9-4D73-99FF-864AA4FFC14C";
name = "31 mars 25 à 14:07";
shapes = (
{
ref = R;
},
{
closed = 1;
nodes = (
(305,-211,o),
(353,-183,o),
(381,-131,c),
(341,6,l),
(309,-15,o),
(280,-24,o),
(250,-24,cs),
(193,-24,o),
(166,-2,o),
(166,57,cs),
(166,109,l),
(70,109,l),
(70,-38,ls),
(70,-158,o),
(128,-211,o),
(230,-211,cs)
);
}
);
width = 693;
},
{
associatedMasterId = "41EDA971-A137-4972-81AF-7929AB7CAABF";
background = {
shapes = (
{
closed = 1;
nodes = (
(166,109,l),
(70,109,l),
(70,-43,ls),
(70,-162,o),
(122,-212,o),
(206,-212,cs),
(270,-212,o),
(313,-178,o),
(336,-130,c),
(293,5,l),
(275,-10,o),
(254,-16,o),
(231,-16,cs),
(187,-16,o),
(166,3,o),
(166,56,cs)
);
}
);
};
layerId = "1E29C270-E00B-4482-8834-594116FD19FB";
name = "31 mars 25 à 14:07";
shapes = (
{
ref = R;
},
{
closed = 1;
nodes = (
(305,-211,o),
(353,-183,o),
(381,-131,c),
(341,6,l),
(309,-15,o),
(280,-24,o),
(250,-24,cs),
(193,-24,o),
(166,-2,o),
(166,57,cs),
(166,109,l),
(70,109,l),
(70,-38,ls),
(70,-158,o),
(128,-211,o),
(230,-211,cs)
);
}
);
width = 693;
}
);
metricLeft = "=R";
metricRight = "=R";
unicode = 11364;
},
{
glyphname = S;
lastChange = "2025-03-31 09:53:57 +0000";
layers = (
{
anchors = (
{
name = bottom;
pos = (319,0);
},
{
name = cedilla;
pos = (319,0);
},
{
name = top;
pos = (332,730);
}
);
background = {
shapes = (
{
closed = 1;
nodes = (
(472,-8,o),
(569,73,o),
(569,202,cs),
(569,313,o),
(513,364,o),
(319,387,cs),
(153,407,o),
(111,447,o),
(111,531,cs),
(111,608,o),
(166,673,o),
(315,676,cs),
(414,678,o),
(494,641,o),
(539,585,c),
(559,623,l),
(518,687,o),
(443,738,o),
(324,738,cs),
(176,738,o),
(68,657,o),
(68,529,cs),
(68,418,o),
(135,370,o),
(308,351,cs),
(477,332,o),
(527,291,o),
(527,208,cs),
(527,116,o),
(464,50,o),
(310,50,cs),
(214,50,o),
(121,88,o),
(76,144,c),
(56,106,l),
(97,42,o),
(183,-8,o),
(316,-8,cs)
);
}
);
};
layerId = "79167EE4-8C29-4BCE-A9E7-C1CFC4557E33";
shapes = (
{
closed = 1;
nodes = (
(472,-8,o),
(569,73,o),
(569,202,cs),
(569,319,o),
(513,369,o),
(319,392,cs),
(154,411,o),
(110,450,o),
(110,531,cs),
(110,608,o),
(165,673,o),
(315,676,cs),
(414,678,o),
(494,641,o),
(539,585,c),
(559,623,l),
(518,687,o),
(443,738,o),
(324,738,cs),
(176,738,o),
(68,657,o),
(68,529,cs),
(68,411,o),
(135,364,o),
(308,345,cs),
(475,327,o),
(527,288,o),
(527,208,cs),
(527,116,o),
(464,50,o),
(310,50,cs),
(214,50,o),
(121,88,o),
(76,144,c),
(56,106,l),
(97,42,o),
(183,-8,o),
(316,-8,cs)
);
}
);
width = 621;
},
{
anchors = (
{
name = bottom;
pos = (326,0);
},
{
name = cedilla;
pos = (326,0);
},
{
name = top;
pos = (321,730);
}
);
background = {
shapes = (
{
closed = 0;
nodes = (
(16,92,l),
(71,281,l)
);
},
{
closed = 0;
nodes = (
(56,43,l),
(15,115,l)
);
},
{
closed = 0;
nodes = (
(104,244,l),
(57,276,l)
);
},
{
closed = 0;
nodes = (
(533,395,l),
(602,625,l)
);
},
{
closed = 0;
nodes = (
(551,403,l),
(492,443,l)
);
},
{
closed = 0;
nodes = (
(603,597,l),
(552,685,l)
);
}
);
};
layerId = "41EDA971-A137-4972-81AF-7929AB7CAABF";
shapes = (
{
closed = 1;
nodes = (
(506,-16,o),
(601,52,o),
(601,204,cs),
(601,336,o),
(509,374,o),
(349,380,cs),
(206,384,o),
(177,392,o),
(177,422,cs),
(177,449,o),
(209,466,o),
(321,466,cs),
(417,466,o),
(478,452,o),
(538,412,c),
(597,608,l),
(543,701,o),
(462,746,o),
(335,746,cs),
(154,746,o),
(42,660,o),
(42,498,cs),
(42,337,o),
(129,291,o),
(291,286,cs),
(427,281,o),
(454,271,o),
(454,240,cs),
(454,213,o),
(436,192,o),
(328,192,cs),
(215,192,o),
(142,217,o),
(68,269,c),
(20,106,l),
(62,33,o),
(160,-16,o),
(307,-16,cs)
);
}
);
width = 621;
},
{
anchors = (
{
name = bottom;
pos = (319,0);
},
{
name = top;
pos = (327,730);
}
);
associatedMasterId = "79167EE4-8C29-4BCE-A9E7-C1CFC4557E33";
layerId = "A6B9D39D-7358-4FCC-BCEF-115DA4021CEC";
name = "12 déc. 24 à 15:20";
shapes = (
{
closed = 1;
nodes = (
(472,-8,o),
(569,73,o),
(569,202,cs),
(569,313,o),
(513,364,o),
(319,387,cs),
(153,407,o),
(111,447,o),
(111,531,cs),
(111,609,o),
(166,675,o),
(315,678,cs),
(414,680,o),
(495,640,o),
(541,582,c),
(557,627,l),
(525,683,o),
(443,738,o),
(324,738,cs),
(176,738,o),
(68,657,o),
(68,529,cs),
(68,418,o),
(135,370,o),
(308,351,cs),
(477,332,o),
(527,291,o),
(527,208,cs),
(527,115,o),
(464,48,o),
(310,48,cs),
(214,48,o),
(121,87,o),
(74,146,c),
(59,105,l),
(96,42,o),
(183,-8,o),
(316,-8,cs)
);
}
);
width = 621;
},
{
anchors = (
{
name = bottom;
pos = (319,0);
},
{
name = top;
pos = (327,730);
}
);
associatedMasterId = "79167EE4-8C29-4BCE-A9E7-C1CFC4557E33";
background = {
shapes = (
{
closed = 0;
nodes = (
(542,583,l),
(557,626,l)
);
},
{
closed = 0;
nodes = (
(59,103,l),
(74,146,l)
);
}
);
};
layerId = "0C31F580-17B0-4BA0-AF7A-877D1D63CAEB";
name = "13 déc. 24 à 14:36";
shapes = (
{
closed = 1;
nodes = (
(472,-8,o),
(569,73,o),
(569,202,cs),
(569,313,o),
(513,364,o),
(319,387,cs),
(153,407,o),
(111,447,o),
(111,531,cs),
(111,609,o),
(166,675,o),
(315,678,cs),
(414,680,o),
(495,640,o),
(542,583,c),
(557,626,l),
(525,683,o),
(443,738,o),
(324,738,cs),
(176,738,o),
(68,657,o),
(68,529,cs),
(68,418,o),
(135,370,o),
(308,351,cs),
(477,332,o),
(527,291,o),
(527,208,cs),
(527,115,o),
(464,48,o),
(310,48,cs),
(214,48,o),
(121,87,o),
(74,146,c),
(59,103,l),
(96,42,o),
(183,-8,o),
(316,-8,cs)
);
}
);
width = 621;
},
{
anchors = (
{
name = bottom;
pos = (326,0);
},
{
name = top;
pos = (307,730);
}
);
associatedMasterId = "41EDA971-A137-4972-81AF-7929AB7CAABF";
background = {
shapes = (
{
closed = 1;
nodes = (
(504,-16,o),
(599,52,o),
(599,204,cs),
(599,336,o),
(507,374,o),
(347,380,cs),
(204,384,o),
(175,392,o),
(175,422,cs),
(175,449,o),
(207,466,o),
(319,466,cs),
(421,466,o),
(494,447,o),
(540,408,c),
(590,615,l),
(545,694,o),
(465,746,o),
(333,746,cs),
(152,746,o),
(40,660,o),
(40,498,cs),
(40,337,o),
(127,291,o),
(289,286,cs),
(425,281,o),
(452,271,o),
(452,240,cs),
(452,213,o),
(434,192,o),
(326,192,cs),
(200,192,o),
(124,220,o),
(63,276,c),
(8,114,l),
(55,35,o),
(155,-16,o),
(305,-16,cs)
);
}
);
};
layerId = "86DBD106-FD0E-4313-ACCC-42D82C8F6710";
name = "14 déc. 24 à 10:06";
shapes = (
{
closed = 1;
nodes = (
(506,-16,o),
(601,52,o),
(601,204,cs),
(601,336,o),
(509,374,o),
(349,380,cs),
(206,384,o),
(177,392,o),
(177,422,cs),
(177,449,o),
(209,466,o),
(321,466,cs),
(423,466,o),
(496,447,o),
(542,408,c),
(592,615,l),
(547,694,o),
(467,746,o),
(335,746,cs),
(154,746,o),
(42,660,o),
(42,498,cs),
(42,337,o),
(129,291,o),
(291,286,cs),
(427,281,o),
(454,271,o),
(454,240,cs),
(454,213,o),
(436,192,o),
(328,192,cs),
(205,192,o),
(131,218,o),
(71,270,c),
(16,108,l),
(62,33,o),
(160,-16,o),
(307,-16,cs)
);
}
);
width = 613;
},
{
anchors = (
{
name = bottom;
pos = (323,0);
},
{
name = cedilla;
pos = (323,0);
},
{
name = top;
pos = (326,730);
}
);
associatedMasterId = "79167EE4-8C29-4BCE-A9E7-C1CFC4557E33";
attr = {
coordinates = (
550
);
};
background = {
anchors = (
{
name = bottom;
pos = (323,0);
},
{
name = top;
pos = (326,730);
}
);
shapes = (
{
closed = 1;
nodes = (
(491,-12,o),
(587,61,o),
(587,203,cs),
(587,326,o),
(510,370,o),
(336,383,cs),
(183,394,o),
(148,416,o),
(148,470,cs),
(148,519,o),
(191,557,o),
(318,558,cs),
(416,559,o),
(486,534,o),
(538,488,c),
(580,615,l),
(532,695,o),
(454,743,o),
(330,743,cs),
(164,743,o),
(53,659,o),
(53,512,cs),
(53,372,o),
(131,326,o),
(298,314,cs),
(448,303,o),
(486,280,o),
(486,226,cs),
(486,171,o),
(448,130,o),
(320,130,cs),
(215,130,o),
(132,161,o),
(72,214,c),
(36,106,l),
(77,38,o),
(170,-12,o),
(311,-12,cs)
);
}
);
};
layerId = "405E6C65-E3FE-4E4D-8290-5BA54F6B8822";
name = "28 févr. 25 à 12:21";
shapes = (
{
closed = 1;
nodes = (
(491,-12,o),
(587,60,o),
(587,208,cs),
(587,328,o),
(514,373,o),
(340,386,cs),
(187,397,o),
(148,422,o),
(148,470,cs),
(148,519,o),
(191,557,o),
(318,558,cs),
(416,559,o),
(486,534,o),
(538,488,c),
(580,615,l),
(532,695,o),
(454,743,o),
(330,743,cs),
(164,743,o),
(53,660,o),
(53,508,cs),
(53,365,o),
(127,316,o),
(295,305,cs),
(444,293,o),
(486,273,o),
(486,226,cs),
(486,171,o),
(448,130,o),
(320,130,cs),
(215,130,o),
(132,161,o),
(72,214,c),
(36,106,l),
(77,38,o),
(170,-12,o),
(311,-12,cs)
);
}
);
width = 621;
},
{
anchors = (
{
name = bottom;
pos = (319,0);
},
{
name = top;
pos = (332,730);
}
);
associatedMasterId = "79167EE4-8C29-4BCE-A9E7-C1CFC4557E33";
background = {
shapes = (
{
closed = 1;
nodes = (
(472,-8,o),
(569,73,o),
(569,202,cs),
(569,313,o),
(513,364,o),
(319,387,cs),
(153,407,o),
(111,447,o),
(111,531,cs),
(111,608,o),
(166,673,o),
(315,676,cs),
(414,678,o),
(494,641,o),
(539,585,c),
(559,623,l),
(518,687,o),
(443,738,o),
(324,738,cs),
(176,738,o),
(68,657,o),
(68,529,cs),
(68,418,o),
(135,370,o),
(308,351,cs),
(477,332,o),
(527,291,o),
(527,208,cs),
(527,116,o),
(464,50,o),
(310,50,cs),
(214,50,o),
(121,88,o),
(76,144,c),
(56,106,l),
(97,42,o),
(183,-8,o),
(316,-8,cs)
);
}
);
};
layerId = "AA2A99A9-E688-4057-99D2-619D53D5D845";
name = "28 févr. 25 à 13:00";
shapes = (
{
closed = 1;
nodes = (
(472,-8,o),
(569,73,o),
(569,202,cs),
(569,313,o),
(513,364,o),
(319,387,cs),
(153,407,o),
(111,447,o),
(111,531,cs),
(111,608,o),
(166,673,o),
(315,676,cs),
(414,678,o),
(494,641,o),
(539,585,c),
(559,623,l),
(518,687,o),
(443,738,o),
(324,738,cs),
(176,738,o),
(68,657,o),
(68,529,cs),
(68,418,o),
(135,370,o),
(308,351,cs),
(477,332,o),
(527,291,o),
(527,208,cs),
(527,116,o),
(464,50,o),
(310,50,cs),
(214,50,o),
(121,88,o),
(76,144,c),
(56,106,l),
(97,42,o),
(183,-8,o),
(316,-8,cs)
);
}
);
width = 621;
}
);
unicode = 83;
},
